M48
; DRILL file {KiCad 9.0.0-rc3-dirty} date 2025-04-14T01:48:38-0300
; FORMAT={-:-/ absolute / metric / decimal}
; #@! TF.CreationDate,2025-04-14T01:48:38-03:00
; #@! TF.GenerationSoftware,Kicad,Pcbnew,9.0.0-rc3-dirty
; #@! TF.FileFunction,Plated,1,2,PTH
FMAT,2
METRIC
; #@! TA.AperFunction,Plated,PTH,ComponentDrill
T1C1.000
; #@! TA.AperFunction,Plated,PTH,ComponentDrill
T2C1.100
%
G90
G05
T1
X68.072Y-61.976
X68.072Y-64.516
X68.072Y-67.056
X68.072Y-69.596
X68.072Y-83.82
X68.072Y-86.36
X68.072Y-88.9
X68.072Y-91.44
X76.2Y-53.34
X77.978Y-96.774
X78.74Y-53.34
X80.518Y-96.774
X83.058Y-96.774
X89.894Y-53.365
X91.186Y-96.52
X92.434Y-53.365
X93.726Y-96.52
X94.974Y-53.365
X96.266Y-96.52
X97.514Y-53.365
X98.806Y-96.52
X100.054Y-53.365
X102.594Y-53.365
X105.134Y-53.365
X107.674Y-53.365
X107.95Y-97.028
X110.49Y-97.028
X113.03Y-97.028
T2
X75.884Y-88.646
X75.884Y-93.146
X75.907Y-58.151
X75.907Y-62.651
X75.907Y-65.757
X75.907Y-70.257
X75.907Y-73.377
X75.907Y-77.877
X75.907Y-80.997
X75.907Y-85.497
X82.384Y-88.646
X82.384Y-93.146
X82.407Y-58.151
X82.407Y-62.651
X82.407Y-65.757
X82.407Y-70.257
X82.407Y-73.377
X82.407Y-77.877
X82.407Y-80.997
X82.407Y-85.497
X86.446Y-88.646
X86.446Y-93.146
X86.457Y-58.151
X86.457Y-62.651
X86.457Y-65.757
X86.457Y-70.257
X86.457Y-73.377
X86.457Y-77.877
X86.457Y-80.997
X86.457Y-85.497
X92.946Y-88.646
X92.946Y-93.146
X92.957Y-58.151
X92.957Y-62.651
X92.957Y-65.757
X92.957Y-70.257
X92.957Y-73.377
X92.957Y-77.877
X92.957Y-80.997
X92.957Y-85.497
X96.996Y-88.646
X96.996Y-93.146
X97.007Y-58.151
X97.007Y-62.651
X97.007Y-65.757
X97.007Y-70.257
X97.007Y-73.377
X97.007Y-77.877
X97.007Y-80.997
X97.007Y-85.497
X103.496Y-88.646
X103.496Y-93.146
X103.507Y-58.151
X103.507Y-62.651
X103.507Y-65.757
X103.507Y-70.257
X103.507Y-73.377
X103.507Y-77.877
X103.507Y-80.997
X103.507Y-85.497
X107.546Y-88.646
X107.546Y-93.146
X107.557Y-58.151
X107.557Y-62.651
X107.557Y-73.377
X107.557Y-77.877
X107.557Y-80.997
X107.557Y-85.497
X107.593Y-65.757
X107.593Y-70.257
X114.046Y-88.646
X114.046Y-93.146
X114.057Y-58.151
X114.057Y-62.651
X114.057Y-73.377
X114.057Y-77.877
X114.057Y-80.997
X114.057Y-85.497
X114.093Y-65.757
X114.093Y-70.257
M30
