M48
; DRILL file {KiCad 8.0.5-dirty} date 2024-09-28T11:25:16-0300
; FORMAT={-:-/ absolute / metric / decimal}
; #@! TF.CreationDate,2024-09-28T11:25:16-03:00
; #@! TF.GenerationSoftware,Kicad,Pcbnew,8.0.5-dirty
; #@! TF.FileFunction,Plated,1,2,PTH
FMAT,2
METRIC
; #@! TA.AperFunction,Plated,PTH,ViaDrill
T1C0.500
; #@! TA.AperFunction,Plated,PTH,ComponentDrill
T2C0.600
; #@! TA.AperFunction,Plated,PTH,ComponentDrill
T3C0.800
; #@! TA.AperFunction,Plated,PTH,ComponentDrill
T4C0.900
; #@! TA.AperFunction,Plated,PTH,ComponentDrill
T5C1.100
; #@! TA.AperFunction,Plated,PTH,ComponentDrill
T6C1.520
%
G90
G05
T1
X136.261Y-51.054
X136.261Y-59.436
X145.288Y-67.31
X153.533Y-58.396
X155.057Y-59.944
X156.718Y-56.896
X161.153Y-56.946
X161.798Y-59.846
X164.201Y-58.42
X166.869Y-59.818
X171.059Y-55.372
X171.313Y-67.31
X191.135Y-53.084
X191.135Y-68.263
X192.902Y-55.604
X192.938Y-66.65
T2
X140.865Y-54.356
X142.865Y-54.356
T3
X130.108Y-48.26
X132.648Y-48.26
X133.848Y-62.23
X136.388Y-62.23
X138.586Y-50.038
X140.208Y-62.2
X140.208Y-69.82
X140.325Y-58.928
X141.126Y-50.038
X142.748Y-62.2
X142.748Y-69.82
X142.865Y-58.928
X145.23Y-44.958
X145.23Y-47.498
X145.23Y-50.038
X145.288Y-62.2
X145.288Y-69.82
X147.691Y-53.928
X147.691Y-58.928
X147.828Y-62.2
X147.828Y-69.82
X148.59Y-47.527
X148.59Y-50.067
X151.638Y-62.22
X151.638Y-69.84
X151.691Y-45.783
X151.691Y-53.404
X154.178Y-62.22
X154.178Y-69.84
X154.231Y-45.783
X154.231Y-53.404
X156.718Y-62.22
X156.718Y-69.84
X156.772Y-45.783
X156.772Y-53.404
X159.258Y-62.22
X159.258Y-69.84
X159.311Y-45.783
X159.311Y-53.404
X161.798Y-62.22
X161.798Y-69.84
X161.851Y-45.783
X161.851Y-53.404
X164.338Y-62.22
X164.338Y-69.84
X164.391Y-45.783
X164.391Y-53.404
X166.878Y-62.22
X166.878Y-69.84
X166.931Y-45.783
X166.931Y-53.404
X169.418Y-62.22
X169.418Y-69.84
X169.471Y-45.783
X169.471Y-53.404
X172.011Y-45.783
X172.011Y-53.404
X180.975Y-50.482
X180.975Y-53.023
X180.975Y-55.562
X180.975Y-58.102
X180.975Y-60.642
X180.975Y-63.182
X180.975Y-65.722
X180.975Y-68.263
X180.975Y-70.802
X186.182Y-46.99
X188.595Y-50.482
X188.595Y-53.023
X188.595Y-55.562
X188.595Y-58.102
X188.595Y-60.642
X188.595Y-63.182
X188.595Y-65.722
X188.595Y-68.263
X188.595Y-70.802
X188.722Y-46.99
X195.58Y-53.023
X195.58Y-55.562
X195.58Y-58.102
X195.58Y-60.642
X195.58Y-63.182
X195.58Y-65.722
X195.58Y-68.263
X195.58Y-70.802
X203.2Y-46.87
X203.2Y-49.41
X203.2Y-53.023
X203.2Y-55.562
X203.2Y-58.102
X203.2Y-60.642
X203.2Y-63.182
X203.2Y-65.722
X203.2Y-68.263
X203.2Y-70.802
X207.645Y-51.752
X207.645Y-54.927
X207.645Y-58.102
X207.645Y-61.277
X207.645Y-64.453
X207.645Y-67.627
X207.645Y-70.802
X210.185Y-51.752
X210.185Y-54.927
X210.185Y-58.102
X210.185Y-61.277
X210.185Y-64.453
X210.185Y-67.627
X210.185Y-70.802
X213.995Y-55.562
X213.995Y-70.802
X216.535Y-55.562
X216.535Y-70.802
X219.075Y-55.562
X219.075Y-70.802
X221.615Y-55.562
X221.615Y-70.802
X224.155Y-55.562
X224.155Y-70.802
T4
X136.022Y-45.847
X138.562Y-45.847
X179.837Y-45.725
X182.377Y-45.725
T5
X130.523Y-65.35
X130.523Y-69.85
X137.023Y-65.35
X137.023Y-69.85
T6
X130.927Y-52.832
X130.927Y-57.912
X194.31Y-46.672
X199.39Y-46.672
M30
