%TF.GenerationSoftware,KiCad,Pcbnew,8.0.5-dirty*%
%TF.CreationDate,2024-09-28T11:23:51-03:00*%
%TF.ProjectId,control_remoto_bcd,636f6e74-726f-46c5-9f72-656d6f746f5f,rev?*%
%TF.SameCoordinates,Original*%
%TF.FileFunction,Copper,L2,Bot*%
%TF.FilePolarity,Positive*%
%FSLAX46Y46*%
G04 Gerber Fmt 4.6, Leading zero omitted, Abs format (unit mm)*
G04 Created by KiCad (PCBNEW 8.0.5-dirty) date 2024-09-28 11:23:51*
%MOMM*%
%LPD*%
G01*
G04 APERTURE LIST*
G04 Aperture macros list*
%AMRoundRect*
0 Rectangle with rounded corners*
0 $1 Rounding radius*
0 $2 $3 $4 $5 $6 $7 $8 $9 X,Y pos of 4 corners*
0 Add a 4 corners polygon primitive as box body*
4,1,4,$2,$3,$4,$5,$6,$7,$8,$9,$2,$3,0*
0 Add four circle primitives for the rounded corners*
1,1,$1+$1,$2,$3*
1,1,$1+$1,$4,$5*
1,1,$1+$1,$6,$7*
1,1,$1+$1,$8,$9*
0 Add four rect primitives between the rounded corners*
20,1,$1+$1,$2,$3,$4,$5,0*
20,1,$1+$1,$4,$5,$6,$7,0*
20,1,$1+$1,$6,$7,$8,$9,0*
20,1,$1+$1,$8,$9,$2,$3,0*%
G04 Aperture macros list end*
%TA.AperFunction,EtchedComponent*%
%ADD10C,0.000000*%
%TD*%
%TA.AperFunction,ComponentPad*%
%ADD11C,1.600000*%
%TD*%
%TA.AperFunction,ComponentPad*%
%ADD12O,1.600000X1.600000*%
%TD*%
%TA.AperFunction,ComponentPad*%
%ADD13R,2.400000X1.600000*%
%TD*%
%TA.AperFunction,ComponentPad*%
%ADD14O,2.400000X1.600000*%
%TD*%
%TA.AperFunction,ComponentPad*%
%ADD15C,2.000000*%
%TD*%
%TA.AperFunction,ComponentPad*%
%ADD16R,1.600000X1.600000*%
%TD*%
%TA.AperFunction,ComponentPad*%
%ADD17R,1.600000X2.400000*%
%TD*%
%TA.AperFunction,ComponentPad*%
%ADD18O,1.600000X2.400000*%
%TD*%
%TA.AperFunction,ComponentPad*%
%ADD19R,1.800000X1.800000*%
%TD*%
%TA.AperFunction,ComponentPad*%
%ADD20C,1.800000*%
%TD*%
%TA.AperFunction,ComponentPad*%
%ADD21R,3.000000X3.000000*%
%TD*%
%TA.AperFunction,ComponentPad*%
%ADD22C,3.000000*%
%TD*%
%TA.AperFunction,ComponentPad*%
%ADD23C,1.200000*%
%TD*%
%TA.AperFunction,ComponentPad*%
%ADD24R,1.500000X1.500000*%
%TD*%
%TA.AperFunction,ComponentPad*%
%ADD25C,1.500000*%
%TD*%
%TA.AperFunction,SMDPad,CuDef*%
%ADD26RoundRect,0.250000X-0.450000X0.350000X-0.450000X-0.350000X0.450000X-0.350000X0.450000X0.350000X0*%
%TD*%
%TA.AperFunction,SMDPad,CuDef*%
%ADD27RoundRect,0.250000X-0.350000X-0.450000X0.350000X-0.450000X0.350000X0.450000X-0.350000X0.450000X0*%
%TD*%
%TA.AperFunction,ViaPad*%
%ADD28C,1.500000*%
%TD*%
%TA.AperFunction,Conductor*%
%ADD29C,0.600000*%
%TD*%
G04 APERTURE END LIST*
D10*
%TA.AperFunction,EtchedComponent*%
%TO.C,kibuzzard-66F5A5AE*%
G36*
X213275528Y-46915321D02*
G01*
X213377305Y-46942785D01*
X213446772Y-46997712D01*
X213472620Y-47091412D01*
X213395076Y-47238423D01*
X213194753Y-47282042D01*
X213068743Y-47280426D01*
X212962120Y-47272349D01*
X212962120Y-46923399D01*
X213055819Y-46912090D01*
X213155981Y-46907244D01*
X213275528Y-46915321D01*
G37*
%TD.AperFunction*%
%TA.AperFunction,EtchedComponent*%
G36*
X218215754Y-45891089D02*
G01*
X218280375Y-45899166D01*
X218280375Y-46500136D01*
X218193137Y-46500136D01*
X218017855Y-46480346D01*
X217899115Y-46420976D01*
X217808646Y-46196420D01*
X217832879Y-46059102D01*
X217905577Y-45963787D01*
X218017855Y-45908052D01*
X218160827Y-45889473D01*
X218215754Y-45891089D01*
G37*
%TD.AperFunction*%
%TA.AperFunction,EtchedComponent*%
G36*
X216561877Y-46385838D02*
G01*
X216660019Y-46479134D01*
X216719389Y-46623318D01*
X216739179Y-46807082D01*
X216721005Y-46991250D01*
X216666481Y-47136646D01*
X216571570Y-47231153D01*
X216432233Y-47262656D01*
X216296126Y-47231153D01*
X216197984Y-47136646D01*
X216138614Y-46991250D01*
X216118824Y-46807082D01*
X216136998Y-46623318D01*
X216191522Y-46479134D01*
X216286433Y-46385838D01*
X216425771Y-46354740D01*
X216561877Y-46385838D01*
G37*
%TD.AperFunction*%
%TA.AperFunction,EtchedComponent*%
G36*
X223516347Y-48384896D02*
G01*
X222527009Y-48384896D01*
X221853880Y-48384896D01*
X220597015Y-48384896D01*
X219217370Y-48384896D01*
X217272297Y-48384896D01*
X216425771Y-48384896D01*
X214920116Y-48384896D01*
X213223832Y-48384896D01*
X211656788Y-48384896D01*
X210962120Y-48384896D01*
X210288991Y-48384896D01*
X209917424Y-47146339D01*
X210962120Y-47146339D01*
X210997661Y-47324045D01*
X211115593Y-47469441D01*
X211330456Y-47566372D01*
X211478275Y-47593027D01*
X211656788Y-47601913D01*
X211839341Y-47590604D01*
X211992814Y-47556679D01*
X212215754Y-47475903D01*
X212154365Y-47143108D01*
X211913654Y-47227115D01*
X211653557Y-47265887D01*
X211430617Y-47244885D01*
X211353073Y-47159263D01*
X211377305Y-47088181D01*
X211445157Y-47038100D01*
X211545318Y-46997712D01*
X211663250Y-46958940D01*
X211840956Y-46899166D01*
X212005738Y-46813544D01*
X212128517Y-46682688D01*
X212142308Y-46626145D01*
X212580859Y-46626145D01*
X212580859Y-47530830D01*
X212839341Y-47576065D01*
X213021086Y-47595451D01*
X213223832Y-47601913D01*
X213487160Y-47576065D01*
X213689099Y-47490443D01*
X213818339Y-47335354D01*
X213863574Y-47101105D01*
X213811877Y-46878165D01*
X213672943Y-46732769D01*
X213472620Y-46653609D01*
X213236756Y-46629376D01*
X213090553Y-46635838D01*
X212962120Y-46655225D01*
X212962120Y-46606759D01*
X213033202Y-46417745D01*
X213130132Y-46360798D01*
X213278759Y-46341816D01*
X213496853Y-46357971D01*
X213666481Y-46396743D01*
X213721409Y-46076872D01*
X213591053Y-46047793D01*
X214328840Y-46047793D01*
X214328840Y-47466210D01*
X214340149Y-47635435D01*
X214374074Y-47774772D01*
X214498468Y-47975095D01*
X214685868Y-48083334D01*
X214920116Y-48115645D01*
X215069551Y-48105952D01*
X215207677Y-48076872D01*
X215337725Y-48032446D01*
X215462927Y-47976711D01*
X215340149Y-47640685D01*
X215144672Y-47726307D01*
X214936271Y-47766695D01*
X214781183Y-47706921D01*
X214726255Y-47485596D01*
X214726255Y-46803851D01*
X215711716Y-46803851D01*
X215724640Y-46976307D01*
X215763412Y-47131800D01*
X215825609Y-47268714D01*
X215908808Y-47385435D01*
X216011796Y-47479942D01*
X216133363Y-47550216D01*
X216271893Y-47593835D01*
X216425771Y-47608375D01*
X216579648Y-47593835D01*
X216666868Y-47566372D01*
X217272297Y-47566372D01*
X217689099Y-47566372D01*
X217769470Y-47376145D01*
X217861958Y-47193189D01*
X217964139Y-47012656D01*
X218073590Y-46829700D01*
X218280375Y-46829700D01*
X218280375Y-47566372D01*
X218677790Y-47566372D01*
X218677790Y-47236808D01*
X220597015Y-47236808D01*
X220597015Y-47566372D01*
X221853880Y-47566372D01*
X221853880Y-45566372D01*
X221453234Y-45566372D01*
X221453234Y-47236808D01*
X220597015Y-47236808D01*
X218677790Y-47236808D01*
X218677790Y-46933092D01*
X219217370Y-46933092D01*
X220102669Y-46933092D01*
X220102669Y-46542139D01*
X219217370Y-46542139D01*
X219217370Y-46933092D01*
X218677790Y-46933092D01*
X218677790Y-45595451D01*
X218550165Y-45571218D01*
X218409616Y-45555063D01*
X218273913Y-45546985D01*
X218160827Y-45543754D01*
X217997661Y-45553447D01*
X217850649Y-45582527D01*
X217721409Y-45631800D01*
X217611554Y-45702074D01*
X217458081Y-45907244D01*
X217418097Y-46042543D01*
X217404769Y-46199651D01*
X217422540Y-46366048D01*
X217475851Y-46516291D01*
X217570359Y-46641493D01*
X217711716Y-46732769D01*
X217595399Y-46918553D01*
X217475851Y-47131800D01*
X217364381Y-47354740D01*
X217272297Y-47566372D01*
X216666868Y-47566372D01*
X216718178Y-47550216D01*
X216840149Y-47479942D01*
X216944349Y-47385435D01*
X217028759Y-47268714D01*
X217091360Y-47131800D01*
X217130132Y-46976307D01*
X217143057Y-46803851D01*
X217129729Y-46633819D01*
X217089745Y-46479134D01*
X217025932Y-46342624D01*
X216941118Y-46227115D01*
X216836514Y-46134223D01*
X216713331Y-46065564D01*
X216575205Y-46023157D01*
X216425771Y-46009021D01*
X216274317Y-46023157D01*
X216136595Y-46065564D01*
X216014624Y-46134223D01*
X215910423Y-46227115D01*
X215826013Y-46342624D01*
X215763412Y-46479134D01*
X215724640Y-46633819D01*
X215711716Y-46803851D01*
X214726255Y-46803851D01*
X214726255Y-46377357D01*
X215340149Y-46377357D01*
X215340149Y-46047793D01*
X214629325Y-46047793D01*
X214328840Y-46047793D01*
X213591053Y-46047793D01*
X213511393Y-46030023D01*
X213373267Y-46014271D01*
X213230294Y-46009021D01*
X213058646Y-46019926D01*
X212918501Y-46052640D01*
X212719793Y-46175418D01*
X212613170Y-46369279D01*
X212580859Y-46626145D01*
X212142308Y-46626145D01*
X212176982Y-46483981D01*
X212139826Y-46301428D01*
X212023509Y-46149570D01*
X211821570Y-46046178D01*
X211686675Y-46018310D01*
X211527548Y-46009021D01*
X211384171Y-46014675D01*
X211251296Y-46031638D01*
X211029971Y-46096258D01*
X211091360Y-46432284D01*
X211262604Y-46378973D01*
X211524317Y-46341816D01*
X211729486Y-46378973D01*
X211782798Y-46458132D01*
X211758565Y-46521137D01*
X211693945Y-46571218D01*
X211600246Y-46614837D01*
X211485544Y-46655225D01*
X211304607Y-46719845D01*
X211134979Y-46808698D01*
X211010585Y-46944401D01*
X210962120Y-47146339D01*
X209917424Y-47146339D01*
X209457004Y-45611606D01*
X214377305Y-45611606D01*
X214451619Y-45795774D01*
X214629325Y-45863625D01*
X214805415Y-45795774D01*
X214878113Y-45611606D01*
X214805415Y-45424207D01*
X214629325Y-45356355D01*
X214451619Y-45424207D01*
X214377305Y-45611606D01*
X209457004Y-45611606D01*
X209299653Y-45087104D01*
X210288991Y-45087104D01*
X210962120Y-45087104D01*
X221853880Y-45087104D01*
X222527009Y-45087104D01*
X223516347Y-48384896D01*
G37*
%TD.AperFunction*%
%TD*%
D11*
%TO.P,R9,1*%
%TO.N,Net-(U6-Qc)*%
X207645000Y-64452500D03*
D12*
%TO.P,R9,2*%
%TO.N,Net-(U7-C)*%
X210185000Y-64452500D03*
%TD*%
D11*
%TO.P,R13,1*%
%TO.N,Net-(U7-D)*%
X210185000Y-67627500D03*
D12*
%TO.P,R13,2*%
%TO.N,Net-(U6-Qd)*%
X207645000Y-67627500D03*
%TD*%
D11*
%TO.P,R11,1*%
%TO.N,Net-(U7-G)*%
X210185000Y-54927500D03*
D12*
%TO.P,R11,2*%
%TO.N,Net-(U6-Qg)*%
X207645000Y-54927500D03*
%TD*%
D11*
%TO.P,R2,1*%
%TO.N,+5V*%
X140325000Y-58928000D03*
D12*
%TO.P,R2,2*%
%TO.N,Net-(U2-DIS)*%
X142865000Y-58928000D03*
%TD*%
D11*
%TO.P,R14,1*%
%TO.N,Net-(U6-Qf)*%
X207645000Y-51752500D03*
D12*
%TO.P,R14,2*%
%TO.N,Net-(U7-F)*%
X210185000Y-51752500D03*
%TD*%
D13*
%TO.P,U6,1,DB*%
%TO.N,Net-(U4-D9)*%
X195580000Y-53022500D03*
D14*
%TO.P,U6,2,DC*%
%TO.N,Net-(U4-D10)*%
X195580000Y-55562500D03*
%TO.P,U6,3,~{LT}*%
%TO.N,+5VD*%
X195580000Y-58102500D03*
%TO.P,U6,4,~{BI}*%
X195580000Y-60642500D03*
%TO.P,U6,5,~{EL}*%
%TO.N,GND1*%
X195580000Y-63182500D03*
%TO.P,U6,6,DD*%
%TO.N,Net-(U4-D11)*%
X195580000Y-65722500D03*
%TO.P,U6,7,DA*%
%TO.N,Net-(U4-D8)*%
X195580000Y-68262500D03*
%TO.P,U6,8,Vss*%
%TO.N,GND1*%
X195580000Y-70802500D03*
%TO.P,U6,9,Qe*%
%TO.N,Net-(U6-Qe)*%
X203200000Y-70802500D03*
%TO.P,U6,10,Qd*%
%TO.N,Net-(U6-Qd)*%
X203200000Y-68262500D03*
%TO.P,U6,11,Qc*%
%TO.N,Net-(U6-Qc)*%
X203200000Y-65722500D03*
%TO.P,U6,12,Qb*%
%TO.N,Net-(U6-Qb)*%
X203200000Y-63182500D03*
%TO.P,U6,13,Qa*%
%TO.N,Net-(U6-Qa)*%
X203200000Y-60642500D03*
%TO.P,U6,14,Qg*%
%TO.N,Net-(U6-Qg)*%
X203200000Y-58102500D03*
%TO.P,U6,15,Qf*%
%TO.N,Net-(U6-Qf)*%
X203200000Y-55562500D03*
%TO.P,U6,16,Vdd*%
%TO.N,+5VD*%
X203200000Y-53022500D03*
%TD*%
D11*
%TO.P,R5,1*%
%TO.N,Net-(Q1-C)*%
X141126000Y-50038000D03*
D12*
%TO.P,R5,2*%
%TO.N,Net-(D2-K)*%
X138586000Y-50038000D03*
%TD*%
D11*
%TO.P,R7,1*%
%TO.N,Net-(Q2-C)*%
X186182000Y-46990000D03*
D12*
%TO.P,R7,2*%
%TO.N,+5VD*%
X188722000Y-46990000D03*
%TD*%
D15*
%TO.P,SW1,1,1*%
%TO.N,GND*%
X137023000Y-69850000D03*
X130523000Y-69850000D03*
%TO.P,SW1,2,2*%
%TO.N,Net-(U2-TR)*%
X137023000Y-65350000D03*
X130523000Y-65350000D03*
%TD*%
D16*
%TO.P,D1,1,K*%
%TO.N,+5V*%
X132647629Y-48259999D03*
D12*
%TO.P,D1,2,A*%
%TO.N,GND*%
X130107629Y-48259999D03*
%TD*%
D17*
%TO.P,U2,1,GND*%
%TO.N,GND*%
X140208000Y-69820000D03*
D18*
%TO.P,U2,2,TR*%
%TO.N,Net-(U2-TR)*%
X142748000Y-69820000D03*
%TO.P,U2,3,Q*%
%TO.N,Net-(U1A-CK)*%
X145288000Y-69820000D03*
%TO.P,U2,4,R*%
%TO.N,+5V*%
X147828000Y-69820000D03*
%TO.P,U2,5,CV*%
%TO.N,Net-(U2-CV)*%
X147828000Y-62200000D03*
%TO.P,U2,6,THR*%
%TO.N,Net-(U2-DIS)*%
X145288000Y-62200000D03*
%TO.P,U2,7,DIS*%
X142748000Y-62200000D03*
%TO.P,U2,8,VCC*%
%TO.N,+5V*%
X140208000Y-62200000D03*
%TD*%
D11*
%TO.P,C1,1*%
%TO.N,Net-(U2-CV)*%
X147691000Y-58928000D03*
%TO.P,C1,2*%
%TO.N,GND*%
X147691000Y-53928000D03*
%TD*%
%TO.P,R4,1*%
%TO.N,Net-(U3-DOUT)*%
X148590000Y-50067000D03*
D12*
%TO.P,R4,2*%
%TO.N,Net-(Q1-B)*%
X148590000Y-47527000D03*
%TD*%
D17*
%TO.P,U3,1,A0*%
%TO.N,unconnected-(U3-A0-Pad1)*%
X172011500Y-45783500D03*
D18*
%TO.P,U3,2,A1*%
%TO.N,unconnected-(U3-A1-Pad2)*%
X169471500Y-45783500D03*
%TO.P,U3,3,A2*%
%TO.N,unconnected-(U3-A2-Pad3)*%
X166931500Y-45783500D03*
%TO.P,U3,4,A3*%
%TO.N,unconnected-(U3-A3-Pad4)*%
X164391500Y-45783500D03*
%TO.P,U3,5,A4*%
%TO.N,unconnected-(U3-A4-Pad5)*%
X161851500Y-45783500D03*
%TO.P,U3,6,A5*%
%TO.N,unconnected-(U3-A5-Pad6)*%
X159311500Y-45783500D03*
%TO.P,U3,7,A6*%
%TO.N,unconnected-(U3-A6-Pad7)*%
X156771500Y-45783500D03*
%TO.P,U3,8,A7*%
%TO.N,unconnected-(U3-A7-Pad8)*%
X154231500Y-45783500D03*
%TO.P,U3,9,VSS*%
%TO.N,GND*%
X151691500Y-45783500D03*
%TO.P,U3,10,AD8*%
%TO.N,Net-(U1A-Q1)*%
X151691500Y-53403500D03*
%TO.P,U3,11,AD9*%
%TO.N,Net-(U1A-Q2)*%
X154231500Y-53403500D03*
%TO.P,U3,12,AD10*%
%TO.N,Net-(U1A-Q3)*%
X156771500Y-53403500D03*
%TO.P,U3,13,AD11*%
%TO.N,Net-(U1A-Q4)*%
X159311500Y-53403500D03*
%TO.P,U3,14,~{TE}*%
%TO.N,GND*%
X161851500Y-53403500D03*
%TO.P,U3,15,OSC2*%
%TO.N,Net-(U3-OSC2)*%
X164391500Y-53403500D03*
%TO.P,U3,16,OSC1*%
%TO.N,Net-(U3-OSC1)*%
X166931500Y-53403500D03*
%TO.P,U3,17,DOUT*%
%TO.N,Net-(U3-DOUT)*%
X169471500Y-53403500D03*
%TO.P,U3,18,VDD*%
%TO.N,+5V*%
X172011500Y-53403500D03*
%TD*%
D19*
%TO.P,D2,1,K*%
%TO.N,Net-(D2-K)*%
X138562000Y-45847000D03*
D20*
%TO.P,D2,2,A*%
%TO.N,+5V*%
X136022000Y-45847000D03*
%TD*%
D16*
%TO.P,U7,1,E*%
%TO.N,Net-(U7-E)*%
X213995000Y-70802500D03*
D11*
%TO.P,U7,2,D*%
%TO.N,Net-(U7-D)*%
X216535000Y-70802500D03*
%TO.P,U7,3,CC*%
%TO.N,GND1*%
X219075000Y-70802500D03*
%TO.P,U7,4,C*%
%TO.N,Net-(U7-C)*%
X221615000Y-70802500D03*
%TO.P,U7,5,DP*%
%TO.N,unconnected-(U7-DP-Pad5)*%
X224155000Y-70802500D03*
%TO.P,U7,6,B*%
%TO.N,Net-(U7-B)*%
X224155000Y-55562500D03*
%TO.P,U7,7,A*%
%TO.N,Net-(U7-A)*%
X221615000Y-55562500D03*
%TO.P,U7,8,CC*%
%TO.N,GND1*%
X219075000Y-55562500D03*
%TO.P,U7,9,F*%
%TO.N,Net-(U7-F)*%
X216535000Y-55562500D03*
%TO.P,U7,10,G*%
%TO.N,Net-(U7-G)*%
X213995000Y-55562500D03*
%TD*%
D19*
%TO.P,Q2,1,C*%
%TO.N,Net-(Q2-C)*%
X182377000Y-45725000D03*
D20*
%TO.P,Q2,2,E*%
%TO.N,GND1*%
X179837000Y-45725000D03*
%TD*%
D13*
%TO.P,U4,1,A0*%
%TO.N,unconnected-(U4-A0-Pad1)*%
X180975000Y-50482500D03*
D14*
%TO.P,U4,2,A1*%
%TO.N,unconnected-(U4-A1-Pad2)*%
X180975000Y-53022500D03*
%TO.P,U4,3,A2*%
%TO.N,unconnected-(U4-A2-Pad3)*%
X180975000Y-55562500D03*
%TO.P,U4,4,A3*%
%TO.N,unconnected-(U4-A3-Pad4)*%
X180975000Y-58102500D03*
%TO.P,U4,5,A4*%
%TO.N,unconnected-(U4-A4-Pad5)*%
X180975000Y-60642500D03*
%TO.P,U4,6,A5*%
%TO.N,unconnected-(U4-A5-Pad6)*%
X180975000Y-63182500D03*
%TO.P,U4,7,A6*%
%TO.N,unconnected-(U4-A6-Pad7)*%
X180975000Y-65722500D03*
%TO.P,U4,8,A7*%
%TO.N,unconnected-(U4-A7-Pad8)*%
X180975000Y-68262500D03*
%TO.P,U4,9,VSS*%
%TO.N,GND1*%
X180975000Y-70802500D03*
%TO.P,U4,10,D8*%
%TO.N,Net-(U4-D8)*%
X188595000Y-70802500D03*
%TO.P,U4,11,D9*%
%TO.N,Net-(U4-D9)*%
X188595000Y-68262500D03*
%TO.P,U4,12,D10*%
%TO.N,Net-(U4-D10)*%
X188595000Y-65722500D03*
%TO.P,U4,13,D11*%
%TO.N,Net-(U4-D11)*%
X188595000Y-63182500D03*
%TO.P,U4,14,DIN*%
%TO.N,Net-(Q2-C)*%
X188595000Y-60642500D03*
%TO.P,U4,15,OSC2*%
%TO.N,Net-(U4-OSC2)*%
X188595000Y-58102500D03*
%TO.P,U4,16,OSC1*%
%TO.N,Net-(U4-OSC1)*%
X188595000Y-55562500D03*
%TO.P,U4,17,VT*%
%TO.N,unconnected-(U4-VT-Pad17)*%
X188595000Y-53022500D03*
%TO.P,U4,18,VDD*%
%TO.N,+5VD*%
X188595000Y-50482500D03*
%TD*%
D17*
%TO.P,U1,1,CK*%
%TO.N,Net-(U1A-CK)*%
X169418000Y-62220000D03*
D18*
%TO.P,U1,2,Enable*%
%TO.N,+5V*%
X166878000Y-62220000D03*
%TO.P,U1,3,Q1*%
%TO.N,Net-(U1A-Q1)*%
X164338000Y-62220000D03*
%TO.P,U1,4,Q2*%
%TO.N,Net-(U1A-Q2)*%
X161798000Y-62220000D03*
%TO.P,U1,5,Q3*%
%TO.N,Net-(U1A-Q3)*%
X159258000Y-62220000D03*
%TO.P,U1,6,Q4*%
%TO.N,Net-(U1A-Q4)*%
X156718000Y-62220000D03*
%TO.P,U1,7,Reset*%
%TO.N,GND*%
X154178000Y-62220000D03*
%TO.P,U1,8,VSS*%
X151638000Y-62220000D03*
%TO.P,U1,9,CK*%
%TO.N,unconnected-(U1B-CK-Pad9)*%
X151638000Y-69840000D03*
%TO.P,U1,10,Enable*%
%TO.N,unconnected-(U1B-Enable-Pad10)*%
X154178000Y-69840000D03*
%TO.P,U1,11,Q1*%
%TO.N,unconnected-(U1B-Q1-Pad11)*%
X156718000Y-69840000D03*
%TO.P,U1,12,Q2*%
%TO.N,unconnected-(U1B-Q2-Pad12)*%
X159258000Y-69840000D03*
%TO.P,U1,13,Q3*%
%TO.N,unconnected-(U1B-Q3-Pad13)*%
X161798000Y-69840000D03*
%TO.P,U1,14,Q4*%
%TO.N,unconnected-(U1B-Q4-Pad14)*%
X164338000Y-69840000D03*
%TO.P,U1,15,Reset*%
%TO.N,unconnected-(U1B-Reset-Pad15)*%
X166878000Y-69840000D03*
%TO.P,U1,16,VDD*%
%TO.N,+5V*%
X169418000Y-69840000D03*
%TD*%
D21*
%TO.P,J1,1,Pin_1*%
%TO.N,GND*%
X130927000Y-52832000D03*
D22*
%TO.P,J1,2,Pin_2*%
%TO.N,+5V*%
X130927000Y-57912000D03*
%TD*%
D23*
%TO.P,C2,1*%
%TO.N,Net-(U2-DIS)*%
X142865000Y-54356000D03*
%TO.P,C2,2*%
%TO.N,GND*%
X140865000Y-54356000D03*
%TD*%
D16*
%TO.P,D3,1,K*%
%TO.N,+5VD*%
X203200000Y-49410330D03*
D12*
%TO.P,D3,2,A*%
%TO.N,GND1*%
X203200000Y-46870330D03*
%TD*%
D11*
%TO.P,R1,1*%
%TO.N,+5V*%
X136388000Y-62230000D03*
D12*
%TO.P,R1,2*%
%TO.N,Net-(U2-TR)*%
X133848000Y-62230000D03*
%TD*%
D24*
%TO.P,Q1,1,C*%
%TO.N,Net-(Q1-C)*%
X145230000Y-50038000D03*
D25*
%TO.P,Q1,2,B*%
%TO.N,Net-(Q1-B)*%
X145230000Y-47498000D03*
%TO.P,Q1,3,E*%
%TO.N,GND*%
X145230000Y-44958000D03*
%TD*%
D11*
%TO.P,R8,1*%
%TO.N,Net-(U6-Qa)*%
X207645000Y-58102500D03*
D12*
%TO.P,R8,2*%
%TO.N,Net-(U7-A)*%
X210185000Y-58102500D03*
%TD*%
D11*
%TO.P,R10,1*%
%TO.N,Net-(U6-Qe)*%
X207645000Y-70802500D03*
D12*
%TO.P,R10,2*%
%TO.N,Net-(U7-E)*%
X210185000Y-70802500D03*
%TD*%
D11*
%TO.P,R12,1*%
%TO.N,Net-(U7-B)*%
X210185000Y-61277500D03*
D12*
%TO.P,R12,2*%
%TO.N,Net-(U6-Qb)*%
X207645000Y-61277500D03*
%TD*%
D21*
%TO.P,J2,1,Pin_1*%
%TO.N,+5VD*%
X199390000Y-46672500D03*
D22*
%TO.P,J2,2,Pin_2*%
%TO.N,GND1*%
X194310000Y-46672500D03*
%TD*%
D26*
%TO.P,R6,1*%
%TO.N,Net-(U4-OSC1)*%
X185928000Y-55896000D03*
%TO.P,R6,2*%
%TO.N,Net-(U4-OSC2)*%
X185928000Y-57896000D03*
%TD*%
D27*
%TO.P,R3,1*%
%TO.N,Net-(U3-OSC2)*%
X164518500Y-50609500D03*
%TO.P,R3,2*%
%TO.N,Net-(U3-OSC1)*%
X166518500Y-50609500D03*
%TD*%
D28*
%TO.N,+5V*%
X171059000Y-55372000D03*
X166868989Y-59817989D03*
X136261000Y-51054000D03*
X136261000Y-59436000D03*
%TO.N,Net-(U4-D10)*%
X192938400Y-66649600D03*
X192901771Y-55604393D03*
%TO.N,Net-(U4-D9)*%
X191135000Y-68262500D03*
X191135000Y-53084266D03*
%TO.N,Net-(U1A-Q4)*%
X156718000Y-56896000D03*
X161153000Y-56945610D03*
%TO.N,Net-(U1A-Q1)*%
X153533000Y-58395610D03*
X164201000Y-58420000D03*
%TO.N,Net-(U1A-CK)*%
X145288000Y-67310000D03*
X171313000Y-67310000D03*
%TO.N,Net-(U1A-Q2)*%
X161798000Y-59845610D03*
X155057000Y-59944000D03*
%TD*%
D29*
%TO.N,GND*%
X161851500Y-54546500D02*
X162931000Y-55626000D01*
X161851500Y-53403500D02*
X161851500Y-54546500D01*
X140208000Y-69820000D02*
X137053000Y-69820000D01*
X137053000Y-69820000D02*
X137023000Y-69850000D01*
X154178000Y-62220000D02*
X151638000Y-62220000D01*
%TO.N,Net-(U2-CV)*%
X147691000Y-59182000D02*
X147828000Y-59319000D01*
X147828000Y-59319000D02*
X147828000Y-62200000D01*
%TO.N,Net-(U2-DIS)*%
X142748000Y-62200000D02*
X145288000Y-62200000D01*
X142865000Y-58928000D02*
X142865000Y-54356000D01*
X142865000Y-58928000D02*
X142865000Y-62083000D01*
X142865000Y-62083000D02*
X142748000Y-62200000D01*
%TO.N,+5V*%
X168743000Y-67280000D02*
X169418000Y-67955000D01*
X147828000Y-67915000D02*
X148463000Y-67280000D01*
X166868989Y-62210989D02*
X166868989Y-59817989D01*
X136261000Y-51054000D02*
X136261000Y-48768000D01*
X171059000Y-55372000D02*
X172011500Y-54419500D01*
X136388000Y-59563000D02*
X136388000Y-62230000D01*
X140325000Y-62083000D02*
X140208000Y-62200000D01*
X135880001Y-48259999D02*
X136261000Y-47879000D01*
X136261000Y-47879000D02*
X136261000Y-46086000D01*
X166878000Y-67270000D02*
X166878000Y-66040000D01*
X140208000Y-62875000D02*
X142738000Y-65405000D01*
X147828000Y-67915000D02*
X147828000Y-67280000D01*
X135636000Y-48259999D02*
X135752999Y-48259999D01*
X147828000Y-69820000D02*
X147828000Y-67915000D01*
X136261000Y-46086000D02*
X136022000Y-45847000D01*
X136261000Y-59436000D02*
X136388000Y-59563000D01*
X166878000Y-66040000D02*
X166878000Y-66635000D01*
X140208000Y-62200000D02*
X140208000Y-62875000D01*
X136261000Y-48768000D02*
X136261000Y-47879000D01*
X166233000Y-67280000D02*
X167503000Y-67280000D01*
X147788000Y-67280000D02*
X147828000Y-67280000D01*
X136261000Y-59436000D02*
X134737000Y-57912000D01*
X166878000Y-66040000D02*
X166878000Y-66655000D01*
X148463000Y-67280000D02*
X166233000Y-67280000D01*
X136388000Y-62230000D02*
X140178000Y-62230000D01*
X166868000Y-67280000D02*
X166878000Y-67270000D01*
X140178000Y-62230000D02*
X140208000Y-62200000D01*
X166878000Y-66655000D02*
X167503000Y-67280000D01*
X166878000Y-62220000D02*
X166868989Y-62210989D01*
X166878000Y-66635000D02*
X166233000Y-67280000D01*
X135752999Y-48259999D02*
X136261000Y-48768000D01*
X135636000Y-48259999D02*
X135880001Y-48259999D01*
X166878000Y-66040000D02*
X166878000Y-62220000D01*
X148463000Y-67280000D02*
X147828000Y-67280000D01*
X134737000Y-57912000D02*
X130927000Y-57912000D01*
X169418000Y-67955000D02*
X169418000Y-69840000D01*
X140325000Y-58928000D02*
X140325000Y-62083000D01*
X132647629Y-48259999D02*
X135636000Y-48259999D01*
X142738000Y-65405000D02*
X145913000Y-65405000D01*
X167503000Y-67280000D02*
X168743000Y-67280000D01*
X145913000Y-65405000D02*
X147788000Y-67280000D01*
X172011500Y-54419500D02*
X172011500Y-53403500D01*
%TO.N,Net-(D2-K)*%
X138562000Y-45847000D02*
X138562000Y-45857000D01*
X138586000Y-45871000D02*
X138562000Y-45847000D01*
X138586000Y-50038000D02*
X138586000Y-45871000D01*
%TO.N,+5VD*%
X198755000Y-50482500D02*
X199390000Y-49847500D01*
X195580000Y-58102500D02*
X198755000Y-58102500D01*
X203200000Y-49410330D02*
X203200000Y-53022500D01*
X199390000Y-54292500D02*
X199390000Y-53022500D01*
X199390000Y-53022500D02*
X199390000Y-51752500D01*
X199390000Y-49847500D02*
X199390000Y-52387500D01*
X188722000Y-47434500D02*
X188722000Y-50355500D01*
X188595000Y-50482500D02*
X198755000Y-50482500D01*
X199390000Y-51117500D02*
X199390000Y-51752500D01*
X198755000Y-50482500D02*
X199390000Y-51117500D01*
X200025000Y-53022500D02*
X199390000Y-53022500D01*
X195580000Y-60642500D02*
X195580000Y-58102500D01*
X200025000Y-53022500D02*
X199390000Y-53657500D01*
X198755000Y-58102500D02*
X199390000Y-57467500D01*
X199390000Y-57467500D02*
X199390000Y-54292500D01*
X199390000Y-52387500D02*
X200025000Y-53022500D01*
X199390000Y-53657500D02*
X199390000Y-54292500D01*
X199390000Y-46672500D02*
X199390000Y-49847500D01*
X188722000Y-50355500D02*
X188595000Y-50482500D01*
X188595000Y-47307500D02*
X188722000Y-47434500D01*
X203200000Y-53022500D02*
X200025000Y-53022500D01*
X199390000Y-51752500D02*
X199390000Y-52387500D01*
%TO.N,Net-(Q1-C)*%
X145230000Y-50038000D02*
X141126000Y-50038000D01*
%TO.N,Net-(Q1-B)*%
X148590000Y-47527000D02*
X145259000Y-47527000D01*
X145259000Y-47527000D02*
X145230000Y-47498000D01*
%TO.N,Net-(Q2-C)*%
X183896000Y-47752000D02*
X183896000Y-47508000D01*
X183515000Y-46863000D02*
X183896000Y-47244000D01*
X183896000Y-47508000D02*
X184404000Y-47000000D01*
X183515000Y-46863000D02*
X183652000Y-47000000D01*
X182377000Y-45725000D02*
X183515000Y-46863000D01*
X183896000Y-47752000D02*
X183896000Y-59118500D01*
X183652000Y-47000000D02*
X184404000Y-47000000D01*
X183896000Y-47244000D02*
X183896000Y-47752000D01*
X184404000Y-47000000D02*
X186172000Y-47000000D01*
X185420000Y-60642500D02*
X188595000Y-60642500D01*
X183896000Y-59118500D02*
X185420000Y-60642500D01*
X186172000Y-47000000D02*
X186182000Y-46990000D01*
%TO.N,Net-(U2-TR)*%
X133848000Y-63500000D02*
X135698000Y-65350000D01*
X133848000Y-62230000D02*
X133848000Y-63500000D01*
X140143000Y-65350000D02*
X142748000Y-67955000D01*
X142748000Y-67955000D02*
X142748000Y-69820000D01*
X137023000Y-65350000D02*
X140143000Y-65350000D01*
X135698000Y-65350000D02*
X137023000Y-65350000D01*
%TO.N,Net-(U3-OSC1)*%
X166518500Y-52990500D02*
X166931500Y-53403500D01*
X166518500Y-50609500D02*
X166518500Y-52990500D01*
%TO.N,Net-(U3-OSC2)*%
X164518500Y-53276500D02*
X164391500Y-53403500D01*
X164518500Y-50609500D02*
X164518500Y-53276500D01*
%TO.N,Net-(U3-DOUT)*%
X169471500Y-50736500D02*
X169471500Y-53403500D01*
X148590000Y-50067000D02*
X160880000Y-50067000D01*
X162433000Y-48514000D02*
X167249000Y-48514000D01*
X160880000Y-50067000D02*
X162433000Y-48514000D01*
X167249000Y-48514000D02*
X169471500Y-50736500D01*
%TO.N,Net-(U4-OSC1)*%
X186261500Y-55562500D02*
X185928000Y-55896000D01*
X188595000Y-55562500D02*
X186261500Y-55562500D01*
%TO.N,Net-(U4-OSC2)*%
X186134500Y-58102500D02*
X188595000Y-58102500D01*
X185928000Y-57896000D02*
X186134500Y-58102500D01*
X188810000Y-58317500D02*
X188595000Y-58102500D01*
%TO.N,Net-(U7-A)*%
X210185000Y-58102500D02*
X219013750Y-58102500D01*
X219013750Y-58102500D02*
X221553750Y-55562500D01*
X221553750Y-55562500D02*
X221615000Y-55562500D01*
%TO.N,Net-(U6-Qa)*%
X205105000Y-60642500D02*
X207645000Y-58102500D01*
X203200000Y-60642500D02*
X205105000Y-60642500D01*
%TO.N,Net-(U7-C)*%
X210185000Y-64452500D02*
X219075000Y-64452500D01*
X221615000Y-66992500D02*
X221615000Y-70802500D01*
X219075000Y-64452500D02*
X221615000Y-66992500D01*
%TO.N,Net-(U6-Qc)*%
X206375000Y-65722500D02*
X207645000Y-64452500D01*
X203200000Y-65722500D02*
X206375000Y-65722500D01*
%TO.N,Net-(U7-E)*%
X210185000Y-70802500D02*
X213995000Y-70802500D01*
%TO.N,Net-(U6-Qe)*%
X203200000Y-70802500D02*
X207645000Y-70802500D01*
%TO.N,Net-(U6-Qg)*%
X204470000Y-58102500D02*
X207645000Y-54927500D01*
X203200000Y-58102500D02*
X204470000Y-58102500D01*
%TO.N,Net-(U7-G)*%
X210185000Y-54927500D02*
X210820000Y-55562500D01*
X210820000Y-55562500D02*
X213995000Y-55562500D01*
%TO.N,Net-(U6-Qb)*%
X203200000Y-63182500D02*
X205740000Y-63182500D01*
X205740000Y-63182500D02*
X207645000Y-61277500D01*
%TO.N,Net-(U7-B)*%
X210185000Y-61277500D02*
X219075000Y-61277500D01*
X219075000Y-61277500D02*
X224155000Y-56197500D01*
X224155000Y-56197500D02*
X224155000Y-55562500D01*
%TO.N,Net-(U7-D)*%
X215265000Y-67627500D02*
X216535000Y-68897500D01*
X210185000Y-67627500D02*
X215265000Y-67627500D01*
X216535000Y-68897500D02*
X216535000Y-70802500D01*
%TO.N,Net-(U6-Qd)*%
X203200000Y-68262500D02*
X207010000Y-68262500D01*
X207010000Y-68262500D02*
X207645000Y-67627500D01*
%TO.N,Net-(U6-Qf)*%
X203835000Y-55562500D02*
X207645000Y-51752500D01*
X203200000Y-55562500D02*
X203835000Y-55562500D01*
%TO.N,Net-(U7-F)*%
X210185000Y-51752500D02*
X214630000Y-51752500D01*
X216535000Y-53657500D02*
X216535000Y-55562500D01*
X214630000Y-51752500D02*
X216535000Y-53657500D01*
%TO.N,Net-(U4-D11)*%
X192405000Y-63182500D02*
X188595000Y-63182500D01*
X194945000Y-65722500D02*
X192405000Y-63182500D01*
%TO.N,Net-(U4-D10)*%
X192943664Y-55562500D02*
X192901771Y-55604393D01*
X192938400Y-66649600D02*
X191988855Y-65700055D01*
X191988855Y-65700055D02*
X188617445Y-65700055D01*
X188617445Y-65700055D02*
X188595000Y-65722500D01*
X195580000Y-55562500D02*
X192943664Y-55562500D01*
%TO.N,Net-(U4-D9)*%
X195518234Y-53084266D02*
X195580000Y-53022500D01*
X188595000Y-68262500D02*
X191135000Y-68262500D01*
X191135000Y-53084266D02*
X195518234Y-53084266D01*
%TO.N,Net-(U4-D8)*%
X192405000Y-70802500D02*
X188595000Y-70802500D01*
X194945000Y-68262500D02*
X192405000Y-70802500D01*
%TO.N,Net-(U1A-Q4)*%
X159311500Y-53403500D02*
X159311500Y-54546500D01*
X159311500Y-54546500D02*
X161153000Y-56388000D01*
X161153000Y-56388000D02*
X161153000Y-56945610D01*
X156718000Y-56896000D02*
X156718000Y-62220000D01*
%TO.N,Net-(U1A-Q1)*%
X164338000Y-58557000D02*
X164201000Y-58420000D01*
X153533000Y-56388000D02*
X151691500Y-54546500D01*
X164328000Y-62210000D02*
X164338000Y-62220000D01*
X164338000Y-62220000D02*
X164338000Y-58557000D01*
X151691500Y-54546500D02*
X151691500Y-53403500D01*
X153533000Y-58395610D02*
X153533000Y-56388000D01*
%TO.N,Net-(U1A-Q3)*%
X159258000Y-57033000D02*
X159258000Y-62220000D01*
X156771500Y-54546500D02*
X159258000Y-57033000D01*
X156771500Y-53403500D02*
X156771500Y-54546500D01*
X156771500Y-54215646D02*
X156771500Y-53403500D01*
%TO.N,Net-(U1A-CK)*%
X169418000Y-65415000D02*
X169418000Y-62220000D01*
X171313000Y-67310000D02*
X169418000Y-65415000D01*
X145288000Y-67310000D02*
X145288000Y-69820000D01*
%TO.N,Net-(U1A-Q2)*%
X155057000Y-55626000D02*
X154231500Y-54800500D01*
X161798000Y-59845610D02*
X161798000Y-62220000D01*
X154231500Y-54800500D02*
X154231500Y-53403500D01*
X155057000Y-59944000D02*
X155057000Y-55626000D01*
%TD*%
%TA.AperFunction,Conductor*%
%TO.N,GND*%
G36*
X175020343Y-41212207D02*
G01*
X175089584Y-41267426D01*
X175128011Y-41347218D01*
X175133000Y-41391500D01*
X175133000Y-42678757D01*
X175113293Y-42765100D01*
X175074715Y-42819470D01*
X175021502Y-42872683D01*
X175021501Y-42872683D01*
X174955608Y-42986814D01*
X174921500Y-43114108D01*
X174921500Y-73713936D01*
X174955608Y-73841230D01*
X175021500Y-73955358D01*
X175021501Y-73955359D01*
X175074714Y-74008572D01*
X175121833Y-74083560D01*
X175133000Y-74149286D01*
X175133000Y-74992500D01*
X175113293Y-75078843D01*
X175058074Y-75148084D01*
X174978282Y-75186511D01*
X174934000Y-75191500D01*
X127229500Y-75191500D01*
X127143157Y-75171793D01*
X127073916Y-75116574D01*
X127035489Y-75036782D01*
X127030500Y-74992500D01*
X127030500Y-69850000D01*
X129268225Y-69850000D01*
X129287289Y-70067895D01*
X129343894Y-70279151D01*
X129343895Y-70279153D01*
X129436332Y-70477387D01*
X129436333Y-70477388D01*
X129450753Y-70497981D01*
X129450754Y-70497982D01*
X129984269Y-69964466D01*
X130010482Y-70062292D01*
X130082890Y-70187708D01*
X130185292Y-70290110D01*
X130310708Y-70362518D01*
X130408533Y-70388730D01*
X129875016Y-70922245D01*
X129895610Y-70936665D01*
X129895618Y-70936669D01*
X130093846Y-71029104D01*
X130093848Y-71029105D01*
X130305104Y-71085710D01*
X130523000Y-71104774D01*
X130740895Y-71085710D01*
X130952150Y-71029105D01*
X131150383Y-70936669D01*
X131150388Y-70936666D01*
X131170982Y-70922245D01*
X130637467Y-70388730D01*
X130735292Y-70362518D01*
X130860708Y-70290110D01*
X130963110Y-70187708D01*
X131035518Y-70062292D01*
X131061730Y-69964466D01*
X131595245Y-70497981D01*
X131609666Y-70477388D01*
X131609669Y-70477383D01*
X131702105Y-70279150D01*
X131758710Y-70067895D01*
X131777774Y-69850000D01*
X135768225Y-69850000D01*
X135787289Y-70067895D01*
X135843894Y-70279151D01*
X135843895Y-70279153D01*
X135936332Y-70477387D01*
X135936333Y-70477388D01*
X135950753Y-70497981D01*
X135950754Y-70497982D01*
X136484269Y-69964466D01*
X136510482Y-70062292D01*
X136582890Y-70187708D01*
X136685292Y-70290110D01*
X136810708Y-70362518D01*
X136908533Y-70388730D01*
X136375016Y-70922245D01*
X136395610Y-70936665D01*
X136395618Y-70936669D01*
X136593846Y-71029104D01*
X136593848Y-71029105D01*
X136805104Y-71085710D01*
X137023000Y-71104774D01*
X137240895Y-71085710D01*
X137394235Y-71044623D01*
X139158000Y-71044623D01*
X139172505Y-71117545D01*
X139172505Y-71117546D01*
X139227759Y-71200239D01*
X139227760Y-71200240D01*
X139310453Y-71255494D01*
X139383377Y-71270000D01*
X139908000Y-71270000D01*
X139908000Y-70120000D01*
X139158000Y-70120000D01*
X139158000Y-71044623D01*
X137394235Y-71044623D01*
X137452150Y-71029105D01*
X137650383Y-70936669D01*
X137650388Y-70936666D01*
X137670981Y-70922245D01*
X137137467Y-70388730D01*
X137235292Y-70362518D01*
X137360708Y-70290110D01*
X137463110Y-70187708D01*
X137535518Y-70062292D01*
X137561730Y-69964466D01*
X138095245Y-70497981D01*
X138109666Y-70477388D01*
X138109669Y-70477383D01*
X138202105Y-70279150D01*
X138258710Y-70067895D01*
X138277774Y-69850000D01*
X138258710Y-69632104D01*
X138202104Y-69420845D01*
X138202104Y-69420844D01*
X138109668Y-69222615D01*
X138109666Y-69222610D01*
X138095247Y-69202017D01*
X138095244Y-69202017D01*
X137561730Y-69735532D01*
X137535518Y-69637708D01*
X137463110Y-69512292D01*
X137360708Y-69409890D01*
X137235292Y-69337482D01*
X137137467Y-69311269D01*
X137670982Y-68777754D01*
X137670981Y-68777753D01*
X137650388Y-68763333D01*
X137650387Y-68763332D01*
X137452153Y-68670895D01*
X137452151Y-68670894D01*
X137240895Y-68614289D01*
X137024726Y-68595376D01*
X139158000Y-68595376D01*
X139158000Y-69520000D01*
X139908000Y-69520000D01*
X139908000Y-68370000D01*
X139383377Y-68370000D01*
X139310454Y-68384505D01*
X139310453Y-68384505D01*
X139227760Y-68439759D01*
X139227759Y-68439760D01*
X139172505Y-68522453D01*
X139172505Y-68522454D01*
X139158000Y-68595376D01*
X137024726Y-68595376D01*
X137023000Y-68595225D01*
X136805104Y-68614289D01*
X136593845Y-68670895D01*
X136593844Y-68670895D01*
X136395614Y-68763331D01*
X136375017Y-68777753D01*
X136908533Y-69311269D01*
X136810708Y-69337482D01*
X136685292Y-69409890D01*
X136582890Y-69512292D01*
X136510482Y-69637708D01*
X136484269Y-69735532D01*
X135950753Y-69202017D01*
X135936331Y-69222614D01*
X135843895Y-69420844D01*
X135843895Y-69420845D01*
X135787289Y-69632104D01*
X135768225Y-69850000D01*
X131777774Y-69850000D01*
X131758710Y-69632104D01*
X131702104Y-69420845D01*
X131702104Y-69420844D01*
X131609668Y-69222615D01*
X131609666Y-69222610D01*
X131595247Y-69202017D01*
X131595244Y-69202017D01*
X131061730Y-69735532D01*
X131035518Y-69637708D01*
X130963110Y-69512292D01*
X130860708Y-69409890D01*
X130735292Y-69337482D01*
X130637467Y-69311269D01*
X131170982Y-68777754D01*
X131170981Y-68777753D01*
X131150388Y-68763333D01*
X131150387Y-68763332D01*
X130952153Y-68670895D01*
X130952151Y-68670894D01*
X130740895Y-68614289D01*
X130523000Y-68595225D01*
X130305104Y-68614289D01*
X130093845Y-68670895D01*
X130093844Y-68670895D01*
X129895614Y-68763331D01*
X129875017Y-68777753D01*
X130408533Y-69311269D01*
X130310708Y-69337482D01*
X130185292Y-69409890D01*
X130082890Y-69512292D01*
X130010482Y-69637708D01*
X129984269Y-69735533D01*
X129450753Y-69202017D01*
X129436331Y-69222614D01*
X129343895Y-69420844D01*
X129343895Y-69420845D01*
X129287289Y-69632104D01*
X129268225Y-69850000D01*
X127030500Y-69850000D01*
X127030500Y-65349995D01*
X129017357Y-65349995D01*
X129017357Y-65350004D01*
X129037890Y-65597813D01*
X129037891Y-65597820D01*
X129037892Y-65597821D01*
X129087617Y-65794181D01*
X129098938Y-65838883D01*
X129198824Y-66066603D01*
X129198829Y-66066611D01*
X129334831Y-66274779D01*
X129334833Y-66274782D01*
X129503249Y-66457732D01*
X129503256Y-66457738D01*
X129699490Y-66610473D01*
X129699493Y-66610475D01*
X129918185Y-66728826D01*
X129918188Y-66728827D01*
X129918190Y-66728828D01*
X130153386Y-66809571D01*
X130398665Y-66850500D01*
X130398668Y-66850500D01*
X130647332Y-66850500D01*
X130647335Y-66850500D01*
X130892614Y-66809571D01*
X131127810Y-66728828D01*
X131346509Y-66610474D01*
X131542744Y-66457738D01*
X131711164Y-66274785D01*
X131847173Y-66066607D01*
X131848039Y-66064634D01*
X131893427Y-65961158D01*
X131947063Y-65838881D01*
X132008108Y-65597821D01*
X132028643Y-65350000D01*
X132027496Y-65336158D01*
X132008109Y-65102186D01*
X132008108Y-65102183D01*
X132008108Y-65102179D01*
X131947063Y-64861119D01*
X131874461Y-64695603D01*
X131847175Y-64633396D01*
X131847170Y-64633388D01*
X131711168Y-64425220D01*
X131711166Y-64425217D01*
X131542750Y-64242267D01*
X131542743Y-64242261D01*
X131346509Y-64089526D01*
X131346506Y-64089524D01*
X131127814Y-63971173D01*
X131027038Y-63936577D01*
X130892614Y-63890429D01*
X130822534Y-63878735D01*
X130647340Y-63849500D01*
X130647335Y-63849500D01*
X130398665Y-63849500D01*
X130398659Y-63849500D01*
X130188425Y-63884582D01*
X130153386Y-63890429D01*
X130108880Y-63905708D01*
X129918185Y-63971173D01*
X129699493Y-64089524D01*
X129699490Y-64089526D01*
X129503256Y-64242261D01*
X129503249Y-64242267D01*
X129334833Y-64425217D01*
X129334831Y-64425220D01*
X129198829Y-64633388D01*
X129198824Y-64633396D01*
X129098938Y-64861116D01*
X129037890Y-65102186D01*
X129017357Y-65349995D01*
X127030500Y-65349995D01*
X127030500Y-57912000D01*
X128921390Y-57912000D01*
X128941803Y-58197427D01*
X129002631Y-58477048D01*
X129102633Y-58745161D01*
X129239771Y-58996311D01*
X129239774Y-58996315D01*
X129411261Y-59225395D01*
X129411265Y-59225399D01*
X129411268Y-59225403D01*
X129613596Y-59427731D01*
X129613599Y-59427733D01*
X129613605Y-59427739D01*
X129837072Y-59595024D01*
X129842688Y-59599228D01*
X129937293Y-59650886D01*
X130093839Y-59736367D01*
X130361954Y-59836369D01*
X130641572Y-59897196D01*
X130641571Y-59897196D01*
X130660622Y-59898558D01*
X130927000Y-59917610D01*
X131212428Y-59897196D01*
X131492046Y-59836369D01*
X131760161Y-59736367D01*
X132011315Y-59599226D01*
X132240395Y-59427739D01*
X132442739Y-59225395D01*
X132614226Y-58996315D01*
X132694484Y-58849335D01*
X132712615Y-58816130D01*
X132771291Y-58749793D01*
X132852939Y-58715484D01*
X132887273Y-58712500D01*
X134322994Y-58712500D01*
X134409337Y-58732207D01*
X134463708Y-58770786D01*
X134950017Y-59257095D01*
X134997136Y-59332083D01*
X135007546Y-59415145D01*
X135005723Y-59435991D01*
X135005723Y-59435997D01*
X135005723Y-59436000D01*
X135009810Y-59482712D01*
X135024792Y-59653972D01*
X135024793Y-59653979D01*
X135081424Y-59865328D01*
X135081427Y-59865335D01*
X135173897Y-60063638D01*
X135173899Y-60063642D01*
X135299400Y-60242875D01*
X135299401Y-60242876D01*
X135299402Y-60242877D01*
X135454123Y-60397598D01*
X135454127Y-60397601D01*
X135454132Y-60397605D01*
X135502640Y-60431570D01*
X135562065Y-60497237D01*
X135587113Y-60582184D01*
X135587500Y-60594582D01*
X135587500Y-61108885D01*
X135567793Y-61195228D01*
X135529215Y-61249599D01*
X135387949Y-61390865D01*
X135281011Y-61543590D01*
X135215344Y-61603015D01*
X135130397Y-61628063D01*
X135042994Y-61613772D01*
X134970447Y-61562975D01*
X134954989Y-61543590D01*
X134848049Y-61390863D01*
X134687141Y-61229955D01*
X134687139Y-61229953D01*
X134500734Y-61099432D01*
X134294496Y-61003261D01*
X134294497Y-61003261D01*
X134294490Y-61003258D01*
X134074704Y-60944367D01*
X134074692Y-60944365D01*
X133848000Y-60924532D01*
X133621307Y-60944365D01*
X133621295Y-60944367D01*
X133401509Y-61003258D01*
X133195266Y-61099432D01*
X133008858Y-61229955D01*
X132847955Y-61390858D01*
X132717432Y-61577266D01*
X132621258Y-61783509D01*
X132562367Y-62003295D01*
X132562365Y-62003307D01*
X132542532Y-62230000D01*
X132562365Y-62456692D01*
X132562367Y-62456704D01*
X132621258Y-62676490D01*
X132621261Y-62676496D01*
X132717432Y-62882734D01*
X132847953Y-63069139D01*
X132847955Y-63069141D01*
X132989214Y-63210400D01*
X133036333Y-63285388D01*
X133047500Y-63351114D01*
X133047500Y-63421158D01*
X133047500Y-63578842D01*
X133060841Y-63645909D01*
X133078262Y-63733493D01*
X133078264Y-63733500D01*
X133138603Y-63879174D01*
X133138607Y-63879181D01*
X133146123Y-63890429D01*
X133226211Y-64010289D01*
X135076211Y-65860289D01*
X135187711Y-65971789D01*
X135296435Y-66044436D01*
X135318818Y-66059392D01*
X135318825Y-66059396D01*
X135391662Y-66089565D01*
X135464503Y-66119737D01*
X135619158Y-66150500D01*
X135645943Y-66150500D01*
X135732286Y-66170207D01*
X135801527Y-66225426D01*
X135812538Y-66240655D01*
X135834832Y-66274779D01*
X135834836Y-66274785D01*
X136003249Y-66457732D01*
X136003256Y-66457738D01*
X136199490Y-66610473D01*
X136199493Y-66610475D01*
X136418185Y-66728826D01*
X136418188Y-66728827D01*
X136418190Y-66728828D01*
X136653386Y-66809571D01*
X136898665Y-66850500D01*
X136898668Y-66850500D01*
X137147332Y-66850500D01*
X137147335Y-66850500D01*
X137392614Y-66809571D01*
X137627810Y-66728828D01*
X137846509Y-66610474D01*
X138042744Y-66457738D01*
X138211164Y-66274785D01*
X138233460Y-66240657D01*
X138297183Y-66179153D01*
X138381281Y-66151388D01*
X138400057Y-66150500D01*
X139728994Y-66150500D01*
X139815337Y-66170207D01*
X139869708Y-66208786D01*
X141854154Y-68193231D01*
X141901273Y-68268219D01*
X141911189Y-68356226D01*
X141881938Y-68439819D01*
X141854156Y-68474658D01*
X141756031Y-68572784D01*
X141635712Y-68738390D01*
X141635705Y-68738403D01*
X141634307Y-68741147D01*
X141633240Y-68742423D01*
X141631621Y-68745067D01*
X141631232Y-68744829D01*
X141577547Y-68809131D01*
X141496910Y-68845754D01*
X141408369Y-68843763D01*
X141329460Y-68803554D01*
X141275812Y-68733089D01*
X141258000Y-68650797D01*
X141258000Y-68595376D01*
X141243494Y-68522454D01*
X141243494Y-68522453D01*
X141188240Y-68439760D01*
X141188239Y-68439759D01*
X141105546Y-68384505D01*
X141032623Y-68370000D01*
X140508000Y-68370000D01*
X140508000Y-69554314D01*
X140453606Y-69499920D01*
X140362394Y-69447259D01*
X140260661Y-69420000D01*
X140155339Y-69420000D01*
X140053606Y-69447259D01*
X139962394Y-69499920D01*
X139887920Y-69574394D01*
X139835259Y-69665606D01*
X139808000Y-69767339D01*
X139808000Y-69872661D01*
X139835259Y-69974394D01*
X139887920Y-70065606D01*
X139962394Y-70140080D01*
X140053606Y-70192741D01*
X140155339Y-70220000D01*
X140260661Y-70220000D01*
X140362394Y-70192741D01*
X140453606Y-70140080D01*
X140508000Y-70085686D01*
X140508000Y-71270000D01*
X141032623Y-71270000D01*
X141105545Y-71255494D01*
X141105546Y-71255494D01*
X141188239Y-71200240D01*
X141188240Y-71200239D01*
X141243494Y-71117546D01*
X141243494Y-71117545D01*
X141258000Y-71044623D01*
X141258000Y-70989202D01*
X141277707Y-70902859D01*
X141332926Y-70833618D01*
X141412718Y-70795191D01*
X141501282Y-70795191D01*
X141581074Y-70833618D01*
X141631278Y-70895142D01*
X141631621Y-70894933D01*
X141633170Y-70897461D01*
X141634311Y-70898859D01*
X141635709Y-70901604D01*
X141635712Y-70901609D01*
X141699352Y-70989202D01*
X141756034Y-71067219D01*
X141900781Y-71211966D01*
X141960693Y-71255494D01*
X142066390Y-71332287D01*
X142066400Y-71332293D01*
X142248768Y-71425214D01*
X142248775Y-71425216D01*
X142248781Y-71425220D01*
X142443466Y-71488477D01*
X142645648Y-71520500D01*
X142645649Y-71520500D01*
X142850351Y-71520500D01*
X142850352Y-71520500D01*
X143052534Y-71488477D01*
X143247219Y-71425220D01*
X143247231Y-71425214D01*
X143429599Y-71332293D01*
X143429603Y-71332290D01*
X143429610Y-71332287D01*
X143595219Y-71211966D01*
X143739966Y-71067219D01*
X143857007Y-70906123D01*
X143923699Y-70847856D01*
X144009070Y-70824294D01*
X144096211Y-70840107D01*
X144167860Y-70892163D01*
X144178984Y-70906112D01*
X144296034Y-71067219D01*
X144440781Y-71211966D01*
X144500693Y-71255494D01*
X144606390Y-71332287D01*
X144606400Y-71332293D01*
X144788768Y-71425214D01*
X144788775Y-71425216D01*
X144788781Y-71425220D01*
X144983466Y-71488477D01*
X145185648Y-71520500D01*
X145185649Y-71520500D01*
X145390351Y-71520500D01*
X145390352Y-71520500D01*
X145592534Y-71488477D01*
X145787219Y-71425220D01*
X145787231Y-71425214D01*
X145969599Y-71332293D01*
X145969603Y-71332290D01*
X145969610Y-71332287D01*
X146135219Y-71211966D01*
X146279966Y-71067219D01*
X146397007Y-70906123D01*
X146463699Y-70847856D01*
X146549070Y-70824294D01*
X146636211Y-70840107D01*
X146707860Y-70892163D01*
X146718984Y-70906112D01*
X146836034Y-71067219D01*
X146980781Y-71211966D01*
X147040693Y-71255494D01*
X147146390Y-71332287D01*
X147146400Y-71332293D01*
X147328768Y-71425214D01*
X147328775Y-71425216D01*
X147328781Y-71425220D01*
X147523466Y-71488477D01*
X147725648Y-71520500D01*
X147725649Y-71520500D01*
X147930351Y-71520500D01*
X147930352Y-71520500D01*
X148132534Y-71488477D01*
X148327219Y-71425220D01*
X148327231Y-71425214D01*
X148509599Y-71332293D01*
X148509603Y-71332290D01*
X148509610Y-71332287D01*
X148675219Y-71211966D01*
X148819966Y-71067219D01*
X148940287Y-70901610D01*
X148945101Y-70892163D01*
X149033214Y-70719231D01*
X149033214Y-70719229D01*
X149033220Y-70719219D01*
X149096477Y-70524534D01*
X149128500Y-70322352D01*
X149128500Y-69317648D01*
X149096477Y-69115466D01*
X149033220Y-68920781D01*
X149033216Y-68920775D01*
X149033214Y-68920768D01*
X148940293Y-68738400D01*
X148940287Y-68738390D01*
X148834498Y-68592783D01*
X148819966Y-68572781D01*
X148701845Y-68454660D01*
X148654726Y-68379672D01*
X148644810Y-68291665D01*
X148674061Y-68208072D01*
X148701843Y-68173234D01*
X148736294Y-68138784D01*
X148811283Y-68091666D01*
X148877006Y-68080500D01*
X150684190Y-68080500D01*
X150770533Y-68100207D01*
X150839774Y-68155426D01*
X150878201Y-68235218D01*
X150878201Y-68323782D01*
X150839774Y-68403574D01*
X150801156Y-68440496D01*
X150790786Y-68448029D01*
X150790779Y-68448035D01*
X150646035Y-68592779D01*
X150646032Y-68592783D01*
X150525712Y-68758390D01*
X150525706Y-68758400D01*
X150432785Y-68940768D01*
X150432777Y-68940787D01*
X150369523Y-69135463D01*
X150369522Y-69135470D01*
X150337500Y-69337649D01*
X150337500Y-70342350D01*
X150369522Y-70544529D01*
X150369523Y-70544536D01*
X150432777Y-70739212D01*
X150432785Y-70739231D01*
X150525706Y-70921599D01*
X150525712Y-70921609D01*
X150525713Y-70921610D01*
X150646034Y-71087219D01*
X150790781Y-71231966D01*
X150823165Y-71255494D01*
X150956390Y-71352287D01*
X150956400Y-71352293D01*
X151138768Y-71445214D01*
X151138775Y-71445216D01*
X151138781Y-71445220D01*
X151333466Y-71508477D01*
X151535648Y-71540500D01*
X151535649Y-71540500D01*
X151740351Y-71540500D01*
X151740352Y-71540500D01*
X151942534Y-71508477D01*
X152137219Y-71445220D01*
X152137231Y-71445214D01*
X152319599Y-71352293D01*
X152319603Y-71352290D01*
X152319610Y-71352287D01*
X152485219Y-71231966D01*
X152629966Y-71087219D01*
X152747007Y-70926123D01*
X152813699Y-70867856D01*
X152899070Y-70844294D01*
X152986211Y-70860107D01*
X153057860Y-70912163D01*
X153068984Y-70926112D01*
X153186034Y-71087219D01*
X153330781Y-71231966D01*
X153363165Y-71255494D01*
X153496390Y-71352287D01*
X153496400Y-71352293D01*
X153678768Y-71445214D01*
X153678775Y-71445216D01*
X153678781Y-71445220D01*
X153873466Y-71508477D01*
X154075648Y-71540500D01*
X154075649Y-71540500D01*
X154280351Y-71540500D01*
X154280352Y-71540500D01*
X154482534Y-71508477D01*
X154677219Y-71445220D01*
X154677231Y-71445214D01*
X154859599Y-71352293D01*
X154859603Y-71352290D01*
X154859610Y-71352287D01*
X155025219Y-71231966D01*
X155169966Y-71087219D01*
X155287007Y-70926123D01*
X155353699Y-70867856D01*
X155439070Y-70844294D01*
X155526211Y-70860107D01*
X155597860Y-70912163D01*
X155608984Y-70926112D01*
X155726034Y-71087219D01*
X155870781Y-71231966D01*
X155903165Y-71255494D01*
X156036390Y-71352287D01*
X156036400Y-71352293D01*
X156218768Y-71445214D01*
X156218775Y-71445216D01*
X156218781Y-71445220D01*
X156413466Y-71508477D01*
X156615648Y-71540500D01*
X156615649Y-71540500D01*
X156820351Y-71540500D01*
X156820352Y-71540500D01*
X157022534Y-71508477D01*
X157217219Y-71445220D01*
X157217231Y-71445214D01*
X157399599Y-71352293D01*
X157399603Y-71352290D01*
X157399610Y-71352287D01*
X157565219Y-71231966D01*
X157709966Y-71087219D01*
X157827007Y-70926123D01*
X157893699Y-70867856D01*
X157979070Y-70844294D01*
X158066211Y-70860107D01*
X158137860Y-70912163D01*
X158148984Y-70926112D01*
X158266034Y-71087219D01*
X158410781Y-71231966D01*
X158443165Y-71255494D01*
X158576390Y-71352287D01*
X158576400Y-71352293D01*
X158758768Y-71445214D01*
X158758775Y-71445216D01*
X158758781Y-71445220D01*
X158953466Y-71508477D01*
X159155648Y-71540500D01*
X159155649Y-71540500D01*
X159360351Y-71540500D01*
X159360352Y-71540500D01*
X159562534Y-71508477D01*
X159757219Y-71445220D01*
X159757231Y-71445214D01*
X159939599Y-71352293D01*
X159939603Y-71352290D01*
X159939610Y-71352287D01*
X160105219Y-71231966D01*
X160249966Y-71087219D01*
X160367007Y-70926123D01*
X160433699Y-70867856D01*
X160519070Y-70844294D01*
X160606211Y-70860107D01*
X160677860Y-70912163D01*
X160688984Y-70926112D01*
X160806034Y-71087219D01*
X160950781Y-71231966D01*
X160983165Y-71255494D01*
X161116390Y-71352287D01*
X161116400Y-71352293D01*
X161298768Y-71445214D01*
X161298775Y-71445216D01*
X161298781Y-71445220D01*
X161493466Y-71508477D01*
X161695648Y-71540500D01*
X161695649Y-71540500D01*
X161900351Y-71540500D01*
X161900352Y-71540500D01*
X162102534Y-71508477D01*
X162297219Y-71445220D01*
X162297231Y-71445214D01*
X162479599Y-71352293D01*
X162479603Y-71352290D01*
X162479610Y-71352287D01*
X162645219Y-71231966D01*
X162789966Y-71087219D01*
X162907007Y-70926123D01*
X162973699Y-70867856D01*
X163059070Y-70844294D01*
X163146211Y-70860107D01*
X163217860Y-70912163D01*
X163228984Y-70926112D01*
X163346034Y-71087219D01*
X163490781Y-71231966D01*
X163523165Y-71255494D01*
X163656390Y-71352287D01*
X163656400Y-71352293D01*
X163838768Y-71445214D01*
X163838775Y-71445216D01*
X163838781Y-71445220D01*
X164033466Y-71508477D01*
X164235648Y-71540500D01*
X164235649Y-71540500D01*
X164440351Y-71540500D01*
X164440352Y-71540500D01*
X164642534Y-71508477D01*
X164837219Y-71445220D01*
X164837231Y-71445214D01*
X165019599Y-71352293D01*
X165019603Y-71352290D01*
X165019610Y-71352287D01*
X165185219Y-71231966D01*
X165329966Y-71087219D01*
X165447007Y-70926123D01*
X165513699Y-70867856D01*
X165599070Y-70844294D01*
X165686211Y-70860107D01*
X165757860Y-70912163D01*
X165768984Y-70926112D01*
X165886034Y-71087219D01*
X166030781Y-71231966D01*
X166063165Y-71255494D01*
X166196390Y-71352287D01*
X166196400Y-71352293D01*
X166378768Y-71445214D01*
X166378775Y-71445216D01*
X166378781Y-71445220D01*
X166573466Y-71508477D01*
X166775648Y-71540500D01*
X166775649Y-71540500D01*
X166980351Y-71540500D01*
X166980352Y-71540500D01*
X167182534Y-71508477D01*
X167377219Y-71445220D01*
X167377231Y-71445214D01*
X167559599Y-71352293D01*
X167559603Y-71352290D01*
X167559610Y-71352287D01*
X167725219Y-71231966D01*
X167869966Y-71087219D01*
X167987007Y-70926123D01*
X168053699Y-70867856D01*
X168139070Y-70844294D01*
X168226211Y-70860107D01*
X168297860Y-70912163D01*
X168308984Y-70926112D01*
X168426034Y-71087219D01*
X168570781Y-71231966D01*
X168603165Y-71255494D01*
X168736390Y-71352287D01*
X168736400Y-71352293D01*
X168918768Y-71445214D01*
X168918775Y-71445216D01*
X168918781Y-71445220D01*
X169113466Y-71508477D01*
X169315648Y-71540500D01*
X169315649Y-71540500D01*
X169520351Y-71540500D01*
X169520352Y-71540500D01*
X169722534Y-71508477D01*
X169917219Y-71445220D01*
X169917231Y-71445214D01*
X170099599Y-71352293D01*
X170099603Y-71352290D01*
X170099610Y-71352287D01*
X170265219Y-71231966D01*
X170409966Y-71087219D01*
X170530287Y-70921610D01*
X170535101Y-70912163D01*
X170623214Y-70739231D01*
X170623214Y-70739229D01*
X170623220Y-70739219D01*
X170686477Y-70544534D01*
X170718500Y-70342352D01*
X170718500Y-69337648D01*
X170686477Y-69135466D01*
X170623220Y-68940781D01*
X170623216Y-68940775D01*
X170623214Y-68940768D01*
X170530293Y-68758400D01*
X170530291Y-68758397D01*
X170530289Y-68758395D01*
X170530287Y-68758390D01*
X170506125Y-68725133D01*
X170471320Y-68643701D01*
X170475293Y-68555227D01*
X170517261Y-68477239D01*
X170588910Y-68425183D01*
X170676050Y-68409369D01*
X170751223Y-68427814D01*
X170883670Y-68489575D01*
X171095023Y-68546207D01*
X171313000Y-68565277D01*
X171530977Y-68546207D01*
X171742330Y-68489575D01*
X171940639Y-68397102D01*
X172119877Y-68271598D01*
X172274598Y-68116877D01*
X172400102Y-67937639D01*
X172492575Y-67739330D01*
X172549207Y-67527977D01*
X172568277Y-67310000D01*
X172549207Y-67092023D01*
X172492575Y-66880670D01*
X172478506Y-66850500D01*
X172400103Y-66682364D01*
X172274601Y-66503127D01*
X172274599Y-66503125D01*
X172274598Y-66503123D01*
X172119877Y-66348402D01*
X172119876Y-66348401D01*
X172119875Y-66348400D01*
X171940642Y-66222899D01*
X171940638Y-66222897D01*
X171742335Y-66130427D01*
X171742328Y-66130424D01*
X171530979Y-66073793D01*
X171530972Y-66073792D01*
X171364709Y-66059246D01*
X171313000Y-66054723D01*
X171312999Y-66054723D01*
X171312998Y-66054723D01*
X171312991Y-66054723D01*
X171292145Y-66056546D01*
X171204414Y-66044436D01*
X171134095Y-65999017D01*
X170276786Y-65141708D01*
X170229667Y-65066720D01*
X170218500Y-65000994D01*
X170218500Y-64092161D01*
X170238207Y-64005818D01*
X170293426Y-63936577D01*
X170347956Y-63905709D01*
X170460331Y-63863796D01*
X170575546Y-63777546D01*
X170661796Y-63662331D01*
X170712091Y-63527483D01*
X170718500Y-63467873D01*
X170718499Y-60972128D01*
X170718499Y-60972127D01*
X170718499Y-60972123D01*
X170712091Y-60912518D01*
X170705192Y-60894019D01*
X170661796Y-60777669D01*
X170597347Y-60691576D01*
X170575546Y-60662453D01*
X170460335Y-60576207D01*
X170460331Y-60576204D01*
X170325483Y-60525909D01*
X170265873Y-60519500D01*
X170265867Y-60519500D01*
X168570123Y-60519500D01*
X168510518Y-60525908D01*
X168375670Y-60576203D01*
X168375664Y-60576206D01*
X168272197Y-60653662D01*
X168191266Y-60689629D01*
X168102744Y-60686919D01*
X168024165Y-60646070D01*
X167971091Y-60575171D01*
X167954034Y-60488266D01*
X167972584Y-60410256D01*
X168048564Y-60247319D01*
X168105196Y-60035966D01*
X168124266Y-59817989D01*
X168105196Y-59600012D01*
X168048564Y-59388659D01*
X168045271Y-59381598D01*
X167956092Y-59190353D01*
X167830590Y-59011116D01*
X167830588Y-59011114D01*
X167830587Y-59011112D01*
X167675866Y-58856391D01*
X167675865Y-58856390D01*
X167675864Y-58856389D01*
X167496631Y-58730888D01*
X167496627Y-58730886D01*
X167298324Y-58638416D01*
X167298317Y-58638413D01*
X167086968Y-58581782D01*
X167086961Y-58581781D01*
X166868989Y-58562712D01*
X166651016Y-58581781D01*
X166651009Y-58581782D01*
X166439660Y-58638413D01*
X166439654Y-58638415D01*
X166241353Y-58730885D01*
X166062116Y-58856387D01*
X166062108Y-58856394D01*
X165907394Y-59011108D01*
X165907387Y-59011116D01*
X165781885Y-59190353D01*
X165689415Y-59388654D01*
X165689413Y-59388660D01*
X165632782Y-59600009D01*
X165632781Y-59600016D01*
X165613712Y-59817989D01*
X165632781Y-60035961D01*
X165632782Y-60035968D01*
X165689413Y-60247317D01*
X165689416Y-60247324D01*
X165781886Y-60445627D01*
X165781888Y-60445631D01*
X165907392Y-60624868D01*
X165929955Y-60647431D01*
X165977074Y-60722419D01*
X165986990Y-60810426D01*
X165957739Y-60894019D01*
X165929957Y-60928858D01*
X165886031Y-60972784D01*
X165843161Y-61031791D01*
X165780237Y-61118400D01*
X165768995Y-61133873D01*
X165702301Y-61192143D01*
X165616929Y-61215705D01*
X165529789Y-61199891D01*
X165458139Y-61147836D01*
X165447005Y-61133873D01*
X165435763Y-61118400D01*
X165329966Y-60972781D01*
X165196785Y-60839600D01*
X165149667Y-60764611D01*
X165138500Y-60698886D01*
X165138500Y-59324037D01*
X165158207Y-59237694D01*
X165174489Y-59209895D01*
X165288100Y-59047642D01*
X165288102Y-59047638D01*
X165292253Y-59038737D01*
X165380575Y-58849330D01*
X165437207Y-58637977D01*
X165456277Y-58420000D01*
X165437207Y-58202023D01*
X165380575Y-57990670D01*
X165369199Y-57966275D01*
X165288103Y-57792364D01*
X165260182Y-57752489D01*
X165162598Y-57613123D01*
X165007877Y-57458402D01*
X165007876Y-57458401D01*
X165007875Y-57458400D01*
X164828642Y-57332899D01*
X164828638Y-57332897D01*
X164630335Y-57240427D01*
X164630328Y-57240424D01*
X164418979Y-57183793D01*
X164418972Y-57183792D01*
X164201000Y-57164723D01*
X163983027Y-57183792D01*
X163983020Y-57183793D01*
X163771671Y-57240424D01*
X163771665Y-57240426D01*
X163573364Y-57332896D01*
X163394127Y-57458398D01*
X163394119Y-57458405D01*
X163239405Y-57613119D01*
X163239398Y-57613127D01*
X163113896Y-57792364D01*
X163021426Y-57990665D01*
X163021424Y-57990671D01*
X162964793Y-58202020D01*
X162964792Y-58202027D01*
X162945723Y-58420000D01*
X162964792Y-58637972D01*
X162964793Y-58637979D01*
X162994367Y-58748349D01*
X162997679Y-58836850D01*
X162962263Y-58918024D01*
X162895134Y-58975793D01*
X162809589Y-58998715D01*
X162722570Y-58982250D01*
X162661434Y-58940568D01*
X162604879Y-58884013D01*
X162425642Y-58758509D01*
X162425638Y-58758507D01*
X162227335Y-58666037D01*
X162227328Y-58666034D01*
X162015979Y-58609403D01*
X162015972Y-58609402D01*
X161798000Y-58590333D01*
X161580027Y-58609402D01*
X161580020Y-58609403D01*
X161368671Y-58666034D01*
X161368665Y-58666036D01*
X161170364Y-58758506D01*
X160991127Y-58884008D01*
X160991119Y-58884015D01*
X160836405Y-59038729D01*
X160836398Y-59038737D01*
X160710896Y-59217974D01*
X160618426Y-59416275D01*
X160618424Y-59416281D01*
X160561793Y-59627630D01*
X160561792Y-59627637D01*
X160542723Y-59845610D01*
X160561792Y-60063582D01*
X160561793Y-60063589D01*
X160618424Y-60274938D01*
X160618427Y-60274945D01*
X160710897Y-60473248D01*
X160710899Y-60473252D01*
X160836403Y-60652489D01*
X160840650Y-60656736D01*
X160887769Y-60731724D01*
X160897685Y-60819731D01*
X160868434Y-60903324D01*
X160840652Y-60938162D01*
X160806036Y-60972778D01*
X160806032Y-60972783D01*
X160763161Y-61031791D01*
X160700237Y-61118400D01*
X160688995Y-61133873D01*
X160622301Y-61192143D01*
X160536929Y-61215705D01*
X160449789Y-61199891D01*
X160378139Y-61147836D01*
X160367005Y-61133873D01*
X160355763Y-61118400D01*
X160249966Y-60972781D01*
X160116785Y-60839600D01*
X160069667Y-60764611D01*
X160058500Y-60698886D01*
X160058500Y-58088088D01*
X160078207Y-58001745D01*
X160133426Y-57932504D01*
X160213218Y-57894077D01*
X160301782Y-57894077D01*
X160371642Y-57925077D01*
X160525357Y-58032710D01*
X160525361Y-58032712D01*
X160723670Y-58125185D01*
X160935023Y-58181817D01*
X161153000Y-58200887D01*
X161370977Y-58181817D01*
X161582330Y-58125185D01*
X161780639Y-58032712D01*
X161959877Y-57907208D01*
X162114598Y-57752487D01*
X162240102Y-57573249D01*
X162332575Y-57374940D01*
X162389207Y-57163587D01*
X162408277Y-56945610D01*
X162389207Y-56727633D01*
X162332575Y-56516280D01*
X162305912Y-56459102D01*
X162240103Y-56317974D01*
X162114601Y-56138737D01*
X162114599Y-56138735D01*
X162114598Y-56138733D01*
X161959877Y-55984012D01*
X161959876Y-55984011D01*
X161959875Y-55984010D01*
X161780642Y-55858509D01*
X161780639Y-55858507D01*
X161765497Y-55851447D01*
X161708885Y-55811807D01*
X161663289Y-55766211D01*
X161663288Y-55766210D01*
X161656338Y-55759260D01*
X161656328Y-55759251D01*
X160511980Y-54614903D01*
X160464861Y-54539915D01*
X160454945Y-54451908D01*
X160475382Y-54383848D01*
X160516720Y-54302719D01*
X160528091Y-54267721D01*
X160573511Y-54191699D01*
X160647422Y-54142908D01*
X160735184Y-54131018D01*
X160819413Y-54158384D01*
X160883428Y-54219585D01*
X160901201Y-54253061D01*
X160920999Y-54300858D01*
X160921003Y-54300864D01*
X161035908Y-54472832D01*
X161035914Y-54472839D01*
X161182160Y-54619085D01*
X161182167Y-54619091D01*
X161354135Y-54733996D01*
X161354136Y-54733997D01*
X161545228Y-54813150D01*
X161551499Y-54814397D01*
X161551500Y-54814396D01*
X161551500Y-53669186D01*
X161605894Y-53723580D01*
X161697106Y-53776241D01*
X161798839Y-53803500D01*
X161904161Y-53803500D01*
X162005894Y-53776241D01*
X162097106Y-53723580D01*
X162151500Y-53669186D01*
X162151500Y-54814397D01*
X162157771Y-54813150D01*
X162348863Y-54733997D01*
X162348864Y-54733996D01*
X162520832Y-54619091D01*
X162520839Y-54619085D01*
X162667085Y-54472839D01*
X162667091Y-54472832D01*
X162781996Y-54300864D01*
X162781998Y-54300861D01*
X162801797Y-54253063D01*
X162853046Y-54180835D01*
X162930558Y-54137995D01*
X163018982Y-54133029D01*
X163100804Y-54166920D01*
X163159818Y-54232956D01*
X163174909Y-54267723D01*
X163186277Y-54302712D01*
X163186285Y-54302731D01*
X163279206Y-54485099D01*
X163279212Y-54485109D01*
X163332956Y-54559082D01*
X163399534Y-54650719D01*
X163544281Y-54795466D01*
X163664283Y-54882652D01*
X163709890Y-54915787D01*
X163709900Y-54915793D01*
X163892268Y-55008714D01*
X163892275Y-55008716D01*
X163892281Y-55008720D01*
X164086966Y-55071977D01*
X164289148Y-55104000D01*
X164289149Y-55104000D01*
X164493851Y-55104000D01*
X164493852Y-55104000D01*
X164696034Y-55071977D01*
X164890719Y-55008720D01*
X164890731Y-55008714D01*
X165073099Y-54915793D01*
X165073103Y-54915790D01*
X165073110Y-54915787D01*
X165238719Y-54795466D01*
X165383466Y-54650719D01*
X165500507Y-54489623D01*
X165567199Y-54431356D01*
X165652570Y-54407794D01*
X165739711Y-54423607D01*
X165811360Y-54475663D01*
X165822484Y-54489612D01*
X165939534Y-54650719D01*
X166084281Y-54795466D01*
X166204283Y-54882652D01*
X166249890Y-54915787D01*
X166249900Y-54915793D01*
X166432268Y-55008714D01*
X166432275Y-55008716D01*
X166432281Y-55008720D01*
X166626966Y-55071977D01*
X166829148Y-55104000D01*
X166829149Y-55104000D01*
X167033851Y-55104000D01*
X167033852Y-55104000D01*
X167236034Y-55071977D01*
X167430719Y-55008720D01*
X167430731Y-55008714D01*
X167613099Y-54915793D01*
X167613103Y-54915790D01*
X167613110Y-54915787D01*
X167778719Y-54795466D01*
X167923466Y-54650719D01*
X168040507Y-54489623D01*
X168107199Y-54431356D01*
X168192570Y-54407794D01*
X168279711Y-54423607D01*
X168351360Y-54475663D01*
X168362484Y-54489612D01*
X168479534Y-54650719D01*
X168624281Y-54795466D01*
X168744283Y-54882652D01*
X168789890Y-54915787D01*
X168789900Y-54915793D01*
X168972268Y-55008714D01*
X168972275Y-55008716D01*
X168972281Y-55008720D01*
X169166966Y-55071977D01*
X169369148Y-55104000D01*
X169369149Y-55104000D01*
X169573851Y-55104000D01*
X169573852Y-55104000D01*
X169579148Y-55103161D01*
X169667509Y-55109113D01*
X169744538Y-55152816D01*
X169794978Y-55225613D01*
X169808837Y-55313085D01*
X169808530Y-55317051D01*
X169803723Y-55371999D01*
X169822792Y-55589972D01*
X169822793Y-55589979D01*
X169879424Y-55801328D01*
X169879427Y-55801335D01*
X169971897Y-55999638D01*
X169971899Y-55999642D01*
X170097403Y-56178879D01*
X170252120Y-56333596D01*
X170431357Y-56459100D01*
X170431361Y-56459102D01*
X170629670Y-56551575D01*
X170841023Y-56608207D01*
X171059000Y-56627277D01*
X171276977Y-56608207D01*
X171488330Y-56551575D01*
X171686639Y-56459102D01*
X171865877Y-56333598D01*
X172020598Y-56178877D01*
X172146102Y-55999639D01*
X172238575Y-55801330D01*
X172295207Y-55589977D01*
X172314277Y-55372000D01*
X172312453Y-55351156D01*
X172324557Y-55263427D01*
X172369979Y-55193097D01*
X172577406Y-54985670D01*
X172627769Y-54949079D01*
X172693110Y-54915787D01*
X172858719Y-54795466D01*
X173003466Y-54650719D01*
X173123787Y-54485110D01*
X173128601Y-54475663D01*
X173216714Y-54302731D01*
X173216719Y-54302720D01*
X173216720Y-54302719D01*
X173279977Y-54108034D01*
X173312000Y-53905852D01*
X173312000Y-52901148D01*
X173279977Y-52698966D01*
X173216720Y-52504281D01*
X173216716Y-52504275D01*
X173216714Y-52504268D01*
X173123793Y-52321900D01*
X173123787Y-52321890D01*
X173059623Y-52233575D01*
X173003466Y-52156281D01*
X172858719Y-52011534D01*
X172693110Y-51891213D01*
X172693111Y-51891213D01*
X172693109Y-51891212D01*
X172693099Y-51891206D01*
X172510731Y-51798285D01*
X172510712Y-51798277D01*
X172316036Y-51735023D01*
X172316029Y-51735022D01*
X172122375Y-51704350D01*
X172113852Y-51703000D01*
X171909148Y-51703000D01*
X171900625Y-51704350D01*
X171706970Y-51735022D01*
X171706963Y-51735023D01*
X171512287Y-51798277D01*
X171512268Y-51798285D01*
X171329900Y-51891206D01*
X171329890Y-51891212D01*
X171164283Y-52011532D01*
X171164279Y-52011535D01*
X171019535Y-52156279D01*
X171019532Y-52156283D01*
X170902495Y-52317373D01*
X170835801Y-52375643D01*
X170750429Y-52399205D01*
X170663289Y-52383391D01*
X170591639Y-52331336D01*
X170580505Y-52317373D01*
X170486448Y-52187914D01*
X170463466Y-52156281D01*
X170330285Y-52023100D01*
X170283167Y-51948111D01*
X170272000Y-51882386D01*
X170272000Y-50657654D01*
X170241238Y-50503005D01*
X170241238Y-50503003D01*
X170202782Y-50410162D01*
X170180896Y-50357324D01*
X170180893Y-50357319D01*
X170119001Y-50264692D01*
X170093289Y-50226211D01*
X167759289Y-47892211D01*
X167631873Y-47807074D01*
X167628181Y-47804607D01*
X167628174Y-47804603D01*
X167473466Y-47740522D01*
X167474206Y-47738734D01*
X167408555Y-47701233D01*
X167358328Y-47628290D01*
X167344725Y-47540777D01*
X167370439Y-47456029D01*
X167430377Y-47390830D01*
X167452881Y-47377427D01*
X167613110Y-47295787D01*
X167778719Y-47175466D01*
X167923466Y-47030719D01*
X168040507Y-46869623D01*
X168107199Y-46811356D01*
X168192570Y-46787794D01*
X168279711Y-46803607D01*
X168351360Y-46855663D01*
X168362484Y-46869612D01*
X168479534Y-47030719D01*
X168624281Y-47175466D01*
X168732039Y-47253756D01*
X168789890Y-47295787D01*
X168789900Y-47295793D01*
X168972268Y-47388714D01*
X168972275Y-47388716D01*
X168972281Y-47388720D01*
X168972286Y-47388721D01*
X168972287Y-47388722D01*
X168978775Y-47390830D01*
X169166966Y-47451977D01*
X169369148Y-47484000D01*
X169369149Y-47484000D01*
X169573851Y-47484000D01*
X169573852Y-47484000D01*
X169776034Y-47451977D01*
X169970719Y-47388720D01*
X170040484Y-47353173D01*
X170153099Y-47295793D01*
X170153103Y-47295790D01*
X170153110Y-47295787D01*
X170318719Y-47175466D01*
X170413100Y-47081084D01*
X170488084Y-47033970D01*
X170576090Y-47024053D01*
X170659684Y-47053303D01*
X170722308Y-47115927D01*
X170740263Y-47152258D01*
X170767704Y-47225831D01*
X170767707Y-47225835D01*
X170853953Y-47341046D01*
X170917630Y-47388714D01*
X170969169Y-47427296D01*
X171104017Y-47477591D01*
X171163627Y-47484000D01*
X172859372Y-47483999D01*
X172859376Y-47483999D01*
X172899112Y-47479727D01*
X172918983Y-47477591D01*
X173053831Y-47427296D01*
X173169046Y-47341046D01*
X173255296Y-47225831D01*
X173305591Y-47090983D01*
X173312000Y-47031373D01*
X173311999Y-44535628D01*
X173311999Y-44535627D01*
X173311999Y-44535623D01*
X173305591Y-44476018D01*
X173267485Y-44373849D01*
X173255296Y-44341169D01*
X173202927Y-44271213D01*
X173169046Y-44225953D01*
X173053835Y-44139707D01*
X173053831Y-44139704D01*
X172918983Y-44089409D01*
X172859373Y-44083000D01*
X172859367Y-44083000D01*
X171163623Y-44083000D01*
X171104018Y-44089408D01*
X170969170Y-44139703D01*
X170969164Y-44139707D01*
X170853953Y-44225953D01*
X170767707Y-44341164D01*
X170767702Y-44341172D01*
X170740262Y-44414742D01*
X170691624Y-44488753D01*
X170615689Y-44534332D01*
X170527498Y-44542450D01*
X170444519Y-44511500D01*
X170413096Y-44485911D01*
X170318720Y-44391535D01*
X170318716Y-44391532D01*
X170153109Y-44271212D01*
X170153099Y-44271206D01*
X169970731Y-44178285D01*
X169970712Y-44178277D01*
X169776036Y-44115023D01*
X169776029Y-44115022D01*
X169614316Y-44089409D01*
X169573852Y-44083000D01*
X169369148Y-44083000D01*
X169328690Y-44089408D01*
X169166970Y-44115022D01*
X169166963Y-44115023D01*
X168972287Y-44178277D01*
X168972268Y-44178285D01*
X168789900Y-44271206D01*
X168789890Y-44271212D01*
X168624283Y-44391532D01*
X168624279Y-44391535D01*
X168479535Y-44536279D01*
X168479532Y-44536283D01*
X168397582Y-44649078D01*
X168381997Y-44670531D01*
X168362495Y-44697373D01*
X168295801Y-44755643D01*
X168210429Y-44779205D01*
X168123289Y-44763391D01*
X168051639Y-44711336D01*
X168040505Y-44697373D01*
X167923466Y-44536281D01*
X167778719Y-44391534D01*
X167613110Y-44271213D01*
X167613111Y-44271213D01*
X167613109Y-44271212D01*
X167613099Y-44271206D01*
X167430731Y-44178285D01*
X167430712Y-44178277D01*
X167236036Y-44115023D01*
X167236029Y-44115022D01*
X167074316Y-44089409D01*
X167033852Y-44083000D01*
X166829148Y-44083000D01*
X166788690Y-44089408D01*
X166626970Y-44115022D01*
X166626963Y-44115023D01*
X166432287Y-44178277D01*
X166432268Y-44178285D01*
X166249900Y-44271206D01*
X166249890Y-44271212D01*
X166084283Y-44391532D01*
X166084279Y-44391535D01*
X165939535Y-44536279D01*
X165939532Y-44536283D01*
X165857582Y-44649078D01*
X165841997Y-44670531D01*
X165822495Y-44697373D01*
X165755801Y-44755643D01*
X165670429Y-44779205D01*
X165583289Y-44763391D01*
X165511639Y-44711336D01*
X165500505Y-44697373D01*
X165383466Y-44536281D01*
X165238719Y-44391534D01*
X165073110Y-44271213D01*
X165073111Y-44271213D01*
X165073109Y-44271212D01*
X165073099Y-44271206D01*
X164890731Y-44178285D01*
X164890712Y-44178277D01*
X164696036Y-44115023D01*
X164696029Y-44115022D01*
X164534316Y-44089409D01*
X164493852Y-44083000D01*
X164289148Y-44083000D01*
X164248690Y-44089408D01*
X164086970Y-44115022D01*
X164086963Y-44115023D01*
X163892287Y-44178277D01*
X163892268Y-44178285D01*
X163709900Y-44271206D01*
X163709890Y-44271212D01*
X163544283Y-44391532D01*
X163544279Y-44391535D01*
X163399535Y-44536279D01*
X163399532Y-44536283D01*
X163317582Y-44649078D01*
X163301997Y-44670531D01*
X163282495Y-44697373D01*
X163215801Y-44755643D01*
X163130429Y-44779205D01*
X163043289Y-44763391D01*
X162971639Y-44711336D01*
X162960505Y-44697373D01*
X162843466Y-44536281D01*
X162698719Y-44391534D01*
X162533110Y-44271213D01*
X162533111Y-44271213D01*
X162533109Y-44271212D01*
X162533099Y-44271206D01*
X162350731Y-44178285D01*
X162350712Y-44178277D01*
X162156036Y-44115023D01*
X162156029Y-44115022D01*
X161994316Y-44089409D01*
X161953852Y-44083000D01*
X161749148Y-44083000D01*
X161708690Y-44089408D01*
X161546970Y-44115022D01*
X161546963Y-44115023D01*
X161352287Y-44178277D01*
X161352268Y-44178285D01*
X161169900Y-44271206D01*
X161169890Y-44271212D01*
X161004283Y-44391532D01*
X161004279Y-44391535D01*
X160859535Y-44536279D01*
X160859532Y-44536283D01*
X160777582Y-44649078D01*
X160761997Y-44670531D01*
X160742495Y-44697373D01*
X160675801Y-44755643D01*
X160590429Y-44779205D01*
X160503289Y-44763391D01*
X160431639Y-44711336D01*
X160420505Y-44697373D01*
X160303466Y-44536281D01*
X160158719Y-44391534D01*
X159993110Y-44271213D01*
X159993111Y-44271213D01*
X159993109Y-44271212D01*
X159993099Y-44271206D01*
X159810731Y-44178285D01*
X159810712Y-44178277D01*
X159616036Y-44115023D01*
X159616029Y-44115022D01*
X159454316Y-44089409D01*
X159413852Y-44083000D01*
X159209148Y-44083000D01*
X159168690Y-44089408D01*
X159006970Y-44115022D01*
X159006963Y-44115023D01*
X158812287Y-44178277D01*
X158812268Y-44178285D01*
X158629900Y-44271206D01*
X158629890Y-44271212D01*
X158464283Y-44391532D01*
X158464279Y-44391535D01*
X158319535Y-44536279D01*
X158319532Y-44536283D01*
X158237582Y-44649078D01*
X158221997Y-44670531D01*
X158202495Y-44697373D01*
X158135801Y-44755643D01*
X158050429Y-44779205D01*
X157963289Y-44763391D01*
X157891639Y-44711336D01*
X157880505Y-44697373D01*
X157763466Y-44536281D01*
X157618719Y-44391534D01*
X157453110Y-44271213D01*
X157453111Y-44271213D01*
X157453109Y-44271212D01*
X157453099Y-44271206D01*
X157270731Y-44178285D01*
X157270712Y-44178277D01*
X157076036Y-44115023D01*
X157076029Y-44115022D01*
X156914316Y-44089409D01*
X156873852Y-44083000D01*
X156669148Y-44083000D01*
X156628690Y-44089408D01*
X156466970Y-44115022D01*
X156466963Y-44115023D01*
X156272287Y-44178277D01*
X156272268Y-44178285D01*
X156089900Y-44271206D01*
X156089890Y-44271212D01*
X155924283Y-44391532D01*
X155924279Y-44391535D01*
X155779535Y-44536279D01*
X155779532Y-44536283D01*
X155697582Y-44649078D01*
X155681997Y-44670531D01*
X155662495Y-44697373D01*
X155595801Y-44755643D01*
X155510429Y-44779205D01*
X155423289Y-44763391D01*
X155351639Y-44711336D01*
X155340505Y-44697373D01*
X155223466Y-44536281D01*
X155078719Y-44391534D01*
X154913110Y-44271213D01*
X154913111Y-44271213D01*
X154913109Y-44271212D01*
X154913099Y-44271206D01*
X154730731Y-44178285D01*
X154730712Y-44178277D01*
X154536036Y-44115023D01*
X154536029Y-44115022D01*
X154374316Y-44089409D01*
X154333852Y-44083000D01*
X154129148Y-44083000D01*
X154088690Y-44089408D01*
X153926970Y-44115022D01*
X153926963Y-44115023D01*
X153732287Y-44178277D01*
X153732268Y-44178285D01*
X153549900Y-44271206D01*
X153549890Y-44271212D01*
X153384283Y-44391532D01*
X153384279Y-44391535D01*
X153239535Y-44536279D01*
X153239532Y-44536283D01*
X153119212Y-44701890D01*
X153119206Y-44701900D01*
X153026285Y-44884268D01*
X153026280Y-44884281D01*
X153014909Y-44919278D01*
X152969484Y-44995304D01*
X152895571Y-45044093D01*
X152807809Y-45055981D01*
X152723581Y-45028613D01*
X152659568Y-44967409D01*
X152641797Y-44933937D01*
X152621996Y-44886136D01*
X152621996Y-44886135D01*
X152507091Y-44714167D01*
X152507085Y-44714160D01*
X152360839Y-44567914D01*
X152360832Y-44567908D01*
X152188864Y-44453003D01*
X151997771Y-44373849D01*
X151991500Y-44372601D01*
X151991500Y-45517814D01*
X151937106Y-45463420D01*
X151845894Y-45410759D01*
X151744161Y-45383500D01*
X151638839Y-45383500D01*
X151537106Y-45410759D01*
X151445894Y-45463420D01*
X151371420Y-45537894D01*
X151318759Y-45629106D01*
X151291500Y-45730839D01*
X151291500Y-45836161D01*
X151318759Y-45937894D01*
X151371420Y-46029106D01*
X151445894Y-46103580D01*
X151537106Y-46156241D01*
X151638839Y-46183500D01*
X151744161Y-46183500D01*
X151845894Y-46156241D01*
X151937106Y-46103580D01*
X151991500Y-46049186D01*
X151991500Y-47194397D01*
X151997771Y-47193150D01*
X152188863Y-47113997D01*
X152188864Y-47113996D01*
X152360832Y-46999091D01*
X152360839Y-46999085D01*
X152507085Y-46852839D01*
X152507091Y-46852832D01*
X152621996Y-46680864D01*
X152621998Y-46680861D01*
X152641797Y-46633063D01*
X152693046Y-46560835D01*
X152770558Y-46517995D01*
X152858982Y-46513029D01*
X152940804Y-46546920D01*
X152999818Y-46612956D01*
X153014909Y-46647723D01*
X153026277Y-46682712D01*
X153026285Y-46682731D01*
X153119206Y-46865099D01*
X153119212Y-46865109D01*
X153119213Y-46865110D01*
X153239534Y-47030719D01*
X153384281Y-47175466D01*
X153492039Y-47253756D01*
X153549890Y-47295787D01*
X153549900Y-47295793D01*
X153732268Y-47388714D01*
X153732275Y-47388716D01*
X153732281Y-47388720D01*
X153732286Y-47388721D01*
X153732287Y-47388722D01*
X153738775Y-47390830D01*
X153926966Y-47451977D01*
X154129148Y-47484000D01*
X154129149Y-47484000D01*
X154333851Y-47484000D01*
X154333852Y-47484000D01*
X154536034Y-47451977D01*
X154730719Y-47388720D01*
X154800484Y-47353173D01*
X154913099Y-47295793D01*
X154913103Y-47295790D01*
X154913110Y-47295787D01*
X155078719Y-47175466D01*
X155223466Y-47030719D01*
X155340507Y-46869623D01*
X155407199Y-46811356D01*
X155492570Y-46787794D01*
X155579711Y-46803607D01*
X155651360Y-46855663D01*
X155662484Y-46869612D01*
X155779534Y-47030719D01*
X155924281Y-47175466D01*
X156032039Y-47253756D01*
X156089890Y-47295787D01*
X156089900Y-47295793D01*
X156272268Y-47388714D01*
X156272275Y-47388716D01*
X156272281Y-47388720D01*
X156272286Y-47388721D01*
X156272287Y-47388722D01*
X156278775Y-47390830D01*
X156466966Y-47451977D01*
X156669148Y-47484000D01*
X156669149Y-47484000D01*
X156873851Y-47484000D01*
X156873852Y-47484000D01*
X157076034Y-47451977D01*
X157270719Y-47388720D01*
X157340484Y-47353173D01*
X157453099Y-47295793D01*
X157453103Y-47295790D01*
X157453110Y-47295787D01*
X157618719Y-47175466D01*
X157763466Y-47030719D01*
X157880507Y-46869623D01*
X157947199Y-46811356D01*
X158032570Y-46787794D01*
X158119711Y-46803607D01*
X158191360Y-46855663D01*
X158202484Y-46869612D01*
X158319534Y-47030719D01*
X158464281Y-47175466D01*
X158572039Y-47253756D01*
X158629890Y-47295787D01*
X158629900Y-47295793D01*
X158812268Y-47388714D01*
X158812275Y-47388716D01*
X158812281Y-47388720D01*
X158812286Y-47388721D01*
X158812287Y-47388722D01*
X158818775Y-47390830D01*
X159006966Y-47451977D01*
X159209148Y-47484000D01*
X159209149Y-47484000D01*
X159413851Y-47484000D01*
X159413852Y-47484000D01*
X159616034Y-47451977D01*
X159810719Y-47388720D01*
X159880484Y-47353173D01*
X159993099Y-47295793D01*
X159993103Y-47295790D01*
X159993110Y-47295787D01*
X160158719Y-47175466D01*
X160303466Y-47030719D01*
X160420507Y-46869623D01*
X160487199Y-46811356D01*
X160572570Y-46787794D01*
X160659711Y-46803607D01*
X160731360Y-46855663D01*
X160742484Y-46869612D01*
X160859534Y-47030719D01*
X161004281Y-47175466D01*
X161112039Y-47253756D01*
X161169890Y-47295787D01*
X161169900Y-47295793D01*
X161352268Y-47388714D01*
X161352275Y-47388716D01*
X161352281Y-47388720D01*
X161352286Y-47388721D01*
X161352287Y-47388722D01*
X161358775Y-47390830D01*
X161546966Y-47451977D01*
X161749148Y-47484000D01*
X161749149Y-47484000D01*
X161877627Y-47484000D01*
X161963970Y-47503707D01*
X162033211Y-47558926D01*
X162071638Y-47638718D01*
X162071638Y-47727282D01*
X162033211Y-47807074D01*
X161988186Y-47848462D01*
X161922714Y-47892208D01*
X161922707Y-47892214D01*
X160606708Y-49208214D01*
X160531720Y-49255333D01*
X160465994Y-49266500D01*
X149711114Y-49266500D01*
X149624771Y-49246793D01*
X149570400Y-49208214D01*
X149429141Y-49066955D01*
X149429139Y-49066953D01*
X149276407Y-48960010D01*
X149216984Y-48894345D01*
X149191937Y-48809397D01*
X149206227Y-48721994D01*
X149257024Y-48649447D01*
X149276401Y-48633993D01*
X149429139Y-48527047D01*
X149590047Y-48366139D01*
X149720568Y-48179734D01*
X149816739Y-47973496D01*
X149820356Y-47959999D01*
X149875632Y-47753704D01*
X149875632Y-47753701D01*
X149875635Y-47753692D01*
X149895468Y-47527000D01*
X149875635Y-47300308D01*
X149875632Y-47300295D01*
X149816741Y-47080509D01*
X149811221Y-47068671D01*
X149720568Y-46874266D01*
X149590047Y-46687861D01*
X149429139Y-46526953D01*
X149242734Y-46396432D01*
X149075449Y-46318425D01*
X149036490Y-46300258D01*
X148986708Y-46286919D01*
X150641500Y-46286919D01*
X150681849Y-46489771D01*
X150681850Y-46489773D01*
X150761001Y-46680860D01*
X150761003Y-46680864D01*
X150875908Y-46852832D01*
X150875914Y-46852839D01*
X151022160Y-46999085D01*
X151022167Y-46999091D01*
X151194135Y-47113996D01*
X151194136Y-47113997D01*
X151385228Y-47193150D01*
X151391499Y-47194397D01*
X151391500Y-47194396D01*
X151391500Y-46083500D01*
X150641500Y-46083500D01*
X150641500Y-46286919D01*
X148986708Y-46286919D01*
X148816704Y-46241367D01*
X148816692Y-46241365D01*
X148590000Y-46221532D01*
X148363307Y-46241365D01*
X148363295Y-46241367D01*
X148143509Y-46300258D01*
X147937266Y-46396432D01*
X147750858Y-46526955D01*
X147609600Y-46668214D01*
X147534612Y-46715333D01*
X147468886Y-46726500D01*
X146309403Y-46726500D01*
X146223060Y-46706793D01*
X146168691Y-46668216D01*
X146036877Y-46536402D01*
X146036876Y-46536401D01*
X146036875Y-46536400D01*
X145857642Y-46410899D01*
X145857638Y-46410897D01*
X145659335Y-46318427D01*
X145659328Y-46318424D01*
X145552355Y-46289761D01*
X145474055Y-46248378D01*
X145421464Y-46177120D01*
X145404999Y-46090101D01*
X145427921Y-46004555D01*
X145485690Y-45937427D01*
X145546094Y-45907111D01*
X145614536Y-45886349D01*
X145692443Y-45844707D01*
X145692443Y-45844706D01*
X145230001Y-45382264D01*
X145230000Y-45382264D01*
X144767555Y-45844706D01*
X144845467Y-45886350D01*
X144913905Y-45907111D01*
X144990810Y-45951033D01*
X145041041Y-46023974D01*
X145054650Y-46111485D01*
X145028942Y-46196235D01*
X144969007Y-46261437D01*
X144907645Y-46289761D01*
X144800668Y-46318425D01*
X144800665Y-46318426D01*
X144602364Y-46410896D01*
X144423127Y-46536398D01*
X144423119Y-46536405D01*
X144268405Y-46691119D01*
X144268398Y-46691127D01*
X144142896Y-46870364D01*
X144050426Y-47068665D01*
X144050424Y-47068671D01*
X143993793Y-47280020D01*
X143993792Y-47280027D01*
X143974723Y-47498000D01*
X143993792Y-47715972D01*
X143993793Y-47715979D01*
X144050424Y-47927328D01*
X144050427Y-47927335D01*
X144142897Y-48125638D01*
X144142899Y-48125642D01*
X144268403Y-48304879D01*
X144429266Y-48465742D01*
X144428128Y-48466879D01*
X144475201Y-48529018D01*
X144492752Y-48615825D01*
X144470902Y-48701650D01*
X144413977Y-48769496D01*
X144363359Y-48797324D01*
X144237666Y-48844205D01*
X144237664Y-48844207D01*
X144122453Y-48930453D01*
X144036207Y-49045664D01*
X144036203Y-49045670D01*
X144012940Y-49108043D01*
X143964302Y-49182055D01*
X143888367Y-49227634D01*
X143826487Y-49237500D01*
X142247114Y-49237500D01*
X142160771Y-49217793D01*
X142106400Y-49179214D01*
X141965141Y-49037955D01*
X141965139Y-49037953D01*
X141778734Y-48907432D01*
X141572496Y-48811261D01*
X141572497Y-48811261D01*
X141572490Y-48811258D01*
X141352704Y-48752367D01*
X141352692Y-48752365D01*
X141126000Y-48732532D01*
X140899307Y-48752365D01*
X140899295Y-48752367D01*
X140679509Y-48811258D01*
X140473266Y-48907432D01*
X140286858Y-49037955D01*
X140125953Y-49198861D01*
X140125950Y-49198863D01*
X140019011Y-49351590D01*
X139953344Y-49411015D01*
X139868397Y-49436063D01*
X139780994Y-49421772D01*
X139708447Y-49370975D01*
X139692989Y-49351590D01*
X139586050Y-49198865D01*
X139586048Y-49198863D01*
X139586047Y-49198861D01*
X139444785Y-49057599D01*
X139397667Y-48982610D01*
X139386500Y-48916885D01*
X139386500Y-47439516D01*
X139406207Y-47353173D01*
X139461426Y-47283932D01*
X139541218Y-47245505D01*
X139564233Y-47241656D01*
X139567723Y-47241280D01*
X139569483Y-47241091D01*
X139704331Y-47190796D01*
X139819546Y-47104546D01*
X139905796Y-46989331D01*
X139956091Y-46854483D01*
X139962500Y-46794873D01*
X139962499Y-44958000D01*
X144225161Y-44958000D01*
X144244470Y-45154037D01*
X144301650Y-45342535D01*
X144343292Y-45420442D01*
X144805736Y-44958000D01*
X144753075Y-44905339D01*
X144830000Y-44905339D01*
X144830000Y-45010661D01*
X144857259Y-45112394D01*
X144909920Y-45203606D01*
X144984394Y-45278080D01*
X145075606Y-45330741D01*
X145177339Y-45358000D01*
X145282661Y-45358000D01*
X145384394Y-45330741D01*
X145475606Y-45278080D01*
X145550080Y-45203606D01*
X145602741Y-45112394D01*
X145630000Y-45010661D01*
X145630000Y-44957999D01*
X145654264Y-44957999D01*
X145654264Y-44958001D01*
X146116706Y-45420443D01*
X146116707Y-45420443D01*
X146158348Y-45342537D01*
X146177294Y-45280080D01*
X150641500Y-45280080D01*
X150641500Y-45483500D01*
X151391500Y-45483500D01*
X151391500Y-44372602D01*
X151391499Y-44372601D01*
X151385228Y-44373849D01*
X151194136Y-44453003D01*
X151194135Y-44453003D01*
X151022167Y-44567908D01*
X151022160Y-44567914D01*
X150875914Y-44714160D01*
X150875908Y-44714167D01*
X150761003Y-44886135D01*
X150761001Y-44886139D01*
X150681850Y-45077226D01*
X150681849Y-45077228D01*
X150641500Y-45280080D01*
X146177294Y-45280080D01*
X146215529Y-45154037D01*
X146234838Y-44958000D01*
X146215529Y-44761962D01*
X146158350Y-44573466D01*
X146116706Y-44495555D01*
X145654264Y-44957999D01*
X145630000Y-44957999D01*
X145630000Y-44905339D01*
X145602741Y-44803606D01*
X145550080Y-44712394D01*
X145475606Y-44637920D01*
X145384394Y-44585259D01*
X145282661Y-44558000D01*
X145177339Y-44558000D01*
X145075606Y-44585259D01*
X144984394Y-44637920D01*
X144909920Y-44712394D01*
X144857259Y-44803606D01*
X144830000Y-44905339D01*
X144753075Y-44905339D01*
X144343291Y-44495555D01*
X144301651Y-44573460D01*
X144244470Y-44761962D01*
X144225161Y-44958000D01*
X139962499Y-44958000D01*
X139962499Y-44899128D01*
X139962499Y-44899127D01*
X139962499Y-44899123D01*
X139956091Y-44839518D01*
X139946233Y-44813085D01*
X139905796Y-44704669D01*
X139855828Y-44637920D01*
X139819546Y-44589453D01*
X139704335Y-44503207D01*
X139704331Y-44503204D01*
X139569483Y-44452909D01*
X139509873Y-44446500D01*
X139509867Y-44446500D01*
X137614123Y-44446500D01*
X137554518Y-44452908D01*
X137419670Y-44503203D01*
X137419664Y-44503207D01*
X137304453Y-44589453D01*
X137218204Y-44704667D01*
X137215939Y-44708817D01*
X137210468Y-44715002D01*
X137209674Y-44716063D01*
X137209587Y-44715998D01*
X137157263Y-44775154D01*
X137075616Y-44809463D01*
X136987168Y-44804950D01*
X136919052Y-44770487D01*
X136790628Y-44670531D01*
X136790629Y-44670531D01*
X136586507Y-44560065D01*
X136509201Y-44533526D01*
X136366981Y-44484702D01*
X136275408Y-44469421D01*
X136138052Y-44446500D01*
X136138049Y-44446500D01*
X135905951Y-44446500D01*
X135905947Y-44446500D01*
X135729065Y-44476017D01*
X135677019Y-44484702D01*
X135623125Y-44503204D01*
X135457492Y-44560065D01*
X135253370Y-44670531D01*
X135070217Y-44813085D01*
X135070216Y-44813086D01*
X134913023Y-44983844D01*
X134786075Y-45178152D01*
X134786073Y-45178154D01*
X134692843Y-45390697D01*
X134635864Y-45615702D01*
X134616700Y-45846996D01*
X134616700Y-45847003D01*
X134635864Y-46078297D01*
X134692843Y-46303302D01*
X134786073Y-46515845D01*
X134786075Y-46515847D01*
X134786076Y-46515849D01*
X134913021Y-46710153D01*
X134984494Y-46787794D01*
X135070216Y-46880913D01*
X135070217Y-46880914D01*
X135253371Y-47023468D01*
X135253374Y-47023470D01*
X135356213Y-47079124D01*
X135422770Y-47137550D01*
X135457385Y-47219068D01*
X135460500Y-47254139D01*
X135460500Y-47260499D01*
X135440793Y-47346842D01*
X135385574Y-47416083D01*
X135305782Y-47454510D01*
X135261500Y-47459499D01*
X134119791Y-47459499D01*
X134033448Y-47439792D01*
X133964207Y-47384573D01*
X133933338Y-47330042D01*
X133904885Y-47253756D01*
X133891425Y-47217668D01*
X133831449Y-47137550D01*
X133805175Y-47102452D01*
X133689964Y-47016206D01*
X133689960Y-47016203D01*
X133555112Y-46965908D01*
X133495502Y-46959499D01*
X133495496Y-46959499D01*
X131799752Y-46959499D01*
X131740147Y-46965907D01*
X131605299Y-47016202D01*
X131605293Y-47016206D01*
X131490082Y-47102452D01*
X131403836Y-47217663D01*
X131403833Y-47217668D01*
X131353538Y-47352516D01*
X131347129Y-47412126D01*
X131347129Y-47412127D01*
X131347129Y-47412131D01*
X131347129Y-47559930D01*
X131327422Y-47646273D01*
X131272203Y-47715514D01*
X131192411Y-47753941D01*
X131103847Y-47753941D01*
X131024055Y-47715514D01*
X130991999Y-47680644D01*
X130991099Y-47681384D01*
X130853684Y-47513943D01*
X130693799Y-47382729D01*
X130511393Y-47285232D01*
X130407629Y-47253755D01*
X130407629Y-47994313D01*
X130353235Y-47939919D01*
X130262023Y-47887258D01*
X130160290Y-47859999D01*
X130054968Y-47859999D01*
X129953235Y-47887258D01*
X129862023Y-47939919D01*
X129787549Y-48014393D01*
X129734888Y-48105605D01*
X129707629Y-48207338D01*
X129707629Y-48312660D01*
X129734888Y-48414393D01*
X129787549Y-48505605D01*
X129862023Y-48580079D01*
X129953235Y-48632740D01*
X130054968Y-48659999D01*
X130160290Y-48659999D01*
X130262023Y-48632740D01*
X130353235Y-48580079D01*
X130407629Y-48525685D01*
X130407629Y-49266241D01*
X130511392Y-49234766D01*
X130693799Y-49137268D01*
X130853684Y-49006054D01*
X130991099Y-48838614D01*
X130992756Y-48839973D01*
X131046999Y-48788678D01*
X131131377Y-48761772D01*
X131219072Y-48774141D01*
X131292716Y-48823335D01*
X131337723Y-48899609D01*
X131347129Y-48960065D01*
X131347129Y-49107875D01*
X131353537Y-49167480D01*
X131403832Y-49302328D01*
X131403836Y-49302334D01*
X131490082Y-49417545D01*
X131559109Y-49469218D01*
X131605298Y-49503795D01*
X131740146Y-49554090D01*
X131799756Y-49560499D01*
X133495501Y-49560498D01*
X133495505Y-49560498D01*
X133535241Y-49556226D01*
X133555112Y-49554090D01*
X133689960Y-49503795D01*
X133805175Y-49417545D01*
X133891425Y-49302330D01*
X133933337Y-49189955D01*
X133981974Y-49115945D01*
X134057908Y-49070365D01*
X134119790Y-49060499D01*
X135261500Y-49060499D01*
X135347843Y-49080206D01*
X135417084Y-49135425D01*
X135455511Y-49215217D01*
X135460500Y-49259499D01*
X135460500Y-50003597D01*
X135440793Y-50089940D01*
X135402214Y-50144311D01*
X135299405Y-50247119D01*
X135299398Y-50247127D01*
X135173896Y-50426364D01*
X135081426Y-50624665D01*
X135081424Y-50624671D01*
X135024793Y-50836020D01*
X135024792Y-50836027D01*
X135005723Y-51054000D01*
X135024792Y-51271972D01*
X135024793Y-51271979D01*
X135081424Y-51483328D01*
X135081427Y-51483335D01*
X135173897Y-51681638D01*
X135173899Y-51681642D01*
X135299403Y-51860879D01*
X135454120Y-52015596D01*
X135633357Y-52141100D01*
X135633361Y-52141102D01*
X135831670Y-52233575D01*
X136043023Y-52290207D01*
X136261000Y-52309277D01*
X136478977Y-52290207D01*
X136690330Y-52233575D01*
X136888639Y-52141102D01*
X137067877Y-52015598D01*
X137222598Y-51860877D01*
X137348102Y-51681639D01*
X137440575Y-51483330D01*
X137497207Y-51271977D01*
X137500862Y-51230198D01*
X137528019Y-51145902D01*
X137589061Y-51081736D01*
X137671899Y-51050409D01*
X137760125Y-51058127D01*
X137813246Y-51084530D01*
X137907470Y-51150506D01*
X137933266Y-51168568D01*
X138139504Y-51264739D01*
X138139505Y-51264739D01*
X138139509Y-51264741D01*
X138359295Y-51323632D01*
X138359299Y-51323632D01*
X138359308Y-51323635D01*
X138586000Y-51343468D01*
X138812692Y-51323635D01*
X138812701Y-51323632D01*
X138812704Y-51323632D01*
X139032490Y-51264741D01*
X139032491Y-51264740D01*
X139032496Y-51264739D01*
X139238734Y-51168568D01*
X139425139Y-51038047D01*
X139586047Y-50877139D01*
X139692989Y-50724407D01*
X139758655Y-50664984D01*
X139843603Y-50639937D01*
X139931006Y-50654227D01*
X140003553Y-50705024D01*
X140019006Y-50724401D01*
X140125953Y-50877139D01*
X140286861Y-51038047D01*
X140473266Y-51168568D01*
X140679504Y-51264739D01*
X140679505Y-51264739D01*
X140679509Y-51264741D01*
X140899295Y-51323632D01*
X140899299Y-51323632D01*
X140899308Y-51323635D01*
X141126000Y-51343468D01*
X141352692Y-51323635D01*
X141352701Y-51323632D01*
X141352704Y-51323632D01*
X141572490Y-51264741D01*
X141572491Y-51264740D01*
X141572496Y-51264739D01*
X141778734Y-51168568D01*
X141965139Y-51038047D01*
X142106400Y-50896786D01*
X142181388Y-50849667D01*
X142247114Y-50838500D01*
X143826487Y-50838500D01*
X143912830Y-50858207D01*
X143982071Y-50913426D01*
X144012940Y-50967957D01*
X144036203Y-51030329D01*
X144036207Y-51030335D01*
X144122453Y-51145546D01*
X144153207Y-51168568D01*
X144237669Y-51231796D01*
X144372517Y-51282091D01*
X144432127Y-51288500D01*
X146027872Y-51288499D01*
X146027876Y-51288499D01*
X146067612Y-51284227D01*
X146087483Y-51282091D01*
X146222331Y-51231796D01*
X146337546Y-51145546D01*
X146423796Y-51030331D01*
X146474091Y-50895483D01*
X146480500Y-50835873D01*
X146480499Y-49240128D01*
X146480499Y-49240123D01*
X146474091Y-49180518D01*
X146469229Y-49167480D01*
X146423796Y-49045669D01*
X146359713Y-48960065D01*
X146337546Y-48930453D01*
X146222335Y-48844207D01*
X146222329Y-48844203D01*
X146133998Y-48811258D01*
X146096639Y-48797324D01*
X146022629Y-48748687D01*
X145977050Y-48672753D01*
X145968931Y-48584563D01*
X145999880Y-48501583D01*
X146031280Y-48466290D01*
X146030733Y-48465743D01*
X146110688Y-48385787D01*
X146185676Y-48338668D01*
X146251403Y-48327500D01*
X147468886Y-48327500D01*
X147555229Y-48347207D01*
X147609600Y-48385786D01*
X147750863Y-48527049D01*
X147903590Y-48633989D01*
X147963015Y-48699656D01*
X147988063Y-48784603D01*
X147973772Y-48872006D01*
X147922975Y-48944553D01*
X147903590Y-48960011D01*
X147750863Y-49066950D01*
X147750861Y-49066953D01*
X147589955Y-49227858D01*
X147459432Y-49414266D01*
X147363258Y-49620509D01*
X147304367Y-49840295D01*
X147304365Y-49840307D01*
X147284532Y-50067000D01*
X147304365Y-50293692D01*
X147304367Y-50293704D01*
X147363258Y-50513490D01*
X147363261Y-50513496D01*
X147459432Y-50719734D01*
X147589953Y-50906139D01*
X147750861Y-51067047D01*
X147937266Y-51197568D01*
X148143504Y-51293739D01*
X148143505Y-51293739D01*
X148143509Y-51293741D01*
X148363295Y-51352632D01*
X148363299Y-51352632D01*
X148363308Y-51352635D01*
X148590000Y-51372468D01*
X148816692Y-51352635D01*
X148816701Y-51352632D01*
X148816704Y-51352632D01*
X149036490Y-51293741D01*
X149036491Y-51293740D01*
X149036496Y-51293739D01*
X149242734Y-51197568D01*
X149429139Y-51067047D01*
X149570400Y-50925786D01*
X149645388Y-50878667D01*
X149711114Y-50867500D01*
X160958841Y-50867500D01*
X160958842Y-50867500D01*
X161113497Y-50836737D01*
X161259179Y-50776394D01*
X161390289Y-50688789D01*
X162706292Y-49372786D01*
X162781280Y-49325667D01*
X162847006Y-49314500D01*
X163471704Y-49314500D01*
X163558047Y-49334207D01*
X163627288Y-49389426D01*
X163665715Y-49469218D01*
X163665715Y-49557782D01*
X163627288Y-49637574D01*
X163612418Y-49654214D01*
X163575791Y-49690840D01*
X163575786Y-49690847D01*
X163483687Y-49840163D01*
X163483686Y-49840165D01*
X163428502Y-50006698D01*
X163428501Y-50006700D01*
X163428501Y-50006703D01*
X163418000Y-50109491D01*
X163418000Y-50109498D01*
X163418000Y-50109499D01*
X163418000Y-51109507D01*
X163418001Y-51109513D01*
X163428500Y-51212295D01*
X163483686Y-51378834D01*
X163575788Y-51528156D01*
X163575791Y-51528159D01*
X163659714Y-51612082D01*
X163706833Y-51687070D01*
X163718000Y-51752796D01*
X163718000Y-51783925D01*
X163698293Y-51870268D01*
X163643074Y-51939509D01*
X163635988Y-51944905D01*
X163570340Y-51992601D01*
X163544278Y-52011536D01*
X163399535Y-52156279D01*
X163399532Y-52156283D01*
X163279212Y-52321890D01*
X163279206Y-52321900D01*
X163186285Y-52504268D01*
X163186280Y-52504281D01*
X163174909Y-52539278D01*
X163129484Y-52615304D01*
X163055571Y-52664093D01*
X162967809Y-52675981D01*
X162883581Y-52648613D01*
X162819568Y-52587409D01*
X162801797Y-52553937D01*
X162781996Y-52506136D01*
X162781996Y-52506135D01*
X162667091Y-52334167D01*
X162667085Y-52334160D01*
X162520839Y-52187914D01*
X162520832Y-52187908D01*
X162348864Y-52073003D01*
X162157771Y-51993849D01*
X162151500Y-51992601D01*
X162151500Y-53137814D01*
X162097106Y-53083420D01*
X162005894Y-53030759D01*
X161904161Y-53003500D01*
X161798839Y-53003500D01*
X161697106Y-53030759D01*
X161605894Y-53083420D01*
X161551500Y-53137814D01*
X161551500Y-51992602D01*
X161551499Y-51992601D01*
X161545228Y-51993849D01*
X161354136Y-52073003D01*
X161354135Y-52073003D01*
X161182167Y-52187908D01*
X161182160Y-52187914D01*
X161035914Y-52334160D01*
X161035908Y-52334167D01*
X160921003Y-52506135D01*
X160921001Y-52506138D01*
X160901201Y-52553939D01*
X160849950Y-52626167D01*
X160772437Y-52669006D01*
X160684013Y-52673970D01*
X160602191Y-52640076D01*
X160543179Y-52574039D01*
X160528091Y-52539278D01*
X160516720Y-52504281D01*
X160516717Y-52504275D01*
X160516714Y-52504268D01*
X160423793Y-52321900D01*
X160423787Y-52321890D01*
X160359623Y-52233575D01*
X160303466Y-52156281D01*
X160158719Y-52011534D01*
X159993110Y-51891213D01*
X159993111Y-51891213D01*
X159993109Y-51891212D01*
X159993099Y-51891206D01*
X159810731Y-51798285D01*
X159810712Y-51798277D01*
X159616036Y-51735023D01*
X159616029Y-51735022D01*
X159422375Y-51704350D01*
X159413852Y-51703000D01*
X159209148Y-51703000D01*
X159200625Y-51704350D01*
X159006970Y-51735022D01*
X159006963Y-51735023D01*
X158812287Y-51798277D01*
X158812268Y-51798285D01*
X158629900Y-51891206D01*
X158629890Y-51891212D01*
X158464283Y-52011532D01*
X158464279Y-52011535D01*
X158319535Y-52156279D01*
X158319532Y-52156283D01*
X158202495Y-52317373D01*
X158135801Y-52375643D01*
X158050429Y-52399205D01*
X157963289Y-52383391D01*
X157891639Y-52331336D01*
X157880505Y-52317373D01*
X157819623Y-52233575D01*
X157763466Y-52156281D01*
X157618719Y-52011534D01*
X157453110Y-51891213D01*
X157453111Y-51891213D01*
X157453109Y-51891212D01*
X157453099Y-51891206D01*
X157270731Y-51798285D01*
X157270712Y-51798277D01*
X157076036Y-51735023D01*
X157076029Y-51735022D01*
X156882375Y-51704350D01*
X156873852Y-51703000D01*
X156669148Y-51703000D01*
X156660625Y-51704350D01*
X156466970Y-51735022D01*
X156466963Y-51735023D01*
X156272287Y-51798277D01*
X156272268Y-51798285D01*
X156089900Y-51891206D01*
X156089890Y-51891212D01*
X155924283Y-52011532D01*
X155924279Y-52011535D01*
X155779535Y-52156279D01*
X155779532Y-52156283D01*
X155662495Y-52317373D01*
X155595801Y-52375643D01*
X155510429Y-52399205D01*
X155423289Y-52383391D01*
X155351639Y-52331336D01*
X155340505Y-52317373D01*
X155279623Y-52233575D01*
X155223466Y-52156281D01*
X155078719Y-52011534D01*
X154913110Y-51891213D01*
X154913111Y-51891213D01*
X154913109Y-51891212D01*
X154913099Y-51891206D01*
X154730731Y-51798285D01*
X154730712Y-51798277D01*
X154536036Y-51735023D01*
X154536029Y-51735022D01*
X154342375Y-51704350D01*
X154333852Y-51703000D01*
X154129148Y-51703000D01*
X154120625Y-51704350D01*
X153926970Y-51735022D01*
X153926963Y-51735023D01*
X153732287Y-51798277D01*
X153732268Y-51798285D01*
X153549900Y-51891206D01*
X153549890Y-51891212D01*
X153384283Y-52011532D01*
X153384279Y-52011535D01*
X153239535Y-52156279D01*
X153239532Y-52156283D01*
X153122495Y-52317373D01*
X153055801Y-52375643D01*
X152970429Y-52399205D01*
X152883289Y-52383391D01*
X152811639Y-52331336D01*
X152800505Y-52317373D01*
X152739623Y-52233575D01*
X152683466Y-52156281D01*
X152538719Y-52011534D01*
X152373110Y-51891213D01*
X152373111Y-51891213D01*
X152373109Y-51891212D01*
X152373099Y-51891206D01*
X152190731Y-51798285D01*
X152190712Y-51798277D01*
X151996036Y-51735023D01*
X151996029Y-51735022D01*
X151802375Y-51704350D01*
X151793852Y-51703000D01*
X151589148Y-51703000D01*
X151580625Y-51704350D01*
X151386970Y-51735022D01*
X151386963Y-51735023D01*
X151192287Y-51798277D01*
X151192268Y-51798285D01*
X151009900Y-51891206D01*
X151009890Y-51891212D01*
X150844283Y-52011532D01*
X150844279Y-52011535D01*
X150699535Y-52156279D01*
X150699532Y-52156283D01*
X150579212Y-52321890D01*
X150579206Y-52321900D01*
X150486285Y-52504268D01*
X150486277Y-52504287D01*
X150423023Y-52698963D01*
X150423022Y-52698970D01*
X150391000Y-52901149D01*
X150391000Y-53905850D01*
X150423022Y-54108029D01*
X150423023Y-54108036D01*
X150486277Y-54302712D01*
X150486285Y-54302731D01*
X150579206Y-54485099D01*
X150579212Y-54485109D01*
X150632956Y-54559082D01*
X150699534Y-54650719D01*
X150844281Y-54795466D01*
X150918880Y-54849664D01*
X150977147Y-54916355D01*
X150977486Y-54917068D01*
X150977500Y-54917061D01*
X150982107Y-54925682D01*
X151047512Y-55023566D01*
X151069711Y-55056789D01*
X151890633Y-55877711D01*
X152674214Y-56661291D01*
X152721333Y-56736279D01*
X152732500Y-56802005D01*
X152732500Y-57345207D01*
X152712793Y-57431550D01*
X152674214Y-57485921D01*
X152571405Y-57588729D01*
X152571398Y-57588737D01*
X152445896Y-57767974D01*
X152353426Y-57966275D01*
X152353424Y-57966281D01*
X152296793Y-58177630D01*
X152296792Y-58177637D01*
X152277723Y-58395610D01*
X152296792Y-58613582D01*
X152296793Y-58613589D01*
X152353424Y-58824938D01*
X152353427Y-58824945D01*
X152445897Y-59023248D01*
X152445899Y-59023252D01*
X152571403Y-59202489D01*
X152726120Y-59357206D01*
X152905357Y-59482710D01*
X152905361Y-59482712D01*
X153103670Y-59575185D01*
X153315023Y-59631817D01*
X153533000Y-59650887D01*
X153593382Y-59645604D01*
X153681112Y-59657711D01*
X153754902Y-59706684D01*
X153800137Y-59782824D01*
X153808967Y-59861189D01*
X153801723Y-59943999D01*
X153820792Y-60161972D01*
X153820793Y-60161979D01*
X153877424Y-60373328D01*
X153877427Y-60373335D01*
X153959445Y-60549224D01*
X153978075Y-60635806D01*
X153957292Y-60721897D01*
X153901215Y-60790444D01*
X153855245Y-60817177D01*
X153680636Y-60889503D01*
X153680635Y-60889503D01*
X153508667Y-61004408D01*
X153508660Y-61004414D01*
X153362414Y-61150660D01*
X153362408Y-61150667D01*
X153247503Y-61322635D01*
X153247501Y-61322639D01*
X153168350Y-61513726D01*
X153168349Y-61513728D01*
X153128000Y-61716580D01*
X153128000Y-61920000D01*
X153912314Y-61920000D01*
X153857920Y-61974394D01*
X153805259Y-62065606D01*
X153778000Y-62167339D01*
X153778000Y-62272661D01*
X153805259Y-62374394D01*
X153857920Y-62465606D01*
X153932394Y-62540080D01*
X154023606Y-62592741D01*
X154125339Y-62620000D01*
X154230661Y-62620000D01*
X154332394Y-62592741D01*
X154423606Y-62540080D01*
X154478000Y-62485686D01*
X154478000Y-63630897D01*
X154484271Y-63629650D01*
X154675363Y-63550497D01*
X154675364Y-63550496D01*
X154847332Y-63435591D01*
X154847339Y-63435585D01*
X154993585Y-63289339D01*
X154993591Y-63289332D01*
X155108496Y-63117364D01*
X155108498Y-63117361D01*
X155128297Y-63069563D01*
X155179546Y-62997335D01*
X155257058Y-62954495D01*
X155345482Y-62949529D01*
X155427304Y-62983420D01*
X155486318Y-63049456D01*
X155501409Y-63084223D01*
X155512777Y-63119212D01*
X155512785Y-63119231D01*
X155605706Y-63301599D01*
X155605712Y-63301609D01*
X155605713Y-63301610D01*
X155726034Y-63467219D01*
X155870781Y-63611966D01*
X156008862Y-63712287D01*
X156036390Y-63732287D01*
X156036400Y-63732293D01*
X156218768Y-63825214D01*
X156218775Y-63825216D01*
X156218781Y-63825220D01*
X156218786Y-63825221D01*
X156218787Y-63825222D01*
X156256661Y-63837528D01*
X156413466Y-63888477D01*
X156615648Y-63920500D01*
X156615649Y-63920500D01*
X156820351Y-63920500D01*
X156820352Y-63920500D01*
X157022534Y-63888477D01*
X157217219Y-63825220D01*
X157217231Y-63825214D01*
X157399599Y-63732293D01*
X157399603Y-63732290D01*
X157399610Y-63732287D01*
X157565219Y-63611966D01*
X157709966Y-63467219D01*
X157827007Y-63306123D01*
X157893699Y-63247856D01*
X157979070Y-63224294D01*
X158066211Y-63240107D01*
X158137860Y-63292163D01*
X158148984Y-63306112D01*
X158266034Y-63467219D01*
X158410781Y-63611966D01*
X158548862Y-63712287D01*
X158576390Y-63732287D01*
X158576400Y-63732293D01*
X158758768Y-63825214D01*
X158758775Y-63825216D01*
X158758781Y-63825220D01*
X158758786Y-63825221D01*
X158758787Y-63825222D01*
X158796661Y-63837528D01*
X158953466Y-63888477D01*
X159155648Y-63920500D01*
X159155649Y-63920500D01*
X159360351Y-63920500D01*
X159360352Y-63920500D01*
X159562534Y-63888477D01*
X159757219Y-63825220D01*
X159757231Y-63825214D01*
X159939599Y-63732293D01*
X159939603Y-63732290D01*
X159939610Y-63732287D01*
X160105219Y-63611966D01*
X160249966Y-63467219D01*
X160367007Y-63306123D01*
X160433699Y-63247856D01*
X160519070Y-63224294D01*
X160606211Y-63240107D01*
X160677860Y-63292163D01*
X160688984Y-63306112D01*
X160806034Y-63467219D01*
X160950781Y-63611966D01*
X161088862Y-63712287D01*
X161116390Y-63732287D01*
X161116400Y-63732293D01*
X161298768Y-63825214D01*
X161298775Y-63825216D01*
X161298781Y-63825220D01*
X161298786Y-63825221D01*
X161298787Y-63825222D01*
X161336661Y-63837528D01*
X161493466Y-63888477D01*
X161695648Y-63920500D01*
X161695649Y-63920500D01*
X161900351Y-63920500D01*
X161900352Y-63920500D01*
X162102534Y-63888477D01*
X162297219Y-63825220D01*
X162297231Y-63825214D01*
X162479599Y-63732293D01*
X162479603Y-63732290D01*
X162479610Y-63732287D01*
X162645219Y-63611966D01*
X162789966Y-63467219D01*
X162907007Y-63306123D01*
X162973699Y-63247856D01*
X163059070Y-63224294D01*
X163146211Y-63240107D01*
X163217860Y-63292163D01*
X163228984Y-63306112D01*
X163346034Y-63467219D01*
X163490781Y-63611966D01*
X163628862Y-63712287D01*
X163656390Y-63732287D01*
X163656400Y-63732293D01*
X163838768Y-63825214D01*
X163838775Y-63825216D01*
X163838781Y-63825220D01*
X163838786Y-63825221D01*
X163838787Y-63825222D01*
X163876661Y-63837528D01*
X164033466Y-63888477D01*
X164235648Y-63920500D01*
X164235649Y-63920500D01*
X164440351Y-63920500D01*
X164440352Y-63920500D01*
X164642534Y-63888477D01*
X164837219Y-63825220D01*
X164837231Y-63825214D01*
X165019599Y-63732293D01*
X165019603Y-63732290D01*
X165019610Y-63732287D01*
X165185219Y-63611966D01*
X165329966Y-63467219D01*
X165447007Y-63306123D01*
X165513699Y-63247856D01*
X165599070Y-63224294D01*
X165686211Y-63240107D01*
X165757860Y-63292163D01*
X165768984Y-63306112D01*
X165880426Y-63459500D01*
X165886032Y-63467216D01*
X165886035Y-63467220D01*
X166019214Y-63600399D01*
X166066333Y-63675387D01*
X166077500Y-63741113D01*
X166077500Y-66220994D01*
X166057793Y-66307337D01*
X166019214Y-66361708D01*
X165959708Y-66421214D01*
X165884720Y-66468333D01*
X165818994Y-66479500D01*
X148202006Y-66479500D01*
X148115663Y-66459793D01*
X148061292Y-66421214D01*
X146423292Y-64783214D01*
X146423289Y-64783211D01*
X146340976Y-64728211D01*
X146292181Y-64695607D01*
X146292174Y-64695603D01*
X146146500Y-64635264D01*
X146146498Y-64635263D01*
X146146497Y-64635263D01*
X146146495Y-64635262D01*
X146146493Y-64635262D01*
X146068125Y-64619673D01*
X145991842Y-64604500D01*
X145991841Y-64604500D01*
X143152005Y-64604500D01*
X143065662Y-64584793D01*
X143011291Y-64546214D01*
X142705291Y-64240214D01*
X142658172Y-64165226D01*
X142648256Y-64077219D01*
X142677507Y-63993626D01*
X142740131Y-63931002D01*
X142823724Y-63901751D01*
X142846005Y-63900500D01*
X142850351Y-63900500D01*
X142850352Y-63900500D01*
X143052534Y-63868477D01*
X143247219Y-63805220D01*
X143280599Y-63788212D01*
X143429599Y-63712293D01*
X143429603Y-63712290D01*
X143429610Y-63712287D01*
X143595219Y-63591966D01*
X143739966Y-63447219D01*
X143857007Y-63286123D01*
X143923699Y-63227856D01*
X144009070Y-63204294D01*
X144096211Y-63220107D01*
X144167860Y-63272163D01*
X144178984Y-63286112D01*
X144296034Y-63447219D01*
X144440781Y-63591966D01*
X144555601Y-63675387D01*
X144606390Y-63712287D01*
X144606400Y-63712293D01*
X144788768Y-63805214D01*
X144788775Y-63805216D01*
X144788781Y-63805220D01*
X144983466Y-63868477D01*
X145185648Y-63900500D01*
X145185649Y-63900500D01*
X145390351Y-63900500D01*
X145390352Y-63900500D01*
X145592534Y-63868477D01*
X145787219Y-63805220D01*
X145820599Y-63788212D01*
X145969599Y-63712293D01*
X145969603Y-63712290D01*
X145969610Y-63712287D01*
X146135219Y-63591966D01*
X146279966Y-63447219D01*
X146397007Y-63286123D01*
X146463699Y-63227856D01*
X146549070Y-63204294D01*
X146636211Y-63220107D01*
X146707860Y-63272163D01*
X146718984Y-63286112D01*
X146836034Y-63447219D01*
X146980781Y-63591966D01*
X147095601Y-63675387D01*
X147146390Y-63712287D01*
X147146400Y-63712293D01*
X147328768Y-63805214D01*
X147328775Y-63805216D01*
X147328781Y-63805220D01*
X147523466Y-63868477D01*
X147725648Y-63900500D01*
X147725649Y-63900500D01*
X147930351Y-63900500D01*
X147930352Y-63900500D01*
X148132534Y-63868477D01*
X148327219Y-63805220D01*
X148360599Y-63788212D01*
X148509599Y-63712293D01*
X148509603Y-63712290D01*
X148509610Y-63712287D01*
X148675219Y-63591966D01*
X148819966Y-63447219D01*
X148940287Y-63281610D01*
X148945101Y-63272163D01*
X149033214Y-63099231D01*
X149033214Y-63099229D01*
X149033220Y-63099219D01*
X149096477Y-62904534D01*
X149125163Y-62723419D01*
X150588000Y-62723419D01*
X150628349Y-62926271D01*
X150628350Y-62926273D01*
X150707501Y-63117360D01*
X150707503Y-63117364D01*
X150822408Y-63289332D01*
X150822414Y-63289339D01*
X150968660Y-63435585D01*
X150968667Y-63435591D01*
X151140635Y-63550496D01*
X151140636Y-63550497D01*
X151331728Y-63629650D01*
X151337999Y-63630897D01*
X151938000Y-63630897D01*
X151944271Y-63629650D01*
X152135363Y-63550497D01*
X152135364Y-63550496D01*
X152307332Y-63435591D01*
X152307339Y-63435585D01*
X152453585Y-63289339D01*
X152453591Y-63289332D01*
X152568496Y-63117364D01*
X152568498Y-63117360D01*
X152647649Y-62926273D01*
X152647650Y-62926271D01*
X152688000Y-62723419D01*
X153128000Y-62723419D01*
X153168349Y-62926271D01*
X153168350Y-62926273D01*
X153247501Y-63117360D01*
X153247503Y-63117364D01*
X153362408Y-63289332D01*
X153362414Y-63289339D01*
X153508660Y-63435585D01*
X153508667Y-63435591D01*
X153680635Y-63550496D01*
X153680636Y-63550497D01*
X153871728Y-63629650D01*
X153877999Y-63630897D01*
X153878000Y-63630896D01*
X153878000Y-62520000D01*
X153128000Y-62520000D01*
X153128000Y-62723419D01*
X152688000Y-62723419D01*
X152688000Y-62520000D01*
X151938000Y-62520000D01*
X151938000Y-63630897D01*
X151337999Y-63630897D01*
X151338000Y-63630896D01*
X151338000Y-62520000D01*
X150588000Y-62520000D01*
X150588000Y-62723419D01*
X149125163Y-62723419D01*
X149128500Y-62702352D01*
X149128500Y-62167339D01*
X151238000Y-62167339D01*
X151238000Y-62272661D01*
X151265259Y-62374394D01*
X151317920Y-62465606D01*
X151392394Y-62540080D01*
X151483606Y-62592741D01*
X151585339Y-62620000D01*
X151690661Y-62620000D01*
X151792394Y-62592741D01*
X151883606Y-62540080D01*
X151958080Y-62465606D01*
X152010741Y-62374394D01*
X152038000Y-62272661D01*
X152038000Y-62167339D01*
X152010741Y-62065606D01*
X151958080Y-61974394D01*
X151903686Y-61920000D01*
X151938000Y-61920000D01*
X152688000Y-61920000D01*
X152688000Y-61716580D01*
X152647650Y-61513728D01*
X152647649Y-61513726D01*
X152568498Y-61322639D01*
X152568496Y-61322635D01*
X152453591Y-61150667D01*
X152453585Y-61150660D01*
X152307339Y-61004414D01*
X152307332Y-61004408D01*
X152135364Y-60889503D01*
X151944271Y-60810349D01*
X151938000Y-60809101D01*
X151938000Y-61920000D01*
X151903686Y-61920000D01*
X151883606Y-61899920D01*
X151792394Y-61847259D01*
X151690661Y-61820000D01*
X151585339Y-61820000D01*
X151483606Y-61847259D01*
X151392394Y-61899920D01*
X151317920Y-61974394D01*
X151265259Y-62065606D01*
X151238000Y-62167339D01*
X149128500Y-62167339D01*
X149128500Y-61716580D01*
X150588000Y-61716580D01*
X150588000Y-61920000D01*
X151338000Y-61920000D01*
X151338000Y-60809102D01*
X151337999Y-60809101D01*
X151331728Y-60810349D01*
X151140636Y-60889503D01*
X151140635Y-60889503D01*
X150968667Y-61004408D01*
X150968660Y-61004414D01*
X150822414Y-61150660D01*
X150822408Y-61150667D01*
X150707503Y-61322635D01*
X150707501Y-61322639D01*
X150628350Y-61513726D01*
X150628349Y-61513728D01*
X150588000Y-61716580D01*
X149128500Y-61716580D01*
X149128500Y-61697648D01*
X149096477Y-61495466D01*
X149033220Y-61300781D01*
X149033216Y-61300775D01*
X149033214Y-61300768D01*
X148940293Y-61118400D01*
X148940287Y-61118390D01*
X148857475Y-61004408D01*
X148819966Y-60952781D01*
X148686785Y-60819600D01*
X148639667Y-60744611D01*
X148628500Y-60678886D01*
X148628500Y-59912114D01*
X148648207Y-59825771D01*
X148686786Y-59771400D01*
X148691047Y-59767139D01*
X148821568Y-59580734D01*
X148917739Y-59374496D01*
X148922372Y-59357208D01*
X148976632Y-59154704D01*
X148976632Y-59154701D01*
X148976635Y-59154692D01*
X148996468Y-58928000D01*
X148976635Y-58701308D01*
X148976632Y-58701295D01*
X148917741Y-58481509D01*
X148914426Y-58474400D01*
X148821568Y-58275266D01*
X148691047Y-58088861D01*
X148530139Y-57927953D01*
X148343734Y-57797432D01*
X148137496Y-57701261D01*
X148137497Y-57701261D01*
X148137490Y-57701258D01*
X147917704Y-57642367D01*
X147917692Y-57642365D01*
X147691000Y-57622532D01*
X147464307Y-57642365D01*
X147464295Y-57642367D01*
X147244509Y-57701258D01*
X147038266Y-57797432D01*
X146851858Y-57927955D01*
X146690955Y-58088858D01*
X146560432Y-58275266D01*
X146464258Y-58481509D01*
X146405367Y-58701295D01*
X146405365Y-58701307D01*
X146385532Y-58928000D01*
X146405365Y-59154692D01*
X146405367Y-59154704D01*
X146464258Y-59374490D01*
X146464261Y-59374496D01*
X146560432Y-59580734D01*
X146690953Y-59767139D01*
X146851861Y-59928047D01*
X146942640Y-59991610D01*
X147002065Y-60057277D01*
X147027113Y-60142224D01*
X147027500Y-60154622D01*
X147027500Y-60678886D01*
X147007793Y-60765229D01*
X146969215Y-60819600D01*
X146836031Y-60952784D01*
X146718995Y-61113873D01*
X146652301Y-61172143D01*
X146566929Y-61195705D01*
X146479789Y-61179891D01*
X146408139Y-61127836D01*
X146397005Y-61113873D01*
X146386513Y-61099432D01*
X146279966Y-60952781D01*
X146135219Y-60808034D01*
X146069565Y-60760334D01*
X145969609Y-60687712D01*
X145969599Y-60687706D01*
X145787231Y-60594785D01*
X145787212Y-60594777D01*
X145592536Y-60531523D01*
X145592529Y-60531522D01*
X145477735Y-60513340D01*
X145390352Y-60499500D01*
X145185648Y-60499500D01*
X145124635Y-60509163D01*
X144983470Y-60531522D01*
X144983463Y-60531523D01*
X144788787Y-60594777D01*
X144788768Y-60594785D01*
X144606400Y-60687706D01*
X144606390Y-60687712D01*
X144440783Y-60808032D01*
X144440779Y-60808035D01*
X144296035Y-60952779D01*
X144296032Y-60952783D01*
X144178995Y-61113873D01*
X144112301Y-61172143D01*
X144026929Y-61195705D01*
X143939789Y-61179891D01*
X143868139Y-61127836D01*
X143857005Y-61113873D01*
X143846513Y-61099432D01*
X143739966Y-60952781D01*
X143723786Y-60936601D01*
X143676667Y-60861613D01*
X143665500Y-60795887D01*
X143665500Y-60049114D01*
X143685207Y-59962771D01*
X143723786Y-59908400D01*
X143786576Y-59845610D01*
X143865047Y-59767139D01*
X143995568Y-59580734D01*
X144091739Y-59374496D01*
X144096372Y-59357208D01*
X144150632Y-59154704D01*
X144150632Y-59154701D01*
X144150635Y-59154692D01*
X144170468Y-58928000D01*
X144150635Y-58701308D01*
X144150632Y-58701295D01*
X144091741Y-58481509D01*
X144088426Y-58474400D01*
X143995568Y-58275266D01*
X143865047Y-58088861D01*
X143723785Y-57947599D01*
X143676667Y-57872610D01*
X143665500Y-57806885D01*
X143665500Y-55188813D01*
X143685207Y-55102470D01*
X143705691Y-55068894D01*
X143804673Y-54937821D01*
X143847580Y-54851652D01*
X147191609Y-54851652D01*
X147287239Y-54902768D01*
X147485165Y-54962808D01*
X147691000Y-54983080D01*
X147896834Y-54962808D01*
X148094760Y-54902768D01*
X148190389Y-54851652D01*
X147691001Y-54352264D01*
X147691000Y-54352264D01*
X147191609Y-54851652D01*
X143847580Y-54851652D01*
X143895582Y-54755250D01*
X143951397Y-54559083D01*
X143970215Y-54356000D01*
X143951397Y-54152917D01*
X143895582Y-53956750D01*
X143881266Y-53928000D01*
X146635919Y-53928000D01*
X146656191Y-54133834D01*
X146716233Y-54331764D01*
X146767345Y-54427389D01*
X146767346Y-54427389D01*
X147266736Y-53928000D01*
X147266736Y-53927999D01*
X147214076Y-53875339D01*
X147291000Y-53875339D01*
X147291000Y-53980661D01*
X147318259Y-54082394D01*
X147370920Y-54173606D01*
X147445394Y-54248080D01*
X147536606Y-54300741D01*
X147638339Y-54328000D01*
X147743661Y-54328000D01*
X147845394Y-54300741D01*
X147936606Y-54248080D01*
X148011080Y-54173606D01*
X148063741Y-54082394D01*
X148091000Y-53980661D01*
X148091000Y-53927999D01*
X148115264Y-53927999D01*
X148115264Y-53928000D01*
X148614652Y-54427388D01*
X148665768Y-54331760D01*
X148725808Y-54133834D01*
X148746080Y-53928000D01*
X148725808Y-53722165D01*
X148665768Y-53524239D01*
X148614652Y-53428609D01*
X148115264Y-53927999D01*
X148091000Y-53927999D01*
X148091000Y-53875339D01*
X148063741Y-53773606D01*
X148011080Y-53682394D01*
X147936606Y-53607920D01*
X147845394Y-53555259D01*
X147743661Y-53528000D01*
X147638339Y-53528000D01*
X147536606Y-53555259D01*
X147445394Y-53607920D01*
X147370920Y-53682394D01*
X147318259Y-53773606D01*
X147291000Y-53875339D01*
X147214076Y-53875339D01*
X146767346Y-53428609D01*
X146716231Y-53524239D01*
X146656191Y-53722165D01*
X146635919Y-53928000D01*
X143881266Y-53928000D01*
X143804673Y-53774179D01*
X143804671Y-53774176D01*
X143804670Y-53774174D01*
X143681766Y-53611424D01*
X143681758Y-53611414D01*
X143531042Y-53474020D01*
X143531037Y-53474016D01*
X143357639Y-53366652D01*
X143357636Y-53366651D01*
X143167460Y-53292977D01*
X143167457Y-53292976D01*
X143167456Y-53292976D01*
X142966976Y-53255500D01*
X142763024Y-53255500D01*
X142562544Y-53292976D01*
X142562542Y-53292976D01*
X142562540Y-53292977D01*
X142562538Y-53292977D01*
X142372363Y-53366651D01*
X142372360Y-53366652D01*
X142198962Y-53474016D01*
X142198957Y-53474020D01*
X142048241Y-53611414D01*
X142048233Y-53611424D01*
X141925328Y-53774176D01*
X141925327Y-53774178D01*
X141864430Y-53896475D01*
X141808302Y-53964981D01*
X141728009Y-54002350D01*
X141660321Y-54005070D01*
X141642534Y-54002728D01*
X141289264Y-54356000D01*
X141289264Y-54356001D01*
X141642532Y-54709269D01*
X141660327Y-54706928D01*
X141748503Y-54715201D01*
X141824358Y-54760912D01*
X141864430Y-54815525D01*
X141925324Y-54937817D01*
X141925324Y-54937818D01*
X141944196Y-54962808D01*
X142024306Y-55068890D01*
X142060612Y-55149667D01*
X142064500Y-55188813D01*
X142064500Y-57806885D01*
X142044793Y-57893228D01*
X142006215Y-57947599D01*
X141864949Y-58088865D01*
X141758011Y-58241590D01*
X141692344Y-58301015D01*
X141607397Y-58326063D01*
X141519994Y-58311772D01*
X141447447Y-58260975D01*
X141431989Y-58241590D01*
X141325049Y-58088863D01*
X141164141Y-57927955D01*
X141164139Y-57927953D01*
X140977734Y-57797432D01*
X140771496Y-57701261D01*
X140771497Y-57701261D01*
X140771490Y-57701258D01*
X140551704Y-57642367D01*
X140551692Y-57642365D01*
X140325000Y-57622532D01*
X140098307Y-57642365D01*
X140098295Y-57642367D01*
X139878509Y-57701258D01*
X139672266Y-57797432D01*
X139485858Y-57927955D01*
X139324955Y-58088858D01*
X139194432Y-58275266D01*
X139098258Y-58481509D01*
X139039367Y-58701295D01*
X139039365Y-58701307D01*
X139019532Y-58928000D01*
X139039365Y-59154692D01*
X139039367Y-59154704D01*
X139098258Y-59374490D01*
X139098261Y-59374496D01*
X139194432Y-59580734D01*
X139324953Y-59767139D01*
X139324955Y-59767141D01*
X139466214Y-59908400D01*
X139513333Y-59983388D01*
X139524500Y-60049114D01*
X139524500Y-60587689D01*
X139504793Y-60674032D01*
X139449574Y-60743273D01*
X139442470Y-60748683D01*
X139360780Y-60808034D01*
X139216035Y-60952779D01*
X139216032Y-60952783D01*
X139095712Y-61118390D01*
X139095706Y-61118400D01*
X139002786Y-61300766D01*
X139000353Y-61306643D01*
X138949108Y-61378875D01*
X138871598Y-61421719D01*
X138816496Y-61429500D01*
X137509114Y-61429500D01*
X137422771Y-61409793D01*
X137368402Y-61371216D01*
X137246785Y-61249599D01*
X137199667Y-61174610D01*
X137188500Y-61108885D01*
X137188500Y-60354318D01*
X137208207Y-60267975D01*
X137224489Y-60240176D01*
X137348100Y-60063642D01*
X137348102Y-60063638D01*
X137348126Y-60063587D01*
X137440575Y-59865330D01*
X137497207Y-59653977D01*
X137516277Y-59436000D01*
X137497207Y-59218023D01*
X137440575Y-59006670D01*
X137435746Y-58996315D01*
X137348103Y-58808364D01*
X137313194Y-58758509D01*
X137222598Y-58629123D01*
X137067877Y-58474402D01*
X137067876Y-58474401D01*
X137067875Y-58474400D01*
X136888642Y-58348899D01*
X136888638Y-58348897D01*
X136690335Y-58256427D01*
X136690328Y-58256424D01*
X136478979Y-58199793D01*
X136478972Y-58199792D01*
X136312709Y-58185246D01*
X136261000Y-58180723D01*
X136260999Y-58180723D01*
X136260998Y-58180723D01*
X136260991Y-58180723D01*
X136240145Y-58182546D01*
X136152414Y-58170436D01*
X136082095Y-58125017D01*
X135247292Y-57290214D01*
X135247289Y-57290211D01*
X135172778Y-57240424D01*
X135116181Y-57202607D01*
X135116174Y-57202603D01*
X134970500Y-57142264D01*
X134970498Y-57142263D01*
X134970497Y-57142263D01*
X134970495Y-57142262D01*
X134970493Y-57142262D01*
X134874571Y-57123182D01*
X134815842Y-57111500D01*
X134815841Y-57111500D01*
X132887273Y-57111500D01*
X132800930Y-57091793D01*
X132731689Y-57036574D01*
X132712615Y-57007870D01*
X132614230Y-56827691D01*
X132545800Y-56736279D01*
X132442739Y-56598605D01*
X132442733Y-56598599D01*
X132442731Y-56598596D01*
X132240403Y-56396268D01*
X132240399Y-56396265D01*
X132240395Y-56396261D01*
X132011315Y-56224774D01*
X132011311Y-56224771D01*
X131760161Y-56087633D01*
X131492048Y-55987631D01*
X131212425Y-55926803D01*
X131212428Y-55926803D01*
X130927000Y-55906390D01*
X130641572Y-55926803D01*
X130361951Y-55987631D01*
X130093838Y-56087633D01*
X129842688Y-56224771D01*
X129613596Y-56396268D01*
X129411268Y-56598596D01*
X129411262Y-56598603D01*
X129411261Y-56598605D01*
X129366967Y-56657774D01*
X129239771Y-56827688D01*
X129102633Y-57078838D01*
X129002631Y-57346951D01*
X128941803Y-57626572D01*
X128921390Y-57912000D01*
X127030500Y-57912000D01*
X127030500Y-55130502D01*
X140514760Y-55130502D01*
X140600888Y-55168850D01*
X140600894Y-55168852D01*
X140775658Y-55205999D01*
X140775659Y-55206000D01*
X140954341Y-55206000D01*
X140954341Y-55205999D01*
X141129108Y-55168851D01*
X141215239Y-55130502D01*
X140865001Y-54780264D01*
X140514760Y-55130502D01*
X127030500Y-55130502D01*
X127030500Y-51307376D01*
X129177000Y-51307376D01*
X129177000Y-52532000D01*
X130228646Y-52532000D01*
X130196207Y-52610316D01*
X130167000Y-52757147D01*
X130167000Y-52906853D01*
X130196207Y-53053684D01*
X130228646Y-53132000D01*
X129177000Y-53132000D01*
X129177000Y-54356623D01*
X129191505Y-54429545D01*
X129191505Y-54429546D01*
X129246759Y-54512239D01*
X129246760Y-54512240D01*
X129329453Y-54567494D01*
X129402377Y-54582000D01*
X130627000Y-54582000D01*
X130627000Y-53530353D01*
X130705316Y-53562793D01*
X130852147Y-53592000D01*
X131001853Y-53592000D01*
X131148684Y-53562793D01*
X131227000Y-53530353D01*
X131227000Y-54582000D01*
X132451623Y-54582000D01*
X132524545Y-54567494D01*
X132524546Y-54567494D01*
X132607239Y-54512240D01*
X132607240Y-54512239D01*
X132662494Y-54429546D01*
X132662494Y-54429545D01*
X132677000Y-54356623D01*
X132677000Y-54356000D01*
X140010318Y-54356000D01*
X140028994Y-54533698D01*
X140028995Y-54533700D01*
X140084208Y-54703628D01*
X140084210Y-54703632D01*
X140087464Y-54709269D01*
X140440735Y-54355999D01*
X140401240Y-54316504D01*
X140565000Y-54316504D01*
X140565000Y-54395496D01*
X140585444Y-54471796D01*
X140624940Y-54540205D01*
X140680795Y-54596060D01*
X140749204Y-54635556D01*
X140825504Y-54656000D01*
X140904496Y-54656000D01*
X140980796Y-54635556D01*
X141049205Y-54596060D01*
X141105060Y-54540205D01*
X141144556Y-54471796D01*
X141165000Y-54395496D01*
X141165000Y-54316504D01*
X141144556Y-54240204D01*
X141105060Y-54171795D01*
X141049205Y-54115940D01*
X140980796Y-54076444D01*
X140904496Y-54056000D01*
X140825504Y-54056000D01*
X140749204Y-54076444D01*
X140680795Y-54115940D01*
X140624940Y-54171795D01*
X140585444Y-54240204D01*
X140565000Y-54316504D01*
X140401240Y-54316504D01*
X140087465Y-54002728D01*
X140087465Y-54002729D01*
X140084208Y-54008371D01*
X140028995Y-54178299D01*
X140028994Y-54178301D01*
X140010318Y-54356000D01*
X132677000Y-54356000D01*
X132677000Y-53581496D01*
X140514759Y-53581496D01*
X140864999Y-53931735D01*
X141215238Y-53581495D01*
X141129115Y-53543150D01*
X141129105Y-53543147D01*
X140954341Y-53506000D01*
X140775659Y-53506000D01*
X140600890Y-53543148D01*
X140514759Y-53581496D01*
X132677000Y-53581496D01*
X132677000Y-53132000D01*
X131625354Y-53132000D01*
X131657793Y-53053684D01*
X131667607Y-53004346D01*
X147191609Y-53004346D01*
X147691000Y-53503736D01*
X147691001Y-53503736D01*
X148190389Y-53004346D01*
X148190389Y-53004345D01*
X148094764Y-52953233D01*
X147896834Y-52893191D01*
X147691000Y-52872919D01*
X147485165Y-52893191D01*
X147287239Y-52953231D01*
X147191609Y-53004346D01*
X131667607Y-53004346D01*
X131687000Y-52906853D01*
X131687000Y-52757147D01*
X131657793Y-52610316D01*
X131625354Y-52532000D01*
X132677000Y-52532000D01*
X132677000Y-51307376D01*
X132662494Y-51234454D01*
X132662494Y-51234453D01*
X132607240Y-51151760D01*
X132607239Y-51151759D01*
X132524546Y-51096505D01*
X132451623Y-51082000D01*
X131227000Y-51082000D01*
X131227000Y-52133646D01*
X131148684Y-52101207D01*
X131001853Y-52072000D01*
X130852147Y-52072000D01*
X130705316Y-52101207D01*
X130627000Y-52133646D01*
X130627000Y-51082000D01*
X129402377Y-51082000D01*
X129329454Y-51096505D01*
X129329453Y-51096505D01*
X129246760Y-51151759D01*
X129246759Y-51151760D01*
X129191505Y-51234453D01*
X129191505Y-51234454D01*
X129177000Y-51307376D01*
X127030500Y-51307376D01*
X127030500Y-48559999D01*
X129101385Y-48559999D01*
X129132862Y-48663763D01*
X129230359Y-48846169D01*
X129361573Y-49006054D01*
X129521458Y-49137268D01*
X129703865Y-49234766D01*
X129807629Y-49266241D01*
X129807629Y-48559999D01*
X129101385Y-48559999D01*
X127030500Y-48559999D01*
X127030500Y-47959998D01*
X129101385Y-47959998D01*
X129101386Y-47959999D01*
X129807629Y-47959999D01*
X129807629Y-47253756D01*
X129807628Y-47253755D01*
X129703864Y-47285232D01*
X129521458Y-47382729D01*
X129361573Y-47513943D01*
X129230359Y-47673828D01*
X129132862Y-47856234D01*
X129101385Y-47959998D01*
X127030500Y-47959998D01*
X127030500Y-44071291D01*
X144767555Y-44071291D01*
X145230000Y-44533736D01*
X145230001Y-44533736D01*
X145692443Y-44071292D01*
X145614535Y-44029650D01*
X145426037Y-43972470D01*
X145230000Y-43953161D01*
X145033962Y-43972470D01*
X144845460Y-44029651D01*
X144767555Y-44071291D01*
X127030500Y-44071291D01*
X127030500Y-41391500D01*
X127050207Y-41305157D01*
X127105426Y-41235916D01*
X127185218Y-41197489D01*
X127229500Y-41192500D01*
X174934000Y-41192500D01*
X175020343Y-41212207D01*
G37*
%TD.AperFunction*%
%TD*%
%TA.AperFunction,Conductor*%
%TO.N,GND1*%
G36*
X190175344Y-53900142D02*
G01*
X190210185Y-53927927D01*
X190328120Y-54045862D01*
X190507357Y-54171366D01*
X190507361Y-54171368D01*
X190705670Y-54263841D01*
X190917023Y-54320473D01*
X191135000Y-54339543D01*
X191352977Y-54320473D01*
X191564330Y-54263841D01*
X191762639Y-54171368D01*
X191941877Y-54045864D01*
X191981961Y-54005780D01*
X192044690Y-53943052D01*
X192119678Y-53895933D01*
X192185404Y-53884766D01*
X193730875Y-53884766D01*
X193817218Y-53904473D01*
X193886459Y-53959692D01*
X193917327Y-54014219D01*
X193929129Y-54045862D01*
X193936205Y-54064833D01*
X193936207Y-54064835D01*
X194022453Y-54180046D01*
X194086138Y-54227720D01*
X194137669Y-54266296D01*
X194207926Y-54292500D01*
X194211240Y-54293736D01*
X194285252Y-54342374D01*
X194330831Y-54418308D01*
X194338950Y-54506499D01*
X194308001Y-54589478D01*
X194282412Y-54620902D01*
X194199602Y-54703713D01*
X194124614Y-54750832D01*
X194058887Y-54762000D01*
X193910281Y-54762000D01*
X193823938Y-54742293D01*
X193769566Y-54703713D01*
X193708649Y-54642795D01*
X193529413Y-54517292D01*
X193529409Y-54517290D01*
X193331106Y-54424820D01*
X193331099Y-54424817D01*
X193119750Y-54368186D01*
X193119743Y-54368185D01*
X192901771Y-54349116D01*
X192683798Y-54368185D01*
X192683791Y-54368186D01*
X192472442Y-54424817D01*
X192472436Y-54424819D01*
X192274135Y-54517289D01*
X192094898Y-54642791D01*
X192094890Y-54642798D01*
X191940176Y-54797512D01*
X191940169Y-54797520D01*
X191814667Y-54976757D01*
X191722197Y-55175058D01*
X191722195Y-55175064D01*
X191665564Y-55386413D01*
X191665563Y-55386420D01*
X191646494Y-55604393D01*
X191665563Y-55822365D01*
X191665564Y-55822372D01*
X191722195Y-56033721D01*
X191722198Y-56033728D01*
X191814668Y-56232031D01*
X191814670Y-56232035D01*
X191940174Y-56411272D01*
X192094891Y-56565989D01*
X192274128Y-56691493D01*
X192274132Y-56691495D01*
X192472441Y-56783968D01*
X192683794Y-56840600D01*
X192901771Y-56859670D01*
X193119748Y-56840600D01*
X193331101Y-56783968D01*
X193529410Y-56691495D01*
X193708648Y-56565991D01*
X193737371Y-56537268D01*
X193853354Y-56421286D01*
X193928342Y-56374167D01*
X193994068Y-56363000D01*
X194058887Y-56363000D01*
X194145230Y-56382707D01*
X194199601Y-56421286D01*
X194332781Y-56554466D01*
X194398873Y-56602484D01*
X194493873Y-56671505D01*
X194552143Y-56738199D01*
X194575705Y-56823571D01*
X194559891Y-56910711D01*
X194507836Y-56982361D01*
X194493873Y-56993495D01*
X194332783Y-57110532D01*
X194332779Y-57110535D01*
X194188035Y-57255279D01*
X194188032Y-57255283D01*
X194067712Y-57420890D01*
X194067706Y-57420900D01*
X193974785Y-57603268D01*
X193974777Y-57603287D01*
X193911523Y-57797963D01*
X193911522Y-57797970D01*
X193879500Y-58000149D01*
X193879500Y-58204850D01*
X193911522Y-58407029D01*
X193911523Y-58407036D01*
X193974777Y-58601712D01*
X193974785Y-58601731D01*
X194067706Y-58784099D01*
X194067712Y-58784109D01*
X194107383Y-58838712D01*
X194188034Y-58949719D01*
X194332781Y-59094466D01*
X194474379Y-59197342D01*
X194493873Y-59211505D01*
X194552143Y-59278199D01*
X194575705Y-59363571D01*
X194559891Y-59450711D01*
X194507836Y-59522361D01*
X194493873Y-59533495D01*
X194332783Y-59650532D01*
X194332779Y-59650535D01*
X194188035Y-59795279D01*
X194188032Y-59795283D01*
X194067712Y-59960890D01*
X194067706Y-59960900D01*
X193974785Y-60143268D01*
X193974777Y-60143287D01*
X193911523Y-60337963D01*
X193911522Y-60337970D01*
X193879500Y-60540149D01*
X193879500Y-60744850D01*
X193911522Y-60947029D01*
X193911523Y-60947036D01*
X193974777Y-61141712D01*
X193974785Y-61141731D01*
X194067706Y-61324099D01*
X194067712Y-61324109D01*
X194118898Y-61394561D01*
X194188034Y-61489719D01*
X194332781Y-61634466D01*
X194493873Y-61751505D01*
X194498390Y-61754787D01*
X194498400Y-61754793D01*
X194680768Y-61847714D01*
X194680775Y-61847717D01*
X194680781Y-61847720D01*
X194715777Y-61859091D01*
X194791801Y-61904512D01*
X194840592Y-61978424D01*
X194852481Y-62066185D01*
X194825115Y-62150415D01*
X194763913Y-62214429D01*
X194730439Y-62232201D01*
X194682638Y-62252001D01*
X194682635Y-62252003D01*
X194510667Y-62366908D01*
X194510660Y-62366914D01*
X194364414Y-62513160D01*
X194364408Y-62513167D01*
X194249503Y-62685135D01*
X194249503Y-62685136D01*
X194170349Y-62876228D01*
X194169101Y-62882499D01*
X194169102Y-62882500D01*
X195314314Y-62882500D01*
X195259920Y-62936894D01*
X195207259Y-63028106D01*
X195180000Y-63129839D01*
X195180000Y-63235161D01*
X195207259Y-63336894D01*
X195259920Y-63428106D01*
X195314314Y-63482500D01*
X194169101Y-63482500D01*
X194158728Y-63495139D01*
X194088719Y-63549381D01*
X194002108Y-63567874D01*
X193916050Y-63546958D01*
X193864186Y-63509608D01*
X192915292Y-62560714D01*
X192915289Y-62560711D01*
X192825761Y-62500890D01*
X192784181Y-62473107D01*
X192784174Y-62473103D01*
X192638500Y-62412764D01*
X192638498Y-62412763D01*
X192638497Y-62412763D01*
X192638495Y-62412762D01*
X192638493Y-62412762D01*
X192560125Y-62397173D01*
X192483842Y-62382000D01*
X192483841Y-62382000D01*
X190116113Y-62382000D01*
X190029770Y-62362293D01*
X189975399Y-62323714D01*
X189842220Y-62190535D01*
X189842216Y-62190532D01*
X189767552Y-62136286D01*
X189681123Y-62073492D01*
X189622856Y-62006801D01*
X189599294Y-61921430D01*
X189615107Y-61834289D01*
X189667163Y-61762640D01*
X189681112Y-61751515D01*
X189842219Y-61634466D01*
X189986966Y-61489719D01*
X190107287Y-61324110D01*
X190137767Y-61264291D01*
X190200214Y-61141731D01*
X190200214Y-61141729D01*
X190200220Y-61141719D01*
X190263477Y-60947034D01*
X190295500Y-60744852D01*
X190295500Y-60540148D01*
X190263477Y-60337966D01*
X190200220Y-60143281D01*
X190200216Y-60143275D01*
X190200214Y-60143268D01*
X190107293Y-59960900D01*
X190107287Y-59960890D01*
X190020909Y-59842000D01*
X189986966Y-59795281D01*
X189842219Y-59650534D01*
X189681123Y-59533492D01*
X189622856Y-59466801D01*
X189599294Y-59381430D01*
X189615107Y-59294289D01*
X189667163Y-59222640D01*
X189681112Y-59211515D01*
X189842219Y-59094466D01*
X189986966Y-58949719D01*
X190107287Y-58784110D01*
X190135121Y-58729484D01*
X190200214Y-58601731D01*
X190200214Y-58601729D01*
X190200220Y-58601719D01*
X190263477Y-58407034D01*
X190295500Y-58204852D01*
X190295500Y-58000148D01*
X190263477Y-57797966D01*
X190200220Y-57603281D01*
X190200216Y-57603275D01*
X190200214Y-57603268D01*
X190107293Y-57420900D01*
X190107287Y-57420890D01*
X190087171Y-57393203D01*
X189986966Y-57255281D01*
X189842219Y-57110534D01*
X189681123Y-56993492D01*
X189622856Y-56926801D01*
X189599294Y-56841430D01*
X189615107Y-56754289D01*
X189667163Y-56682640D01*
X189681112Y-56671515D01*
X189842219Y-56554466D01*
X189986966Y-56409719D01*
X190107287Y-56244110D01*
X190110648Y-56237515D01*
X190200214Y-56061731D01*
X190200214Y-56061729D01*
X190200220Y-56061719D01*
X190263477Y-55867034D01*
X190295500Y-55664852D01*
X190295500Y-55460148D01*
X190263477Y-55257966D01*
X190200220Y-55063281D01*
X190200216Y-55063275D01*
X190200214Y-55063268D01*
X190107293Y-54880900D01*
X190107287Y-54880890D01*
X190052877Y-54806001D01*
X189986966Y-54715281D01*
X189842219Y-54570534D01*
X189681123Y-54453492D01*
X189622856Y-54386801D01*
X189599294Y-54301430D01*
X189615107Y-54214289D01*
X189667163Y-54142640D01*
X189681112Y-54131515D01*
X189842219Y-54014466D01*
X189928758Y-53927926D01*
X190003744Y-53880809D01*
X190091751Y-53870892D01*
X190175344Y-53900142D01*
G37*
%TD.AperFunction*%
%TA.AperFunction,Conductor*%
G36*
X225916843Y-41212207D02*
G01*
X225986084Y-41267426D01*
X226024511Y-41347218D01*
X226029500Y-41391500D01*
X226029500Y-74992500D01*
X226009793Y-75078843D01*
X225954574Y-75148084D01*
X225874782Y-75186511D01*
X225830500Y-75191500D01*
X176596476Y-75191500D01*
X176510133Y-75171793D01*
X176440892Y-75116574D01*
X176402465Y-75036782D01*
X176397481Y-74993947D01*
X176390750Y-74065118D01*
X176409831Y-73978640D01*
X176417406Y-73964181D01*
X176488391Y-73841231D01*
X176488392Y-73841230D01*
X176522500Y-73713936D01*
X176522500Y-71102500D01*
X179564102Y-71102500D01*
X179565349Y-71108771D01*
X179644503Y-71299863D01*
X179644503Y-71299864D01*
X179759408Y-71471832D01*
X179759414Y-71471839D01*
X179905660Y-71618085D01*
X179905667Y-71618091D01*
X180077635Y-71732996D01*
X180077639Y-71732998D01*
X180268726Y-71812149D01*
X180268728Y-71812150D01*
X180471581Y-71852500D01*
X180675000Y-71852500D01*
X181275000Y-71852500D01*
X181478419Y-71852500D01*
X181681271Y-71812150D01*
X181681273Y-71812149D01*
X181872360Y-71732998D01*
X181872364Y-71732996D01*
X182044332Y-71618091D01*
X182044339Y-71618085D01*
X182190585Y-71471839D01*
X182190591Y-71471832D01*
X182305496Y-71299864D01*
X182305496Y-71299863D01*
X182384650Y-71108771D01*
X182385898Y-71102500D01*
X181275000Y-71102500D01*
X181275000Y-71852500D01*
X180675000Y-71852500D01*
X180675000Y-71102500D01*
X179564102Y-71102500D01*
X176522500Y-71102500D01*
X176522500Y-49634627D01*
X179274500Y-49634627D01*
X179274500Y-49634628D01*
X179274500Y-49634632D01*
X179274500Y-51330376D01*
X179280908Y-51389981D01*
X179331203Y-51524829D01*
X179331207Y-51524835D01*
X179417453Y-51640046D01*
X179481138Y-51687720D01*
X179532669Y-51726296D01*
X179606240Y-51753736D01*
X179680252Y-51802374D01*
X179725831Y-51878308D01*
X179733950Y-51966499D01*
X179703001Y-52049478D01*
X179677412Y-52080903D01*
X179583031Y-52175284D01*
X179462712Y-52340890D01*
X179462706Y-52340900D01*
X179369785Y-52523268D01*
X179369777Y-52523287D01*
X179306523Y-52717963D01*
X179306523Y-52717966D01*
X179274500Y-52920148D01*
X179274500Y-53124852D01*
X179278042Y-53147215D01*
X179306522Y-53327029D01*
X179306523Y-53327036D01*
X179369777Y-53521712D01*
X179369785Y-53521731D01*
X179462706Y-53704099D01*
X179462712Y-53704109D01*
X179462713Y-53704110D01*
X179583034Y-53869719D01*
X179727781Y-54014466D01*
X179888873Y-54131505D01*
X179947143Y-54198199D01*
X179970705Y-54283571D01*
X179954891Y-54370711D01*
X179902836Y-54442361D01*
X179888876Y-54453492D01*
X179851004Y-54481008D01*
X179727783Y-54570532D01*
X179727779Y-54570535D01*
X179583035Y-54715279D01*
X179583032Y-54715283D01*
X179462712Y-54880890D01*
X179462706Y-54880900D01*
X179369785Y-55063268D01*
X179369777Y-55063287D01*
X179306523Y-55257963D01*
X179306522Y-55257970D01*
X179294196Y-55335795D01*
X179274500Y-55460148D01*
X179274500Y-55664852D01*
X179277883Y-55686208D01*
X179306522Y-55867029D01*
X179306523Y-55867036D01*
X179369777Y-56061712D01*
X179369785Y-56061731D01*
X179462706Y-56244099D01*
X179462712Y-56244109D01*
X179471761Y-56256564D01*
X179583034Y-56409719D01*
X179727781Y-56554466D01*
X179793873Y-56602484D01*
X179888873Y-56671505D01*
X179947143Y-56738199D01*
X179970705Y-56823571D01*
X179954891Y-56910711D01*
X179902836Y-56982361D01*
X179888873Y-56993495D01*
X179727783Y-57110532D01*
X179727779Y-57110535D01*
X179583035Y-57255279D01*
X179583032Y-57255283D01*
X179462712Y-57420890D01*
X179462706Y-57420900D01*
X179369785Y-57603268D01*
X179369777Y-57603287D01*
X179306523Y-57797963D01*
X179306522Y-57797970D01*
X179274500Y-58000149D01*
X179274500Y-58204850D01*
X179306522Y-58407029D01*
X179306523Y-58407036D01*
X179369777Y-58601712D01*
X179369785Y-58601731D01*
X179462706Y-58784099D01*
X179462712Y-58784109D01*
X179502383Y-58838712D01*
X179583034Y-58949719D01*
X179727781Y-59094466D01*
X179869379Y-59197342D01*
X179888873Y-59211505D01*
X179947143Y-59278199D01*
X179970705Y-59363571D01*
X179954891Y-59450711D01*
X179902836Y-59522361D01*
X179888873Y-59533495D01*
X179727783Y-59650532D01*
X179727779Y-59650535D01*
X179583035Y-59795279D01*
X179583032Y-59795283D01*
X179462712Y-59960890D01*
X179462706Y-59960900D01*
X179369785Y-60143268D01*
X179369777Y-60143287D01*
X179306523Y-60337963D01*
X179306522Y-60337970D01*
X179274500Y-60540149D01*
X179274500Y-60744850D01*
X179306522Y-60947029D01*
X179306523Y-60947036D01*
X179369777Y-61141712D01*
X179369785Y-61141731D01*
X179462706Y-61324099D01*
X179462712Y-61324109D01*
X179513898Y-61394561D01*
X179583034Y-61489719D01*
X179727781Y-61634466D01*
X179888873Y-61751505D01*
X179947143Y-61818199D01*
X179970705Y-61903571D01*
X179954891Y-61990711D01*
X179902836Y-62062361D01*
X179888873Y-62073495D01*
X179727783Y-62190532D01*
X179727779Y-62190535D01*
X179583035Y-62335279D01*
X179583032Y-62335283D01*
X179462712Y-62500890D01*
X179462706Y-62500900D01*
X179369785Y-62683268D01*
X179369777Y-62683287D01*
X179306523Y-62877963D01*
X179306522Y-62877970D01*
X179274500Y-63080149D01*
X179274500Y-63284850D01*
X179306522Y-63487029D01*
X179306523Y-63487036D01*
X179369777Y-63681712D01*
X179369785Y-63681731D01*
X179462706Y-63864099D01*
X179462712Y-63864109D01*
X179462713Y-63864110D01*
X179583034Y-64029719D01*
X179727781Y-64174466D01*
X179798448Y-64225808D01*
X179888873Y-64291505D01*
X179947143Y-64358199D01*
X179970705Y-64443571D01*
X179954891Y-64530711D01*
X179902836Y-64602361D01*
X179888873Y-64613495D01*
X179727783Y-64730532D01*
X179727779Y-64730535D01*
X179583035Y-64875279D01*
X179583032Y-64875283D01*
X179462712Y-65040890D01*
X179462706Y-65040900D01*
X179369785Y-65223268D01*
X179369777Y-65223287D01*
X179306523Y-65417963D01*
X179306522Y-65417970D01*
X179274500Y-65620149D01*
X179274500Y-65824850D01*
X179306522Y-66027029D01*
X179306523Y-66027036D01*
X179369777Y-66221712D01*
X179369785Y-66221731D01*
X179462706Y-66404099D01*
X179462712Y-66404109D01*
X179462713Y-66404110D01*
X179583034Y-66569719D01*
X179727781Y-66714466D01*
X179882672Y-66827000D01*
X179888873Y-66831505D01*
X179947143Y-66898199D01*
X179970705Y-66983571D01*
X179954891Y-67070711D01*
X179902836Y-67142361D01*
X179888876Y-67153492D01*
X179851004Y-67181008D01*
X179727783Y-67270532D01*
X179727779Y-67270535D01*
X179583035Y-67415279D01*
X179583032Y-67415283D01*
X179462712Y-67580890D01*
X179462706Y-67580900D01*
X179369785Y-67763268D01*
X179369777Y-67763287D01*
X179306523Y-67957963D01*
X179306523Y-67957966D01*
X179274500Y-68160148D01*
X179274500Y-68364852D01*
X179292814Y-68480479D01*
X179306522Y-68567029D01*
X179306523Y-68567036D01*
X179369777Y-68761712D01*
X179369785Y-68761731D01*
X179462706Y-68944099D01*
X179462712Y-68944109D01*
X179462713Y-68944110D01*
X179583034Y-69109719D01*
X179727781Y-69254466D01*
X179858723Y-69349600D01*
X179893390Y-69374787D01*
X179893400Y-69374793D01*
X180075768Y-69467714D01*
X180075775Y-69467717D01*
X180075781Y-69467720D01*
X180110777Y-69479091D01*
X180186801Y-69524512D01*
X180235592Y-69598424D01*
X180247481Y-69686185D01*
X180220115Y-69770415D01*
X180158913Y-69834429D01*
X180125439Y-69852201D01*
X180077638Y-69872001D01*
X180077635Y-69872003D01*
X179905667Y-69986908D01*
X179905660Y-69986914D01*
X179759414Y-70133160D01*
X179759408Y-70133167D01*
X179644503Y-70305135D01*
X179644503Y-70305136D01*
X179565349Y-70496228D01*
X179564101Y-70502499D01*
X179564102Y-70502500D01*
X180709314Y-70502500D01*
X180654920Y-70556894D01*
X180602259Y-70648106D01*
X180575000Y-70749839D01*
X180575000Y-70855161D01*
X180602259Y-70956894D01*
X180654920Y-71048106D01*
X180729394Y-71122580D01*
X180820606Y-71175241D01*
X180922339Y-71202500D01*
X181027661Y-71202500D01*
X181129394Y-71175241D01*
X181220606Y-71122580D01*
X181295080Y-71048106D01*
X181347741Y-70956894D01*
X181375000Y-70855161D01*
X181375000Y-70749839D01*
X181347741Y-70648106D01*
X181295080Y-70556894D01*
X181240686Y-70502500D01*
X182385898Y-70502500D01*
X182385898Y-70502499D01*
X182384650Y-70496228D01*
X182305496Y-70305136D01*
X182305496Y-70305135D01*
X182190591Y-70133167D01*
X182190585Y-70133160D01*
X182044339Y-69986914D01*
X182044332Y-69986908D01*
X181872364Y-69872003D01*
X181872358Y-69871999D01*
X181824561Y-69852201D01*
X181752333Y-69800951D01*
X181709494Y-69723438D01*
X181704529Y-69635014D01*
X181738422Y-69553192D01*
X181804459Y-69494179D01*
X181839212Y-69479094D01*
X181874219Y-69467720D01*
X181924556Y-69442072D01*
X182056599Y-69374793D01*
X182056603Y-69374790D01*
X182056610Y-69374787D01*
X182222219Y-69254466D01*
X182366966Y-69109719D01*
X182487287Y-68944110D01*
X182492965Y-68932968D01*
X182580214Y-68761731D01*
X182580214Y-68761729D01*
X182580220Y-68761719D01*
X182643477Y-68567034D01*
X182675500Y-68364852D01*
X182675500Y-68160148D01*
X182643477Y-67957966D01*
X182580220Y-67763281D01*
X182580216Y-67763275D01*
X182580214Y-67763268D01*
X182487293Y-67580900D01*
X182487287Y-67580890D01*
X182396276Y-67455623D01*
X182366966Y-67415281D01*
X182222219Y-67270534D01*
X182061123Y-67153492D01*
X182002856Y-67086801D01*
X181979294Y-67001430D01*
X181995107Y-66914289D01*
X182047163Y-66842640D01*
X182061112Y-66831515D01*
X182222219Y-66714466D01*
X182366966Y-66569719D01*
X182487287Y-66404110D01*
X182488994Y-66400761D01*
X182580214Y-66221731D01*
X182580214Y-66221729D01*
X182580220Y-66221719D01*
X182643477Y-66027034D01*
X182675500Y-65824852D01*
X182675500Y-65620148D01*
X182643477Y-65417966D01*
X182602431Y-65291639D01*
X182580222Y-65223287D01*
X182580221Y-65223286D01*
X182580220Y-65223281D01*
X182580216Y-65223275D01*
X182580214Y-65223268D01*
X182487293Y-65040900D01*
X182487287Y-65040890D01*
X182366966Y-64875281D01*
X182222219Y-64730534D01*
X182061123Y-64613492D01*
X182002856Y-64546801D01*
X181979294Y-64461430D01*
X181995107Y-64374289D01*
X182047163Y-64302640D01*
X182061112Y-64291515D01*
X182222219Y-64174466D01*
X182366966Y-64029719D01*
X182487287Y-63864110D01*
X182493540Y-63851839D01*
X182580214Y-63681731D01*
X182580214Y-63681729D01*
X182580220Y-63681719D01*
X182643477Y-63487034D01*
X182675500Y-63284852D01*
X182675500Y-63080148D01*
X182643477Y-62877966D01*
X182580220Y-62683281D01*
X182580216Y-62683275D01*
X182580214Y-62683268D01*
X182487293Y-62500900D01*
X182487287Y-62500890D01*
X182423260Y-62412764D01*
X182366966Y-62335281D01*
X182222219Y-62190534D01*
X182061123Y-62073492D01*
X182002856Y-62006801D01*
X181979294Y-61921430D01*
X181995107Y-61834289D01*
X182047163Y-61762640D01*
X182061112Y-61751515D01*
X182222219Y-61634466D01*
X182366966Y-61489719D01*
X182487287Y-61324110D01*
X182517767Y-61264291D01*
X182580214Y-61141731D01*
X182580214Y-61141729D01*
X182580220Y-61141719D01*
X182643477Y-60947034D01*
X182675500Y-60744852D01*
X182675500Y-60540148D01*
X182643477Y-60337966D01*
X182580220Y-60143281D01*
X182580216Y-60143275D01*
X182580214Y-60143268D01*
X182487293Y-59960900D01*
X182487287Y-59960890D01*
X182400909Y-59842000D01*
X182366966Y-59795281D01*
X182222219Y-59650534D01*
X182061123Y-59533492D01*
X182002856Y-59466801D01*
X181979294Y-59381430D01*
X181995107Y-59294289D01*
X182047163Y-59222640D01*
X182061112Y-59211515D01*
X182222219Y-59094466D01*
X182366966Y-58949719D01*
X182487287Y-58784110D01*
X182515121Y-58729484D01*
X182580214Y-58601731D01*
X182580214Y-58601729D01*
X182580220Y-58601719D01*
X182643477Y-58407034D01*
X182675500Y-58204852D01*
X182675500Y-58000148D01*
X182643477Y-57797966D01*
X182580220Y-57603281D01*
X182580216Y-57603275D01*
X182580214Y-57603268D01*
X182487293Y-57420900D01*
X182487287Y-57420890D01*
X182467171Y-57393203D01*
X182366966Y-57255281D01*
X182222219Y-57110534D01*
X182061123Y-56993492D01*
X182002856Y-56926801D01*
X181979294Y-56841430D01*
X181995107Y-56754289D01*
X182047163Y-56682640D01*
X182061112Y-56671515D01*
X182222219Y-56554466D01*
X182366966Y-56409719D01*
X182487287Y-56244110D01*
X182490648Y-56237515D01*
X182580214Y-56061731D01*
X182580214Y-56061729D01*
X182580220Y-56061719D01*
X182643477Y-55867034D01*
X182675500Y-55664852D01*
X182675500Y-55460148D01*
X182643477Y-55257966D01*
X182580220Y-55063281D01*
X182580216Y-55063275D01*
X182580214Y-55063268D01*
X182487293Y-54880900D01*
X182487287Y-54880890D01*
X182432877Y-54806001D01*
X182366966Y-54715281D01*
X182222219Y-54570534D01*
X182061123Y-54453492D01*
X182002856Y-54386801D01*
X181979294Y-54301430D01*
X181995107Y-54214289D01*
X182047163Y-54142640D01*
X182061112Y-54131515D01*
X182222219Y-54014466D01*
X182366966Y-53869719D01*
X182487287Y-53704110D01*
X182488994Y-53700761D01*
X182580214Y-53521731D01*
X182580214Y-53521729D01*
X182580220Y-53521719D01*
X182643477Y-53327034D01*
X182675500Y-53124852D01*
X182675500Y-52920148D01*
X182643477Y-52717966D01*
X182602431Y-52591639D01*
X182580222Y-52523287D01*
X182580221Y-52523286D01*
X182580220Y-52523281D01*
X182580216Y-52523275D01*
X182580214Y-52523268D01*
X182487293Y-52340900D01*
X182487287Y-52340890D01*
X182423220Y-52252709D01*
X182366966Y-52175281D01*
X182272588Y-52080903D01*
X182225469Y-52005915D01*
X182215553Y-51917908D01*
X182244804Y-51834315D01*
X182307428Y-51771691D01*
X182343760Y-51753736D01*
X182347072Y-51752501D01*
X182417331Y-51726296D01*
X182532546Y-51640046D01*
X182618796Y-51524831D01*
X182669091Y-51389983D01*
X182675500Y-51330373D01*
X182675499Y-49634628D01*
X182675499Y-49634627D01*
X182675499Y-49634623D01*
X182669091Y-49575018D01*
X182637582Y-49490536D01*
X182618796Y-49440169D01*
X182566427Y-49370213D01*
X182532546Y-49324953D01*
X182417335Y-49238707D01*
X182417331Y-49238704D01*
X182282483Y-49188409D01*
X182222873Y-49182000D01*
X182222867Y-49182000D01*
X179727123Y-49182000D01*
X179667518Y-49188408D01*
X179532670Y-49238703D01*
X179532664Y-49238707D01*
X179417453Y-49324953D01*
X179331207Y-49440164D01*
X179331204Y-49440169D01*
X179280909Y-49575017D01*
X179274500Y-49634627D01*
X176522500Y-49634627D01*
X176522500Y-45724999D01*
X178682073Y-45724999D01*
X178682073Y-45725000D01*
X178701737Y-45937213D01*
X178701739Y-45937223D01*
X178760061Y-46142205D01*
X178760064Y-46142211D01*
X178838334Y-46299399D01*
X178838336Y-46299400D01*
X179387000Y-45750736D01*
X179387000Y-45784244D01*
X179417667Y-45898694D01*
X179476910Y-46001306D01*
X179560694Y-46085090D01*
X179663306Y-46144333D01*
X179777756Y-46175000D01*
X179811264Y-46175000D01*
X179263662Y-46722599D01*
X179322202Y-46758846D01*
X179520937Y-46835837D01*
X179520935Y-46835837D01*
X179730439Y-46875000D01*
X179943561Y-46875000D01*
X180153063Y-46835837D01*
X180351797Y-46758846D01*
X180410336Y-46722600D01*
X180410336Y-46722599D01*
X179862737Y-46175000D01*
X179896244Y-46175000D01*
X180010694Y-46144333D01*
X180113306Y-46085090D01*
X180197090Y-46001306D01*
X180256333Y-45898694D01*
X180287000Y-45784244D01*
X180287000Y-45750737D01*
X180884171Y-46347908D01*
X180911073Y-46363007D01*
X180961847Y-46435571D01*
X180976500Y-46510517D01*
X180976500Y-46672876D01*
X180982908Y-46732481D01*
X181033203Y-46867329D01*
X181033207Y-46867335D01*
X181119453Y-46982546D01*
X181175796Y-47024724D01*
X181234669Y-47068796D01*
X181369517Y-47119091D01*
X181429127Y-47125500D01*
X182562993Y-47125499D01*
X182649336Y-47145206D01*
X182703707Y-47183785D01*
X183037214Y-47517292D01*
X183084333Y-47592280D01*
X183095500Y-47658006D01*
X183095500Y-59197341D01*
X183126262Y-59351993D01*
X183126264Y-59352000D01*
X183186603Y-59497674D01*
X183186607Y-59497681D01*
X183230114Y-59562793D01*
X183274211Y-59628789D01*
X184798211Y-61152789D01*
X184909711Y-61264289D01*
X184975266Y-61308091D01*
X185040817Y-61351892D01*
X185040819Y-61351893D01*
X185040820Y-61351893D01*
X185040821Y-61351894D01*
X185143833Y-61394562D01*
X185186502Y-61412237D01*
X185341157Y-61443000D01*
X185341158Y-61443000D01*
X187073887Y-61443000D01*
X187160230Y-61462707D01*
X187214601Y-61501286D01*
X187347781Y-61634466D01*
X187508873Y-61751505D01*
X187567143Y-61818199D01*
X187590705Y-61903571D01*
X187574891Y-61990711D01*
X187522836Y-62062361D01*
X187508873Y-62073495D01*
X187347783Y-62190532D01*
X187347779Y-62190535D01*
X187203035Y-62335279D01*
X187203032Y-62335283D01*
X187082712Y-62500890D01*
X187082706Y-62500900D01*
X186989785Y-62683268D01*
X186989777Y-62683287D01*
X186926523Y-62877963D01*
X186926522Y-62877970D01*
X186894500Y-63080149D01*
X186894500Y-63284850D01*
X186926522Y-63487029D01*
X186926523Y-63487036D01*
X186989777Y-63681712D01*
X186989785Y-63681731D01*
X187082706Y-63864099D01*
X187082712Y-63864109D01*
X187082713Y-63864110D01*
X187203034Y-64029719D01*
X187347781Y-64174466D01*
X187418448Y-64225808D01*
X187508873Y-64291505D01*
X187567143Y-64358199D01*
X187590705Y-64443571D01*
X187574891Y-64530711D01*
X187522836Y-64602361D01*
X187508873Y-64613495D01*
X187347783Y-64730532D01*
X187347779Y-64730535D01*
X187203035Y-64875279D01*
X187203032Y-64875283D01*
X187082712Y-65040890D01*
X187082706Y-65040900D01*
X186989785Y-65223268D01*
X186989777Y-65223287D01*
X186926523Y-65417963D01*
X186926522Y-65417970D01*
X186894500Y-65620149D01*
X186894500Y-65824850D01*
X186926522Y-66027029D01*
X186926523Y-66027036D01*
X186989777Y-66221712D01*
X186989785Y-66221731D01*
X187082706Y-66404099D01*
X187082712Y-66404109D01*
X187082713Y-66404110D01*
X187203034Y-66569719D01*
X187347781Y-66714466D01*
X187502672Y-66827000D01*
X187508873Y-66831505D01*
X187567143Y-66898199D01*
X187590705Y-66983571D01*
X187574891Y-67070711D01*
X187522836Y-67142361D01*
X187508876Y-67153492D01*
X187471004Y-67181008D01*
X187347783Y-67270532D01*
X187347779Y-67270535D01*
X187203035Y-67415279D01*
X187203032Y-67415283D01*
X187082712Y-67580890D01*
X187082706Y-67580900D01*
X186989785Y-67763268D01*
X186989777Y-67763287D01*
X186926523Y-67957963D01*
X186926523Y-67957966D01*
X186894500Y-68160148D01*
X186894500Y-68364852D01*
X186912814Y-68480479D01*
X186926522Y-68567029D01*
X186926523Y-68567036D01*
X186989777Y-68761712D01*
X186989785Y-68761731D01*
X187082706Y-68944099D01*
X187082712Y-68944109D01*
X187082713Y-68944110D01*
X187203034Y-69109719D01*
X187347781Y-69254466D01*
X187478723Y-69349600D01*
X187508873Y-69371505D01*
X187567143Y-69438199D01*
X187590705Y-69523571D01*
X187574891Y-69610711D01*
X187522836Y-69682361D01*
X187508873Y-69693495D01*
X187347783Y-69810532D01*
X187347779Y-69810535D01*
X187203035Y-69955279D01*
X187203032Y-69955283D01*
X187082712Y-70120890D01*
X187082706Y-70120900D01*
X186989785Y-70303268D01*
X186989777Y-70303287D01*
X186926523Y-70497963D01*
X186926522Y-70497970D01*
X186894500Y-70700149D01*
X186894500Y-70904850D01*
X186926522Y-71107029D01*
X186926523Y-71107036D01*
X186989777Y-71301712D01*
X186989785Y-71301731D01*
X187082706Y-71484099D01*
X187082712Y-71484109D01*
X187146739Y-71572235D01*
X187203034Y-71649719D01*
X187347781Y-71794466D01*
X187417102Y-71844830D01*
X187513390Y-71914787D01*
X187513400Y-71914793D01*
X187695768Y-72007714D01*
X187695775Y-72007716D01*
X187695781Y-72007720D01*
X187890466Y-72070977D01*
X188092648Y-72103000D01*
X188092649Y-72103000D01*
X189097351Y-72103000D01*
X189097352Y-72103000D01*
X189299534Y-72070977D01*
X189494219Y-72007720D01*
X189494231Y-72007714D01*
X189676599Y-71914793D01*
X189676603Y-71914790D01*
X189676610Y-71914787D01*
X189842219Y-71794466D01*
X189975399Y-71661286D01*
X190050387Y-71614167D01*
X190116113Y-71603000D01*
X192483841Y-71603000D01*
X192483842Y-71603000D01*
X192638497Y-71572237D01*
X192784179Y-71511894D01*
X192915289Y-71424289D01*
X193237078Y-71102500D01*
X194169102Y-71102500D01*
X194170349Y-71108771D01*
X194249503Y-71299863D01*
X194249503Y-71299864D01*
X194364408Y-71471832D01*
X194364414Y-71471839D01*
X194510660Y-71618085D01*
X194510667Y-71618091D01*
X194682635Y-71732996D01*
X194682639Y-71732998D01*
X194873726Y-71812149D01*
X194873728Y-71812150D01*
X195076581Y-71852500D01*
X195280000Y-71852500D01*
X195880000Y-71852500D01*
X196083419Y-71852500D01*
X196286271Y-71812150D01*
X196286273Y-71812149D01*
X196477360Y-71732998D01*
X196477364Y-71732996D01*
X196649332Y-71618091D01*
X196649339Y-71618085D01*
X196795585Y-71471839D01*
X196795591Y-71471832D01*
X196910496Y-71299864D01*
X196910496Y-71299863D01*
X196989650Y-71108771D01*
X196990898Y-71102500D01*
X195880000Y-71102500D01*
X195880000Y-71852500D01*
X195280000Y-71852500D01*
X195280000Y-71102500D01*
X194169102Y-71102500D01*
X193237078Y-71102500D01*
X193864187Y-70475390D01*
X193939174Y-70428272D01*
X194027181Y-70418356D01*
X194110774Y-70447607D01*
X194158729Y-70489861D01*
X194169102Y-70502500D01*
X195314314Y-70502500D01*
X195259920Y-70556894D01*
X195207259Y-70648106D01*
X195180000Y-70749839D01*
X195180000Y-70855161D01*
X195207259Y-70956894D01*
X195259920Y-71048106D01*
X195334394Y-71122580D01*
X195425606Y-71175241D01*
X195527339Y-71202500D01*
X195632661Y-71202500D01*
X195734394Y-71175241D01*
X195825606Y-71122580D01*
X195900080Y-71048106D01*
X195952741Y-70956894D01*
X195980000Y-70855161D01*
X195980000Y-70749839D01*
X195952741Y-70648106D01*
X195900080Y-70556894D01*
X195845686Y-70502500D01*
X196990898Y-70502500D01*
X196990898Y-70502499D01*
X196989650Y-70496228D01*
X196910496Y-70305136D01*
X196910496Y-70305135D01*
X196795591Y-70133167D01*
X196795585Y-70133160D01*
X196649339Y-69986914D01*
X196649332Y-69986908D01*
X196477364Y-69872003D01*
X196477358Y-69871999D01*
X196429561Y-69852201D01*
X196357333Y-69800951D01*
X196314494Y-69723438D01*
X196309529Y-69635014D01*
X196343422Y-69553192D01*
X196409459Y-69494179D01*
X196444212Y-69479094D01*
X196479219Y-69467720D01*
X196529556Y-69442072D01*
X196661599Y-69374793D01*
X196661603Y-69374790D01*
X196661610Y-69374787D01*
X196827219Y-69254466D01*
X196971966Y-69109719D01*
X197092287Y-68944110D01*
X197097965Y-68932968D01*
X197185214Y-68761731D01*
X197185214Y-68761729D01*
X197185220Y-68761719D01*
X197248477Y-68567034D01*
X197280500Y-68364852D01*
X197280500Y-68160148D01*
X197248477Y-67957966D01*
X197185220Y-67763281D01*
X197185216Y-67763275D01*
X197185214Y-67763268D01*
X197092293Y-67580900D01*
X197092287Y-67580890D01*
X197001276Y-67455623D01*
X196971966Y-67415281D01*
X196827219Y-67270534D01*
X196666123Y-67153492D01*
X196607856Y-67086801D01*
X196584294Y-67001430D01*
X196600107Y-66914289D01*
X196652163Y-66842640D01*
X196666112Y-66831515D01*
X196827219Y-66714466D01*
X196971966Y-66569719D01*
X197092287Y-66404110D01*
X197093994Y-66400761D01*
X197185214Y-66221731D01*
X197185214Y-66221729D01*
X197185220Y-66221719D01*
X197248477Y-66027034D01*
X197280500Y-65824852D01*
X197280500Y-65620148D01*
X197248477Y-65417966D01*
X197207431Y-65291639D01*
X197185222Y-65223287D01*
X197185221Y-65223286D01*
X197185220Y-65223281D01*
X197185216Y-65223275D01*
X197185214Y-65223268D01*
X197092293Y-65040900D01*
X197092287Y-65040890D01*
X196971966Y-64875281D01*
X196827219Y-64730534D01*
X196754299Y-64677555D01*
X196661609Y-64610212D01*
X196661599Y-64610206D01*
X196479231Y-64517285D01*
X196479212Y-64517277D01*
X196444223Y-64505909D01*
X196368196Y-64460485D01*
X196319406Y-64386573D01*
X196307518Y-64298811D01*
X196334886Y-64214582D01*
X196396089Y-64150569D01*
X196429563Y-64132797D01*
X196477361Y-64112998D01*
X196477364Y-64112996D01*
X196649332Y-63998091D01*
X196649339Y-63998085D01*
X196795585Y-63851839D01*
X196795591Y-63851832D01*
X196910496Y-63679864D01*
X196910496Y-63679863D01*
X196989650Y-63488771D01*
X196990898Y-63482500D01*
X195845686Y-63482500D01*
X195900080Y-63428106D01*
X195952741Y-63336894D01*
X195980000Y-63235161D01*
X195980000Y-63129839D01*
X195952741Y-63028106D01*
X195900080Y-62936894D01*
X195845686Y-62882500D01*
X196990898Y-62882500D01*
X196990898Y-62882499D01*
X196989650Y-62876228D01*
X196910496Y-62685136D01*
X196910496Y-62685135D01*
X196795591Y-62513167D01*
X196795585Y-62513160D01*
X196649339Y-62366914D01*
X196649332Y-62366908D01*
X196477364Y-62252003D01*
X196477358Y-62251999D01*
X196429561Y-62232201D01*
X196357333Y-62180951D01*
X196314494Y-62103438D01*
X196309529Y-62015014D01*
X196343422Y-61933192D01*
X196409459Y-61874179D01*
X196444212Y-61859094D01*
X196479219Y-61847720D01*
X196505579Y-61834289D01*
X196661599Y-61754793D01*
X196661603Y-61754790D01*
X196661610Y-61754787D01*
X196827219Y-61634466D01*
X196971966Y-61489719D01*
X197092287Y-61324110D01*
X197122767Y-61264291D01*
X197185214Y-61141731D01*
X197185214Y-61141729D01*
X197185220Y-61141719D01*
X197248477Y-60947034D01*
X197280500Y-60744852D01*
X197280500Y-60540148D01*
X197248477Y-60337966D01*
X197185220Y-60143281D01*
X197185216Y-60143275D01*
X197185214Y-60143268D01*
X197092293Y-59960900D01*
X197092287Y-59960890D01*
X197005909Y-59842000D01*
X196971966Y-59795281D01*
X196827219Y-59650534D01*
X196666123Y-59533492D01*
X196607856Y-59466801D01*
X196584294Y-59381430D01*
X196600107Y-59294289D01*
X196652163Y-59222640D01*
X196666112Y-59211515D01*
X196827219Y-59094466D01*
X196960399Y-58961286D01*
X197035387Y-58914167D01*
X197101113Y-58903000D01*
X198833841Y-58903000D01*
X198833842Y-58903000D01*
X198988497Y-58872237D01*
X199134179Y-58811894D01*
X199265289Y-58724289D01*
X200011789Y-57977789D01*
X200099394Y-57846679D01*
X200159738Y-57700997D01*
X200179173Y-57603287D01*
X200190500Y-57546345D01*
X200190500Y-54071506D01*
X200210207Y-53985163D01*
X200248786Y-53930792D01*
X200298292Y-53881286D01*
X200373280Y-53834167D01*
X200439006Y-53823000D01*
X201678887Y-53823000D01*
X201765230Y-53842707D01*
X201819601Y-53881286D01*
X201952781Y-54014466D01*
X202113873Y-54131505D01*
X202172143Y-54198199D01*
X202195705Y-54283571D01*
X202179891Y-54370711D01*
X202127836Y-54442361D01*
X202113876Y-54453492D01*
X202076004Y-54481008D01*
X201952783Y-54570532D01*
X201952779Y-54570535D01*
X201808035Y-54715279D01*
X201808032Y-54715283D01*
X201687712Y-54880890D01*
X201687706Y-54880900D01*
X201594785Y-55063268D01*
X201594777Y-55063287D01*
X201531523Y-55257963D01*
X201531522Y-55257970D01*
X201519196Y-55335795D01*
X201499500Y-55460148D01*
X201499500Y-55664852D01*
X201502883Y-55686208D01*
X201531522Y-55867029D01*
X201531523Y-55867036D01*
X201594777Y-56061712D01*
X201594785Y-56061731D01*
X201687706Y-56244099D01*
X201687712Y-56244109D01*
X201696761Y-56256564D01*
X201808034Y-56409719D01*
X201952781Y-56554466D01*
X202018873Y-56602484D01*
X202113873Y-56671505D01*
X202172143Y-56738199D01*
X202195705Y-56823571D01*
X202179891Y-56910711D01*
X202127836Y-56982361D01*
X202113873Y-56993495D01*
X201952783Y-57110532D01*
X201952779Y-57110535D01*
X201808035Y-57255279D01*
X201808032Y-57255283D01*
X201687712Y-57420890D01*
X201687706Y-57420900D01*
X201594785Y-57603268D01*
X201594777Y-57603287D01*
X201531523Y-57797963D01*
X201531522Y-57797970D01*
X201499500Y-58000149D01*
X201499500Y-58204850D01*
X201531522Y-58407029D01*
X201531523Y-58407036D01*
X201594777Y-58601712D01*
X201594785Y-58601731D01*
X201687706Y-58784099D01*
X201687712Y-58784109D01*
X201727383Y-58838712D01*
X201808034Y-58949719D01*
X201952781Y-59094466D01*
X202094379Y-59197342D01*
X202113873Y-59211505D01*
X202172143Y-59278199D01*
X202195705Y-59363571D01*
X202179891Y-59450711D01*
X202127836Y-59522361D01*
X202113873Y-59533495D01*
X201952783Y-59650532D01*
X201952779Y-59650535D01*
X201808035Y-59795279D01*
X201808032Y-59795283D01*
X201687712Y-59960890D01*
X201687706Y-59960900D01*
X201594785Y-60143268D01*
X201594777Y-60143287D01*
X201531523Y-60337963D01*
X201531522Y-60337970D01*
X201499500Y-60540149D01*
X201499500Y-60744850D01*
X201531522Y-60947029D01*
X201531523Y-60947036D01*
X201594777Y-61141712D01*
X201594785Y-61141731D01*
X201687706Y-61324099D01*
X201687712Y-61324109D01*
X201738898Y-61394561D01*
X201808034Y-61489719D01*
X201952781Y-61634466D01*
X202113873Y-61751505D01*
X202172143Y-61818199D01*
X202195705Y-61903571D01*
X202179891Y-61990711D01*
X202127836Y-62062361D01*
X202113873Y-62073495D01*
X201952783Y-62190532D01*
X201952779Y-62190535D01*
X201808035Y-62335279D01*
X201808032Y-62335283D01*
X201687712Y-62500890D01*
X201687706Y-62500900D01*
X201594785Y-62683268D01*
X201594777Y-62683287D01*
X201531523Y-62877963D01*
X201531522Y-62877970D01*
X201499500Y-63080149D01*
X201499500Y-63284850D01*
X201531522Y-63487029D01*
X201531523Y-63487036D01*
X201594777Y-63681712D01*
X201594785Y-63681731D01*
X201687706Y-63864099D01*
X201687712Y-63864109D01*
X201687713Y-63864110D01*
X201808034Y-64029719D01*
X201952781Y-64174466D01*
X202023448Y-64225808D01*
X202113873Y-64291505D01*
X202172143Y-64358199D01*
X202195705Y-64443571D01*
X202179891Y-64530711D01*
X202127836Y-64602361D01*
X202113873Y-64613495D01*
X201952783Y-64730532D01*
X201952779Y-64730535D01*
X201808035Y-64875279D01*
X201808032Y-64875283D01*
X201687712Y-65040890D01*
X201687706Y-65040900D01*
X201594785Y-65223268D01*
X201594777Y-65223287D01*
X201531523Y-65417963D01*
X201531522Y-65417970D01*
X201499500Y-65620149D01*
X201499500Y-65824850D01*
X201531522Y-66027029D01*
X201531523Y-66027036D01*
X201594777Y-66221712D01*
X201594785Y-66221731D01*
X201687706Y-66404099D01*
X201687712Y-66404109D01*
X201687713Y-66404110D01*
X201808034Y-66569719D01*
X201952781Y-66714466D01*
X202107672Y-66827000D01*
X202113873Y-66831505D01*
X202172143Y-66898199D01*
X202195705Y-66983571D01*
X202179891Y-67070711D01*
X202127836Y-67142361D01*
X202113876Y-67153492D01*
X202076004Y-67181008D01*
X201952783Y-67270532D01*
X201952779Y-67270535D01*
X201808035Y-67415279D01*
X201808032Y-67415283D01*
X201687712Y-67580890D01*
X201687706Y-67580900D01*
X201594785Y-67763268D01*
X201594777Y-67763287D01*
X201531523Y-67957963D01*
X201531523Y-67957966D01*
X201499500Y-68160148D01*
X201499500Y-68364852D01*
X201517814Y-68480479D01*
X201531522Y-68567029D01*
X201531523Y-68567036D01*
X201594777Y-68761712D01*
X201594785Y-68761731D01*
X201687706Y-68944099D01*
X201687712Y-68944109D01*
X201687713Y-68944110D01*
X201808034Y-69109719D01*
X201952781Y-69254466D01*
X202083723Y-69349600D01*
X202113873Y-69371505D01*
X202172143Y-69438199D01*
X202195705Y-69523571D01*
X202179891Y-69610711D01*
X202127836Y-69682361D01*
X202113873Y-69693495D01*
X201952783Y-69810532D01*
X201952779Y-69810535D01*
X201808035Y-69955279D01*
X201808032Y-69955283D01*
X201687712Y-70120890D01*
X201687706Y-70120900D01*
X201594785Y-70303268D01*
X201594777Y-70303287D01*
X201531523Y-70497963D01*
X201531522Y-70497970D01*
X201499500Y-70700149D01*
X201499500Y-70904850D01*
X201531522Y-71107029D01*
X201531523Y-71107036D01*
X201594777Y-71301712D01*
X201594785Y-71301731D01*
X201687706Y-71484099D01*
X201687712Y-71484109D01*
X201751739Y-71572235D01*
X201808034Y-71649719D01*
X201952781Y-71794466D01*
X202022102Y-71844830D01*
X202118390Y-71914787D01*
X202118400Y-71914793D01*
X202300768Y-72007714D01*
X202300775Y-72007716D01*
X202300781Y-72007720D01*
X202495466Y-72070977D01*
X202697648Y-72103000D01*
X202697649Y-72103000D01*
X203702351Y-72103000D01*
X203702352Y-72103000D01*
X203904534Y-72070977D01*
X204099219Y-72007720D01*
X204099231Y-72007714D01*
X204281599Y-71914793D01*
X204281603Y-71914790D01*
X204281610Y-71914787D01*
X204447219Y-71794466D01*
X204580399Y-71661286D01*
X204655387Y-71614167D01*
X204721113Y-71603000D01*
X206523886Y-71603000D01*
X206610229Y-71622707D01*
X206664600Y-71661286D01*
X206805861Y-71802547D01*
X206992266Y-71933068D01*
X207198504Y-72029239D01*
X207198505Y-72029239D01*
X207198509Y-72029241D01*
X207418295Y-72088132D01*
X207418299Y-72088132D01*
X207418308Y-72088135D01*
X207645000Y-72107968D01*
X207871692Y-72088135D01*
X207871701Y-72088132D01*
X207871704Y-72088132D01*
X208091490Y-72029241D01*
X208091491Y-72029240D01*
X208091496Y-72029239D01*
X208297734Y-71933068D01*
X208484139Y-71802547D01*
X208645047Y-71641639D01*
X208751989Y-71488907D01*
X208817655Y-71429484D01*
X208902603Y-71404437D01*
X208990006Y-71418727D01*
X209062553Y-71469524D01*
X209078006Y-71488901D01*
X209184953Y-71641639D01*
X209345861Y-71802547D01*
X209532266Y-71933068D01*
X209738504Y-72029239D01*
X209738505Y-72029239D01*
X209738509Y-72029241D01*
X209958295Y-72088132D01*
X209958299Y-72088132D01*
X209958308Y-72088135D01*
X210185000Y-72107968D01*
X210411692Y-72088135D01*
X210411701Y-72088132D01*
X210411704Y-72088132D01*
X210631490Y-72029241D01*
X210631491Y-72029240D01*
X210631496Y-72029239D01*
X210837734Y-71933068D01*
X211024139Y-71802547D01*
X211165400Y-71661286D01*
X211240388Y-71614167D01*
X211306114Y-71603000D01*
X212522838Y-71603000D01*
X212609181Y-71622707D01*
X212678422Y-71677926D01*
X212709291Y-71732457D01*
X212751203Y-71844829D01*
X212751207Y-71844835D01*
X212837453Y-71960046D01*
X212901130Y-72007714D01*
X212952669Y-72046296D01*
X213087517Y-72096591D01*
X213147127Y-72103000D01*
X214842872Y-72102999D01*
X214842876Y-72102999D01*
X214882612Y-72098727D01*
X214902483Y-72096591D01*
X215037331Y-72046296D01*
X215152546Y-71960046D01*
X215238796Y-71844831D01*
X215266237Y-71771256D01*
X215314871Y-71697249D01*
X215390805Y-71651669D01*
X215478995Y-71643548D01*
X215561975Y-71674497D01*
X215593402Y-71700088D01*
X215695861Y-71802547D01*
X215882266Y-71933068D01*
X216088504Y-72029239D01*
X216088505Y-72029239D01*
X216088509Y-72029241D01*
X216308295Y-72088132D01*
X216308299Y-72088132D01*
X216308308Y-72088135D01*
X216535000Y-72107968D01*
X216761692Y-72088135D01*
X216761701Y-72088132D01*
X216761704Y-72088132D01*
X216981490Y-72029241D01*
X216981491Y-72029240D01*
X216981496Y-72029239D01*
X217187734Y-71933068D01*
X217374139Y-71802547D01*
X217450534Y-71726152D01*
X218575609Y-71726152D01*
X218671239Y-71777268D01*
X218869165Y-71837308D01*
X219075000Y-71857580D01*
X219280834Y-71837308D01*
X219478760Y-71777268D01*
X219574389Y-71726152D01*
X219075001Y-71226764D01*
X219075000Y-71226764D01*
X218575609Y-71726152D01*
X217450534Y-71726152D01*
X217535047Y-71641639D01*
X217665568Y-71455234D01*
X217761739Y-71248996D01*
X217761741Y-71248990D01*
X217761873Y-71248707D01*
X217816223Y-71178783D01*
X217895531Y-71139365D01*
X217984087Y-71138260D01*
X218064353Y-71175689D01*
X218117730Y-71238999D01*
X218151346Y-71301889D01*
X218650736Y-70802500D01*
X218650736Y-70802499D01*
X218598076Y-70749839D01*
X218675000Y-70749839D01*
X218675000Y-70855161D01*
X218702259Y-70956894D01*
X218754920Y-71048106D01*
X218829394Y-71122580D01*
X218920606Y-71175241D01*
X219022339Y-71202500D01*
X219127661Y-71202500D01*
X219229394Y-71175241D01*
X219320606Y-71122580D01*
X219395080Y-71048106D01*
X219447741Y-70956894D01*
X219475000Y-70855161D01*
X219475000Y-70749839D01*
X219447741Y-70648106D01*
X219395080Y-70556894D01*
X219320606Y-70482420D01*
X219229394Y-70429759D01*
X219127661Y-70402500D01*
X219022339Y-70402500D01*
X218920606Y-70429759D01*
X218829394Y-70482420D01*
X218754920Y-70556894D01*
X218702259Y-70648106D01*
X218675000Y-70749839D01*
X218598076Y-70749839D01*
X218151346Y-70303109D01*
X218151344Y-70303110D01*
X218117730Y-70365999D01*
X218059648Y-70432857D01*
X217978309Y-70467893D01*
X217889825Y-70464167D01*
X217811719Y-70422419D01*
X217761873Y-70356292D01*
X217738018Y-70305136D01*
X217665568Y-70149766D01*
X217535047Y-69963361D01*
X217450532Y-69878846D01*
X218575609Y-69878846D01*
X219075000Y-70378236D01*
X219075001Y-70378236D01*
X219574389Y-69878846D01*
X219574389Y-69878845D01*
X219478764Y-69827733D01*
X219280834Y-69767691D01*
X219075000Y-69747419D01*
X218869165Y-69767691D01*
X218671239Y-69827731D01*
X218575609Y-69878846D01*
X217450532Y-69878846D01*
X217393785Y-69822099D01*
X217346667Y-69747110D01*
X217335500Y-69681385D01*
X217335500Y-68818658D01*
X217324174Y-68761719D01*
X217304737Y-68664003D01*
X217264572Y-68567036D01*
X217244396Y-68518325D01*
X217244392Y-68518318D01*
X217184043Y-68428000D01*
X217156789Y-68387211D01*
X217045289Y-68275711D01*
X215775289Y-67005711D01*
X215662779Y-66930534D01*
X215644181Y-66918107D01*
X215644174Y-66918103D01*
X215498500Y-66857764D01*
X215498498Y-66857763D01*
X215498497Y-66857763D01*
X215498495Y-66857762D01*
X215498493Y-66857762D01*
X215420125Y-66842173D01*
X215343842Y-66827000D01*
X215343841Y-66827000D01*
X211306114Y-66827000D01*
X211219771Y-66807293D01*
X211165400Y-66768714D01*
X211024141Y-66627455D01*
X211024139Y-66627453D01*
X210837734Y-66496932D01*
X210638676Y-66404109D01*
X210631490Y-66400758D01*
X210411704Y-66341867D01*
X210411692Y-66341865D01*
X210185000Y-66322032D01*
X209958307Y-66341865D01*
X209958295Y-66341867D01*
X209738509Y-66400758D01*
X209532266Y-66496932D01*
X209345858Y-66627455D01*
X209184953Y-66788361D01*
X209184950Y-66788363D01*
X209078011Y-66941090D01*
X209012344Y-67000515D01*
X208927397Y-67025563D01*
X208839994Y-67011272D01*
X208767447Y-66960475D01*
X208751989Y-66941090D01*
X208645049Y-66788363D01*
X208484141Y-66627455D01*
X208484139Y-66627453D01*
X208297734Y-66496932D01*
X208098676Y-66404109D01*
X208091490Y-66400758D01*
X207871704Y-66341867D01*
X207871692Y-66341865D01*
X207645000Y-66322032D01*
X207418307Y-66341865D01*
X207418296Y-66341867D01*
X207410868Y-66343858D01*
X207322366Y-66347168D01*
X207241193Y-66311750D01*
X207183426Y-66244621D01*
X207160506Y-66159075D01*
X207176973Y-66072056D01*
X207218648Y-66010928D01*
X207419946Y-65809630D01*
X207494930Y-65762515D01*
X207577997Y-65752105D01*
X207645000Y-65757968D01*
X207871692Y-65738135D01*
X207871701Y-65738132D01*
X207871704Y-65738132D01*
X208091490Y-65679241D01*
X208091491Y-65679240D01*
X208091496Y-65679239D01*
X208297734Y-65583068D01*
X208484139Y-65452547D01*
X208645047Y-65291639D01*
X208751989Y-65138907D01*
X208817655Y-65079484D01*
X208902603Y-65054437D01*
X208990006Y-65068727D01*
X209062553Y-65119524D01*
X209078006Y-65138901D01*
X209184953Y-65291639D01*
X209345861Y-65452547D01*
X209532266Y-65583068D01*
X209738504Y-65679239D01*
X209738505Y-65679239D01*
X209738509Y-65679241D01*
X209958295Y-65738132D01*
X209958299Y-65738132D01*
X209958308Y-65738135D01*
X210185000Y-65757968D01*
X210411692Y-65738135D01*
X210411701Y-65738132D01*
X210411704Y-65738132D01*
X210631490Y-65679241D01*
X210631491Y-65679240D01*
X210631496Y-65679239D01*
X210837734Y-65583068D01*
X211024139Y-65452547D01*
X211165400Y-65311286D01*
X211240388Y-65264167D01*
X211306114Y-65253000D01*
X218660994Y-65253000D01*
X218747337Y-65272707D01*
X218801708Y-65311286D01*
X220756214Y-67265792D01*
X220803333Y-67340780D01*
X220814500Y-67406506D01*
X220814500Y-69681385D01*
X220794793Y-69767728D01*
X220756215Y-69822099D01*
X220614952Y-69963362D01*
X220484432Y-70149766D01*
X220388125Y-70356294D01*
X220333773Y-70426218D01*
X220254466Y-70465636D01*
X220165909Y-70466739D01*
X220085644Y-70429310D01*
X220032268Y-70366000D01*
X219998652Y-70303109D01*
X219499264Y-70802499D01*
X219499264Y-70802500D01*
X219998652Y-71301888D01*
X220032268Y-71238999D01*
X220090350Y-71172141D01*
X220171688Y-71137105D01*
X220260173Y-71140831D01*
X220338279Y-71182579D01*
X220388125Y-71248705D01*
X220426099Y-71330140D01*
X220484432Y-71455234D01*
X220614953Y-71641639D01*
X220775861Y-71802547D01*
X220962266Y-71933068D01*
X221168504Y-72029239D01*
X221168505Y-72029239D01*
X221168509Y-72029241D01*
X221388295Y-72088132D01*
X221388299Y-72088132D01*
X221388308Y-72088135D01*
X221615000Y-72107968D01*
X221841692Y-72088135D01*
X221841701Y-72088132D01*
X221841704Y-72088132D01*
X222061490Y-72029241D01*
X222061491Y-72029240D01*
X222061496Y-72029239D01*
X222267734Y-71933068D01*
X222454139Y-71802547D01*
X222615047Y-71641639D01*
X222721989Y-71488907D01*
X222787655Y-71429484D01*
X222872603Y-71404437D01*
X222960006Y-71418727D01*
X223032553Y-71469524D01*
X223048006Y-71488901D01*
X223154953Y-71641639D01*
X223315861Y-71802547D01*
X223502266Y-71933068D01*
X223708504Y-72029239D01*
X223708505Y-72029239D01*
X223708509Y-72029241D01*
X223928295Y-72088132D01*
X223928299Y-72088132D01*
X223928308Y-72088135D01*
X224155000Y-72107968D01*
X224381692Y-72088135D01*
X224381701Y-72088132D01*
X224381704Y-72088132D01*
X224601490Y-72029241D01*
X224601491Y-72029240D01*
X224601496Y-72029239D01*
X224807734Y-71933068D01*
X224994139Y-71802547D01*
X225155047Y-71641639D01*
X225285568Y-71455234D01*
X225381739Y-71248996D01*
X225381817Y-71248707D01*
X225440632Y-71029204D01*
X225440632Y-71029201D01*
X225440635Y-71029192D01*
X225460468Y-70802500D01*
X225440635Y-70575808D01*
X225440632Y-70575795D01*
X225381741Y-70356009D01*
X225381739Y-70356004D01*
X225285568Y-70149766D01*
X225155047Y-69963361D01*
X224994139Y-69802453D01*
X224807734Y-69671932D01*
X224601496Y-69575761D01*
X224601497Y-69575761D01*
X224601490Y-69575758D01*
X224381704Y-69516867D01*
X224381692Y-69516865D01*
X224155000Y-69497032D01*
X223928307Y-69516865D01*
X223928295Y-69516867D01*
X223708509Y-69575758D01*
X223502266Y-69671932D01*
X223315858Y-69802455D01*
X223154953Y-69963361D01*
X223154950Y-69963363D01*
X223048011Y-70116090D01*
X222982344Y-70175515D01*
X222897397Y-70200563D01*
X222809994Y-70186272D01*
X222737447Y-70135475D01*
X222721989Y-70116090D01*
X222615050Y-69963365D01*
X222615048Y-69963363D01*
X222615047Y-69963361D01*
X222473785Y-69822099D01*
X222426667Y-69747110D01*
X222415500Y-69681385D01*
X222415500Y-66913654D01*
X222399812Y-66834787D01*
X222384737Y-66759002D01*
X222384736Y-66758999D01*
X222366290Y-66714468D01*
X222366288Y-66714463D01*
X222330248Y-66627455D01*
X222324394Y-66613321D01*
X222324393Y-66613319D01*
X222324392Y-66613317D01*
X222243488Y-66492237D01*
X222236789Y-66482211D01*
X222125289Y-66370711D01*
X219585289Y-63830711D01*
X219488577Y-63766090D01*
X219454181Y-63743107D01*
X219454174Y-63743103D01*
X219308500Y-63682764D01*
X219308498Y-63682763D01*
X219308497Y-63682763D01*
X219308495Y-63682762D01*
X219308493Y-63682762D01*
X219230125Y-63667173D01*
X219153842Y-63652000D01*
X219153841Y-63652000D01*
X211306114Y-63652000D01*
X211219771Y-63632293D01*
X211165400Y-63593714D01*
X211024141Y-63452455D01*
X211024139Y-63452453D01*
X210837734Y-63321932D01*
X210693857Y-63254840D01*
X210631490Y-63225758D01*
X210411704Y-63166867D01*
X210411692Y-63166865D01*
X210185000Y-63147032D01*
X209958307Y-63166865D01*
X209958295Y-63166867D01*
X209738509Y-63225758D01*
X209532266Y-63321932D01*
X209345858Y-63452455D01*
X209184953Y-63613361D01*
X209184950Y-63613363D01*
X209078011Y-63766090D01*
X209012344Y-63825515D01*
X208927397Y-63850563D01*
X208839994Y-63836272D01*
X208767447Y-63785475D01*
X208751989Y-63766090D01*
X208645049Y-63613363D01*
X208484141Y-63452455D01*
X208484139Y-63452453D01*
X208297734Y-63321932D01*
X208153857Y-63254840D01*
X208091490Y-63225758D01*
X207871704Y-63166867D01*
X207871692Y-63166865D01*
X207645000Y-63147032D01*
X207418307Y-63166865D01*
X207418296Y-63166867D01*
X207410864Y-63168859D01*
X207322362Y-63172167D01*
X207241190Y-63136749D01*
X207183424Y-63069618D01*
X207160505Y-62984071D01*
X207176973Y-62897053D01*
X207218649Y-62835927D01*
X207419944Y-62634632D01*
X207494930Y-62587515D01*
X207577997Y-62577105D01*
X207645000Y-62582968D01*
X207871692Y-62563135D01*
X207871701Y-62563132D01*
X207871704Y-62563132D01*
X208091490Y-62504241D01*
X208091491Y-62504240D01*
X208091496Y-62504239D01*
X208297734Y-62408068D01*
X208484139Y-62277547D01*
X208645047Y-62116639D01*
X208751989Y-61963907D01*
X208817655Y-61904484D01*
X208902603Y-61879437D01*
X208990006Y-61893727D01*
X209062553Y-61944524D01*
X209078006Y-61963901D01*
X209184953Y-62116639D01*
X209345861Y-62277547D01*
X209532266Y-62408068D01*
X209738504Y-62504239D01*
X209738505Y-62504239D01*
X209738509Y-62504241D01*
X209958295Y-62563132D01*
X209958299Y-62563132D01*
X209958308Y-62563135D01*
X210185000Y-62582968D01*
X210411692Y-62563135D01*
X210411701Y-62563132D01*
X210411704Y-62563132D01*
X210631490Y-62504241D01*
X210631491Y-62504240D01*
X210631496Y-62504239D01*
X210837734Y-62408068D01*
X211024139Y-62277547D01*
X211165400Y-62136286D01*
X211240388Y-62089167D01*
X211306114Y-62078000D01*
X219153841Y-62078000D01*
X219153842Y-62078000D01*
X219308497Y-62047237D01*
X219454179Y-61986894D01*
X219585289Y-61899289D01*
X224752524Y-56732054D01*
X224800725Y-56698307D01*
X224800209Y-56697412D01*
X224807721Y-56693073D01*
X224807734Y-56693068D01*
X224994139Y-56562547D01*
X225155047Y-56401639D01*
X225285568Y-56215234D01*
X225381739Y-56008996D01*
X225381817Y-56008707D01*
X225440632Y-55789204D01*
X225440632Y-55789201D01*
X225440635Y-55789192D01*
X225460468Y-55562500D01*
X225440635Y-55335808D01*
X225440632Y-55335795D01*
X225381741Y-55116009D01*
X225368186Y-55086940D01*
X225285568Y-54909766D01*
X225155047Y-54723361D01*
X224994139Y-54562453D01*
X224807734Y-54431932D01*
X224615678Y-54342374D01*
X224601490Y-54335758D01*
X224381704Y-54276867D01*
X224381692Y-54276865D01*
X224155000Y-54257032D01*
X223928307Y-54276865D01*
X223928295Y-54276867D01*
X223708509Y-54335758D01*
X223502266Y-54431932D01*
X223315858Y-54562455D01*
X223154953Y-54723361D01*
X223154950Y-54723363D01*
X223048011Y-54876090D01*
X222982344Y-54935515D01*
X222897397Y-54960563D01*
X222809994Y-54946272D01*
X222737447Y-54895475D01*
X222721989Y-54876090D01*
X222615049Y-54723363D01*
X222454141Y-54562455D01*
X222454139Y-54562453D01*
X222267734Y-54431932D01*
X222075678Y-54342374D01*
X222061490Y-54335758D01*
X221841704Y-54276867D01*
X221841692Y-54276865D01*
X221615000Y-54257032D01*
X221388307Y-54276865D01*
X221388295Y-54276867D01*
X221168509Y-54335758D01*
X220962266Y-54431932D01*
X220775858Y-54562455D01*
X220614955Y-54723358D01*
X220484432Y-54909766D01*
X220388125Y-55116294D01*
X220333773Y-55186218D01*
X220254466Y-55225636D01*
X220165909Y-55226739D01*
X220085644Y-55189310D01*
X220032268Y-55126000D01*
X219998652Y-55063109D01*
X219475000Y-55586762D01*
X219475000Y-55509839D01*
X219447741Y-55408106D01*
X219395080Y-55316894D01*
X219320606Y-55242420D01*
X219229394Y-55189759D01*
X219127661Y-55162500D01*
X219022339Y-55162500D01*
X218920606Y-55189759D01*
X218829394Y-55242420D01*
X218754920Y-55316894D01*
X218702259Y-55408106D01*
X218675000Y-55509839D01*
X218675000Y-55615161D01*
X218702259Y-55716894D01*
X218754920Y-55808106D01*
X218829394Y-55882580D01*
X218920606Y-55935241D01*
X219022339Y-55962500D01*
X219099264Y-55962500D01*
X219075000Y-55986764D01*
X218575609Y-56486152D01*
X218671239Y-56537268D01*
X218869166Y-56597308D01*
X218921719Y-56602484D01*
X219005715Y-56630559D01*
X219069212Y-56692297D01*
X219099633Y-56775472D01*
X219090953Y-56863609D01*
X219044891Y-56939252D01*
X219042931Y-56941240D01*
X218953253Y-57030919D01*
X218740456Y-57243715D01*
X218665470Y-57290833D01*
X218599744Y-57302000D01*
X211306114Y-57302000D01*
X211219771Y-57282293D01*
X211165400Y-57243714D01*
X211024141Y-57102455D01*
X211024139Y-57102453D01*
X210837734Y-56971932D01*
X210677643Y-56897280D01*
X210631490Y-56875758D01*
X210411704Y-56816867D01*
X210411692Y-56816865D01*
X210185000Y-56797032D01*
X209958307Y-56816865D01*
X209958295Y-56816867D01*
X209738509Y-56875758D01*
X209532266Y-56971932D01*
X209345858Y-57102455D01*
X209184953Y-57263361D01*
X209184950Y-57263363D01*
X209078011Y-57416090D01*
X209012344Y-57475515D01*
X208927397Y-57500563D01*
X208839994Y-57486272D01*
X208767447Y-57435475D01*
X208751989Y-57416090D01*
X208645049Y-57263363D01*
X208484141Y-57102455D01*
X208484139Y-57102453D01*
X208297734Y-56971932D01*
X208137643Y-56897280D01*
X208091490Y-56875758D01*
X207871704Y-56816867D01*
X207871692Y-56816865D01*
X207645000Y-56797032D01*
X207418307Y-56816865D01*
X207418296Y-56816867D01*
X207410864Y-56818859D01*
X207322362Y-56822167D01*
X207241190Y-56786749D01*
X207183424Y-56719618D01*
X207160505Y-56634071D01*
X207176973Y-56547053D01*
X207218649Y-56485927D01*
X207419944Y-56284632D01*
X207494930Y-56237515D01*
X207577997Y-56227105D01*
X207645000Y-56232968D01*
X207871692Y-56213135D01*
X207871701Y-56213132D01*
X207871704Y-56213132D01*
X208091490Y-56154241D01*
X208091491Y-56154240D01*
X208091496Y-56154239D01*
X208297734Y-56058068D01*
X208484139Y-55927547D01*
X208645047Y-55766639D01*
X208751989Y-55613907D01*
X208817655Y-55554484D01*
X208902603Y-55529437D01*
X208990006Y-55543727D01*
X209062553Y-55594524D01*
X209078006Y-55613901D01*
X209184953Y-55766639D01*
X209345861Y-55927547D01*
X209532266Y-56058068D01*
X209738504Y-56154239D01*
X209738505Y-56154239D01*
X209738509Y-56154241D01*
X209958295Y-56213132D01*
X209958299Y-56213132D01*
X209958308Y-56213135D01*
X210185000Y-56232968D01*
X210289976Y-56223783D01*
X210377706Y-56235890D01*
X210417874Y-56256561D01*
X210440821Y-56271894D01*
X210586503Y-56332238D01*
X210638211Y-56342523D01*
X210741155Y-56363000D01*
X210741158Y-56363000D01*
X212873886Y-56363000D01*
X212960229Y-56382707D01*
X213014600Y-56421286D01*
X213155861Y-56562547D01*
X213342266Y-56693068D01*
X213548504Y-56789239D01*
X213548505Y-56789239D01*
X213548509Y-56789241D01*
X213768295Y-56848132D01*
X213768299Y-56848132D01*
X213768308Y-56848135D01*
X213995000Y-56867968D01*
X214221692Y-56848135D01*
X214221701Y-56848132D01*
X214221704Y-56848132D01*
X214441490Y-56789241D01*
X214441491Y-56789240D01*
X214441496Y-56789239D01*
X214647734Y-56693068D01*
X214834139Y-56562547D01*
X214995047Y-56401639D01*
X215101989Y-56248907D01*
X215167655Y-56189484D01*
X215252603Y-56164437D01*
X215340006Y-56178727D01*
X215412553Y-56229524D01*
X215428006Y-56248901D01*
X215534953Y-56401639D01*
X215695861Y-56562547D01*
X215882266Y-56693068D01*
X216088504Y-56789239D01*
X216088505Y-56789239D01*
X216088509Y-56789241D01*
X216308295Y-56848132D01*
X216308299Y-56848132D01*
X216308308Y-56848135D01*
X216535000Y-56867968D01*
X216761692Y-56848135D01*
X216761701Y-56848132D01*
X216761704Y-56848132D01*
X216981490Y-56789241D01*
X216981491Y-56789240D01*
X216981496Y-56789239D01*
X217187734Y-56693068D01*
X217374139Y-56562547D01*
X217535047Y-56401639D01*
X217665568Y-56215234D01*
X217761739Y-56008996D01*
X217761741Y-56008990D01*
X217761873Y-56008707D01*
X217816223Y-55938783D01*
X217895531Y-55899365D01*
X217984087Y-55898260D01*
X218064353Y-55935689D01*
X218117730Y-55998999D01*
X218151346Y-56061889D01*
X218650736Y-55562500D01*
X218650736Y-55562499D01*
X218151346Y-55063109D01*
X218151344Y-55063110D01*
X218117730Y-55125999D01*
X218059648Y-55192857D01*
X217978309Y-55227893D01*
X217889825Y-55224167D01*
X217811719Y-55182419D01*
X217761873Y-55116292D01*
X217737153Y-55063281D01*
X217665568Y-54909766D01*
X217535047Y-54723361D01*
X217450532Y-54638846D01*
X218575609Y-54638846D01*
X219075000Y-55138236D01*
X219075001Y-55138236D01*
X219574389Y-54638846D01*
X219574389Y-54638845D01*
X219478764Y-54587733D01*
X219280834Y-54527691D01*
X219075000Y-54507419D01*
X218869165Y-54527691D01*
X218671239Y-54587731D01*
X218575609Y-54638846D01*
X217450532Y-54638846D01*
X217393785Y-54582099D01*
X217346667Y-54507110D01*
X217335500Y-54441385D01*
X217335500Y-53578658D01*
X217324174Y-53521719D01*
X217304737Y-53424003D01*
X217264572Y-53327036D01*
X217244396Y-53278325D01*
X217244392Y-53278318D01*
X217243805Y-53277439D01*
X217156789Y-53147211D01*
X217045289Y-53035711D01*
X215140289Y-51130711D01*
X215043577Y-51066090D01*
X215009181Y-51043107D01*
X215009174Y-51043103D01*
X214863500Y-50982764D01*
X214863498Y-50982763D01*
X214863497Y-50982763D01*
X214863495Y-50982762D01*
X214863493Y-50982762D01*
X214785125Y-50967173D01*
X214708842Y-50952000D01*
X214708841Y-50952000D01*
X211306114Y-50952000D01*
X211219771Y-50932293D01*
X211165400Y-50893714D01*
X211024141Y-50752455D01*
X211024139Y-50752453D01*
X210837734Y-50621932D01*
X210631496Y-50525761D01*
X210631497Y-50525761D01*
X210631490Y-50525758D01*
X210411704Y-50466867D01*
X210411692Y-50466865D01*
X210185000Y-50447032D01*
X209958307Y-50466865D01*
X209958295Y-50466867D01*
X209738509Y-50525758D01*
X209532266Y-50621932D01*
X209345858Y-50752455D01*
X209184953Y-50913361D01*
X209184950Y-50913363D01*
X209078011Y-51066090D01*
X209012344Y-51125515D01*
X208927397Y-51150563D01*
X208839994Y-51136272D01*
X208767447Y-51085475D01*
X208751989Y-51066090D01*
X208645049Y-50913363D01*
X208484141Y-50752455D01*
X208484139Y-50752453D01*
X208297734Y-50621932D01*
X208091496Y-50525761D01*
X208091497Y-50525761D01*
X208091490Y-50525758D01*
X207871704Y-50466867D01*
X207871692Y-50466865D01*
X207645000Y-50447032D01*
X207418307Y-50466865D01*
X207418295Y-50466867D01*
X207198509Y-50525758D01*
X206992266Y-50621932D01*
X206805858Y-50752455D01*
X206644955Y-50913358D01*
X206514432Y-51099766D01*
X206418258Y-51306009D01*
X206359367Y-51525795D01*
X206359365Y-51525807D01*
X206359365Y-51525808D01*
X206341825Y-51726297D01*
X206339532Y-51752501D01*
X206345393Y-51819500D01*
X206333285Y-51907232D01*
X206287864Y-51977556D01*
X205237480Y-53027940D01*
X205162492Y-53075059D01*
X205074485Y-53084975D01*
X204990892Y-53055724D01*
X204928268Y-52993100D01*
X204900216Y-52918357D01*
X204894627Y-52883068D01*
X204868477Y-52717966D01*
X204827431Y-52591639D01*
X204805222Y-52523287D01*
X204805221Y-52523286D01*
X204805220Y-52523281D01*
X204805216Y-52523275D01*
X204805214Y-52523268D01*
X204712293Y-52340900D01*
X204712287Y-52340890D01*
X204648220Y-52252709D01*
X204591966Y-52175281D01*
X204447219Y-52030534D01*
X204359082Y-51966499D01*
X204281609Y-51910212D01*
X204281599Y-51910206D01*
X204109156Y-51822342D01*
X204041170Y-51765584D01*
X204004545Y-51684949D01*
X204000500Y-51645032D01*
X204000500Y-50882491D01*
X204020207Y-50796148D01*
X204075426Y-50726907D01*
X204129956Y-50696039D01*
X204242331Y-50654126D01*
X204357546Y-50567876D01*
X204443796Y-50452661D01*
X204494091Y-50317813D01*
X204500500Y-50258203D01*
X204500499Y-48562458D01*
X204500499Y-48562457D01*
X204500499Y-48562453D01*
X204494091Y-48502848D01*
X204464124Y-48422500D01*
X204443796Y-48367999D01*
X204397456Y-48306097D01*
X204357546Y-48252783D01*
X204242335Y-48166537D01*
X204242331Y-48166534D01*
X204107483Y-48116239D01*
X204047873Y-48109830D01*
X204047868Y-48109830D01*
X203900068Y-48109830D01*
X203813725Y-48090123D01*
X203744484Y-48034904D01*
X203706057Y-47955112D01*
X203706057Y-47866548D01*
X203744484Y-47786756D01*
X203779355Y-47754702D01*
X203778615Y-47753800D01*
X203946055Y-47616385D01*
X204077269Y-47456500D01*
X204174766Y-47274094D01*
X204206243Y-47170330D01*
X203465686Y-47170330D01*
X203520080Y-47115936D01*
X203572741Y-47024724D01*
X203600000Y-46922991D01*
X203600000Y-46817669D01*
X203572741Y-46715936D01*
X203520080Y-46624724D01*
X203465686Y-46570330D01*
X203500000Y-46570330D01*
X204206243Y-46570330D01*
X204206243Y-46570329D01*
X204174766Y-46466565D01*
X204077269Y-46284159D01*
X203946055Y-46124274D01*
X203786170Y-45993060D01*
X203603764Y-45895563D01*
X203500000Y-45864086D01*
X203500000Y-46570330D01*
X203465686Y-46570330D01*
X203445606Y-46550250D01*
X203354394Y-46497589D01*
X203252661Y-46470330D01*
X203147339Y-46470330D01*
X203045606Y-46497589D01*
X202954394Y-46550250D01*
X202879920Y-46624724D01*
X202827259Y-46715936D01*
X202800000Y-46817669D01*
X202800000Y-46922991D01*
X202827259Y-47024724D01*
X202879920Y-47115936D01*
X202934314Y-47170330D01*
X202193756Y-47170330D01*
X202225233Y-47274094D01*
X202322730Y-47456500D01*
X202453944Y-47616385D01*
X202621385Y-47753800D01*
X202620026Y-47755455D01*
X202671330Y-47809717D01*
X202698227Y-47894097D01*
X202685850Y-47981791D01*
X202636649Y-48055431D01*
X202560370Y-48100430D01*
X202499933Y-48109830D01*
X202352123Y-48109830D01*
X202292518Y-48116238D01*
X202157670Y-48166533D01*
X202157664Y-48166537D01*
X202042453Y-48252783D01*
X201956207Y-48367994D01*
X201956204Y-48367999D01*
X201905909Y-48502847D01*
X201899500Y-48562457D01*
X201899500Y-48562458D01*
X201899500Y-48562462D01*
X201899500Y-50258206D01*
X201905908Y-50317811D01*
X201956203Y-50452659D01*
X201956207Y-50452665D01*
X202042453Y-50567876D01*
X202114663Y-50621932D01*
X202157669Y-50654126D01*
X202157670Y-50654126D01*
X202157671Y-50654127D01*
X202203004Y-50671035D01*
X202270043Y-50696038D01*
X202344054Y-50744675D01*
X202389634Y-50820609D01*
X202399500Y-50882491D01*
X202399500Y-51645032D01*
X202379793Y-51731375D01*
X202324574Y-51800616D01*
X202290844Y-51822342D01*
X202118400Y-51910206D01*
X202118390Y-51910212D01*
X201952783Y-52030532D01*
X201952779Y-52030535D01*
X201819601Y-52163714D01*
X201744613Y-52210833D01*
X201678887Y-52222000D01*
X200439006Y-52222000D01*
X200352663Y-52202293D01*
X200298292Y-52163714D01*
X200248786Y-52114208D01*
X200201667Y-52039220D01*
X200190500Y-51973494D01*
X200190500Y-48871999D01*
X200210207Y-48785656D01*
X200265426Y-48716415D01*
X200345218Y-48677988D01*
X200389500Y-48672999D01*
X200937877Y-48672999D01*
X200980451Y-48668421D01*
X200997483Y-48666591D01*
X201132331Y-48616296D01*
X201247546Y-48530046D01*
X201333796Y-48414831D01*
X201384091Y-48279983D01*
X201390500Y-48220373D01*
X201390499Y-46570329D01*
X202193756Y-46570329D01*
X202193757Y-46570330D01*
X202900000Y-46570330D01*
X202900000Y-45864087D01*
X202899999Y-45864086D01*
X202796235Y-45895563D01*
X202613829Y-45993060D01*
X202453944Y-46124274D01*
X202322730Y-46284159D01*
X202225233Y-46466565D01*
X202193756Y-46570329D01*
X201390499Y-46570329D01*
X201390499Y-45124628D01*
X201390499Y-45124627D01*
X201390499Y-45124623D01*
X201386783Y-45090061D01*
X208794162Y-45090061D01*
X208794162Y-45090069D01*
X208815470Y-45232351D01*
X208815473Y-45232366D01*
X209804805Y-48530139D01*
X209804809Y-48530150D01*
X209829171Y-48594886D01*
X209829172Y-48594888D01*
X209906960Y-48715928D01*
X210015697Y-48810150D01*
X210146575Y-48869920D01*
X210288991Y-48890396D01*
X210288994Y-48890396D01*
X223516340Y-48890396D01*
X223516347Y-48890396D01*
X223591217Y-48884821D01*
X223729029Y-48843477D01*
X223849611Y-48764982D01*
X223943194Y-48655694D01*
X224002197Y-48524468D01*
X224021838Y-48381935D01*
X224000528Y-48239642D01*
X224000527Y-48239640D01*
X224000526Y-48239633D01*
X223011194Y-44941860D01*
X223011190Y-44941849D01*
X222986828Y-44877113D01*
X222986828Y-44877112D01*
X222909040Y-44756072D01*
X222800303Y-44661850D01*
X222669425Y-44602080D01*
X222527009Y-44581604D01*
X209299653Y-44581604D01*
X209269589Y-44583842D01*
X209224786Y-44587178D01*
X209086972Y-44628522D01*
X208966387Y-44707018D01*
X208872806Y-44816306D01*
X208813802Y-44947533D01*
X208794162Y-45090061D01*
X201386783Y-45090061D01*
X201384091Y-45065018D01*
X201374351Y-45038902D01*
X201333796Y-44930169D01*
X201294078Y-44877112D01*
X201247546Y-44814953D01*
X201132335Y-44728707D01*
X201132331Y-44728704D01*
X200997483Y-44678409D01*
X200937873Y-44672000D01*
X200937867Y-44672000D01*
X197842123Y-44672000D01*
X197782518Y-44678408D01*
X197647670Y-44728703D01*
X197647664Y-44728707D01*
X197532453Y-44814953D01*
X197446207Y-44930164D01*
X197446204Y-44930169D01*
X197395909Y-45065017D01*
X197389500Y-45124627D01*
X197389500Y-45124628D01*
X197389500Y-45124632D01*
X197389500Y-48220376D01*
X197395908Y-48279981D01*
X197446203Y-48414829D01*
X197446207Y-48414835D01*
X197532453Y-48530046D01*
X197575756Y-48562462D01*
X197647669Y-48616296D01*
X197782517Y-48666591D01*
X197842127Y-48673000D01*
X198390501Y-48672999D01*
X198476843Y-48692706D01*
X198546084Y-48747924D01*
X198584511Y-48827717D01*
X198589500Y-48871999D01*
X198589500Y-49433494D01*
X198569793Y-49519837D01*
X198531214Y-49574208D01*
X198481708Y-49623714D01*
X198406720Y-49670833D01*
X198340994Y-49682000D01*
X190116113Y-49682000D01*
X190029770Y-49662293D01*
X189975399Y-49623714D01*
X189842221Y-49490536D01*
X189842220Y-49490535D01*
X189842219Y-49490534D01*
X189676610Y-49370213D01*
X189631153Y-49347051D01*
X189563169Y-49290291D01*
X189526544Y-49209656D01*
X189522500Y-49169742D01*
X189522500Y-48111114D01*
X189542207Y-48024771D01*
X189580786Y-47970400D01*
X189638029Y-47913157D01*
X189722047Y-47829139D01*
X189852568Y-47642734D01*
X189948739Y-47436496D01*
X189949430Y-47433920D01*
X190007632Y-47216704D01*
X190007632Y-47216701D01*
X190007635Y-47216692D01*
X190027468Y-46990000D01*
X190007635Y-46763308D01*
X190007632Y-46763295D01*
X189983304Y-46672500D01*
X192555093Y-46672500D01*
X192574694Y-46934057D01*
X192633058Y-47189764D01*
X192633060Y-47189771D01*
X192728880Y-47433920D01*
X192728880Y-47433921D01*
X192860026Y-47661069D01*
X192860031Y-47661077D01*
X192876502Y-47681732D01*
X193604057Y-46954178D01*
X193636497Y-47032495D01*
X193719670Y-47156972D01*
X193825528Y-47262830D01*
X193950005Y-47346003D01*
X194028321Y-47378442D01*
X193302876Y-48103886D01*
X193302876Y-48103887D01*
X193432547Y-48192294D01*
X193668860Y-48306096D01*
X193919500Y-48383409D01*
X194178854Y-48422500D01*
X194441146Y-48422500D01*
X194700499Y-48383409D01*
X194951136Y-48306097D01*
X195187453Y-48192293D01*
X195187461Y-48192289D01*
X195317122Y-48103887D01*
X195317123Y-48103886D01*
X194591679Y-47378442D01*
X194669995Y-47346003D01*
X194794472Y-47262830D01*
X194900330Y-47156972D01*
X194983503Y-47032495D01*
X195015942Y-46954178D01*
X195743496Y-47681733D01*
X195759971Y-47661074D01*
X195891119Y-47433921D01*
X195891119Y-47433920D01*
X195986939Y-47189771D01*
X195986941Y-47189764D01*
X196045305Y-46934057D01*
X196064906Y-46672500D01*
X196045305Y-46410942D01*
X195986941Y-46155235D01*
X195986939Y-46155228D01*
X195891119Y-45911079D01*
X195891119Y-45911078D01*
X195759968Y-45683921D01*
X195743497Y-45663266D01*
X195743496Y-45663265D01*
X195015942Y-46390820D01*
X194983503Y-46312505D01*
X194900330Y-46188028D01*
X194794472Y-46082170D01*
X194669995Y-45998997D01*
X194591678Y-45966557D01*
X195317122Y-45241112D01*
X195317122Y-45241111D01*
X195187457Y-45152708D01*
X195187452Y-45152706D01*
X194951136Y-45038902D01*
X194700499Y-44961590D01*
X194441146Y-44922500D01*
X194178854Y-44922500D01*
X193919500Y-44961590D01*
X193668860Y-45038903D01*
X193432545Y-45152707D01*
X193302876Y-45241112D01*
X193302875Y-45241112D01*
X194028321Y-45966557D01*
X193950005Y-45998997D01*
X193825528Y-46082170D01*
X193719670Y-46188028D01*
X193636497Y-46312505D01*
X193604057Y-46390820D01*
X192876502Y-45663266D01*
X192876500Y-45663266D01*
X192860035Y-45683915D01*
X192860029Y-45683923D01*
X192728880Y-45911078D01*
X192728880Y-45911079D01*
X192633060Y-46155228D01*
X192633058Y-46155235D01*
X192574694Y-46410942D01*
X192555093Y-46672500D01*
X189983304Y-46672500D01*
X189948741Y-46543509D01*
X189948739Y-46543504D01*
X189852568Y-46337266D01*
X189722047Y-46150861D01*
X189561139Y-45989953D01*
X189374734Y-45859432D01*
X189168496Y-45763261D01*
X189168497Y-45763261D01*
X189168490Y-45763258D01*
X188948704Y-45704367D01*
X188948692Y-45704365D01*
X188722000Y-45684532D01*
X188495307Y-45704365D01*
X188495295Y-45704367D01*
X188275509Y-45763258D01*
X188069266Y-45859432D01*
X187882858Y-45989955D01*
X187721953Y-46150861D01*
X187721950Y-46150863D01*
X187615011Y-46303590D01*
X187549344Y-46363015D01*
X187464397Y-46388063D01*
X187376994Y-46373772D01*
X187304447Y-46322975D01*
X187288989Y-46303590D01*
X187182049Y-46150863D01*
X187021141Y-45989955D01*
X187021139Y-45989953D01*
X186834734Y-45859432D01*
X186628496Y-45763261D01*
X186628497Y-45763261D01*
X186628490Y-45763258D01*
X186408704Y-45704367D01*
X186408692Y-45704365D01*
X186182000Y-45684532D01*
X185955307Y-45704365D01*
X185955295Y-45704367D01*
X185735509Y-45763258D01*
X185529266Y-45859432D01*
X185342858Y-45989955D01*
X185191600Y-46141214D01*
X185116612Y-46188333D01*
X185050886Y-46199500D01*
X184066006Y-46199500D01*
X183979663Y-46179793D01*
X183925292Y-46141214D01*
X183835785Y-46051707D01*
X183788666Y-45976719D01*
X183777499Y-45910993D01*
X183777499Y-44777123D01*
X183771091Y-44717518D01*
X183761259Y-44691155D01*
X183720796Y-44582669D01*
X183698750Y-44553219D01*
X183634546Y-44467453D01*
X183519335Y-44381207D01*
X183519331Y-44381204D01*
X183384483Y-44330909D01*
X183324873Y-44324500D01*
X183324867Y-44324500D01*
X181429123Y-44324500D01*
X181369518Y-44330908D01*
X181234670Y-44381203D01*
X181234664Y-44381207D01*
X181119453Y-44467453D01*
X181033207Y-44582664D01*
X181033204Y-44582669D01*
X180982909Y-44717517D01*
X180976500Y-44777127D01*
X180976500Y-44777128D01*
X180976500Y-44777132D01*
X180976500Y-44939480D01*
X180956793Y-45025823D01*
X180901574Y-45095064D01*
X180881559Y-45104702D01*
X180287000Y-45699262D01*
X180287000Y-45665756D01*
X180256333Y-45551306D01*
X180197090Y-45448694D01*
X180113306Y-45364910D01*
X180010694Y-45305667D01*
X179896244Y-45275000D01*
X179862737Y-45275000D01*
X180410335Y-44727399D01*
X180351799Y-44691154D01*
X180153062Y-44614162D01*
X180153064Y-44614162D01*
X179943561Y-44575000D01*
X179730439Y-44575000D01*
X179520935Y-44614162D01*
X179520933Y-44614163D01*
X179322211Y-44691148D01*
X179322198Y-44691155D01*
X179263663Y-44727398D01*
X179263662Y-44727398D01*
X179811264Y-45275000D01*
X179777756Y-45275000D01*
X179663306Y-45305667D01*
X179560694Y-45364910D01*
X179476910Y-45448694D01*
X179417667Y-45551306D01*
X179387000Y-45665756D01*
X179387000Y-45699263D01*
X178838335Y-45150598D01*
X178838334Y-45150599D01*
X178760062Y-45307792D01*
X178760061Y-45307794D01*
X178701739Y-45512776D01*
X178701737Y-45512786D01*
X178682073Y-45724999D01*
X176522500Y-45724999D01*
X176522500Y-43114108D01*
X176488392Y-42986814D01*
X176422500Y-42872686D01*
X176329314Y-42779500D01*
X176262014Y-42740644D01*
X176197095Y-42680407D01*
X176164740Y-42597966D01*
X176162523Y-42569770D01*
X176153995Y-41392937D01*
X176173076Y-41306459D01*
X176227791Y-41236819D01*
X176307304Y-41197815D01*
X176352990Y-41192500D01*
X225830500Y-41192500D01*
X225916843Y-41212207D01*
G37*
%TD.AperFunction*%
%TD*%
M02*
